# Tiled2Unity generated file. Do not modify by hand.
# Wavefront file for 'map_mesh_0290.obj'

# Vertices (Count = 28)
v -320 -640 0
v -384 -640 0
v -384 -576 0
v -320 -576 0
v 0 -704 0
v -64 -704 0
v -64 -640 0
v 0 -640 0
v -64 -704 0
v -128 -704 0
v -128 -640 0
v -64 -640 0
v -128 -704 0
v -192 -704 0
v -192 -640 0
v -128 -640 0
v -192 -704 0
v -256 -704 0
v -256 -640 0
v -192 -640 0
v -256 -704 0
v -320 -704 0
v -320 -640 0
v -256 -640 0
v -320 -704 0
v -384 -704 0
v -384 -640 0
v -320 -640 0

# Texture cooridinates (Count = 10)
vt 0.75 0.25
vt 1 0.25
vt 1 0.5
vt 0.75 0.5
vt 0.25 0
vt 0.5 0
vt 0.5 0.25
vt 0.25 0.25
vt 0.75 0
vt 1 0

# Normal
vn 0 0 -1

# Mesh description
g map_mesh_0290

# Faces
f 1/1/1 2/2/1 3/3/1 4/4/1
f 5/5/1 6/6/1 7/7/1 8/8/1
f 9/6/1 10/9/1 11/1/1 12/7/1
f 13/5/1 14/6/1 15/7/1 16/8/1
f 17/6/1 18/9/1 19/1/1 20/7/1
f 21/5/1 22/6/1 23/7/1 24/8/1
f 25/9/1 26/10/1 27/2/1 28/1/1

