# Tiled2Unity generated file. Do not modify by hand.
# Wavefront file for 'map_mesh_0082.obj'

# Vertices (Count = 180)
v 0 -512 0
v -64 -512 0
v -64 -448 0
v 0 -448 0
v 0 -576 0
v -64 -576 0
v -64 -512 0
v 0 -512 0
v -64 -576 0
v -128 -576 0
v -128 -512 0
v -64 -512 0
v -128 -576 0
v -192 -576 0
v -192 -512 0
v -128 -512 0
v 0 -640 0
v -64 -640 0
v -64 -576 0
v 0 -576 0
v -64 -640 0
v -128 -640 0
v -128 -576 0
v -64 -576 0
v -128 -640 0
v -192 -640 0
v -192 -576 0
v -128 -576 0
v 0 -704 0
v -64 -704 0
v -64 -640 0
v 0 -640 0
v -64 -704 0
v -128 -704 0
v -128 -640 0
v -64 -640 0
v -128 -704 0
v -192 -704 0
v -192 -640 0
v -128 -640 0
v -192 -704 0
v -256 -704 0
v -256 -640 0
v -192 -640 0
v -256 -704 0
v -320 -704 0
v -320 -640 0
v -256 -640 0
v 0 -768 0
v -64 -768 0
v -64 -704 0
v 0 -704 0
v -64 -768 0
v -128 -768 0
v -128 -704 0
v -64 -704 0
v -128 -768 0
v -192 -768 0
v -192 -704 0
v -128 -704 0
v -192 -768 0
v -256 -768 0
v -256 -704 0
v -192 -704 0
v -256 -768 0
v -320 -768 0
v -320 -704 0
v -256 -704 0
v -320 -768 0
v -384 -768 0
v -384 -704 0
v -320 -704 0
v 0 -832 0
v -64 -832 0
v -64 -768 0
v 0 -768 0
v -64 -832 0
v -128 -832 0
v -128 -768 0
v -64 -768 0
v -128 -832 0
v -192 -832 0
v -192 -768 0
v -128 -768 0
v -192 -832 0
v -256 -832 0
v -256 -768 0
v -192 -768 0
v -256 -832 0
v -320 -832 0
v -320 -768 0
v -256 -768 0
v -320 -832 0
v -384 -832 0
v -384 -768 0
v -320 -768 0
v 0 -896 0
v -64 -896 0
v -64 -832 0
v 0 -832 0
v -64 -896 0
v -128 -896 0
v -128 -832 0
v -64 -832 0
v -128 -896 0
v -192 -896 0
v -192 -832 0
v -128 -832 0
v -192 -896 0
v -256 -896 0
v -256 -832 0
v -192 -832 0
v -256 -896 0
v -320 -896 0
v -320 -832 0
v -256 -832 0
v -320 -896 0
v -384 -896 0
v -384 -832 0
v -320 -832 0
v -384 -896 0
v -448 -896 0
v -448 -832 0
v -384 -832 0
v 0 -960 0
v -64 -960 0
v -64 -896 0
v 0 -896 0
v -64 -960 0
v -128 -960 0
v -128 -896 0
v -64 -896 0
v -128 -960 0
v -192 -960 0
v -192 -896 0
v -128 -896 0
v -192 -960 0
v -256 -960 0
v -256 -896 0
v -192 -896 0
v -256 -960 0
v -320 -960 0
v -320 -896 0
v -256 -896 0
v -320 -960 0
v -384 -960 0
v -384 -896 0
v -320 -896 0
v -384 -960 0
v -448 -960 0
v -448 -896 0
v -384 -896 0
v 0 -1024 0
v -64 -1024 0
v -64 -960 0
v 0 -960 0
v -64 -1024 0
v -128 -1024 0
v -128 -960 0
v -64 -960 0
v -128 -1024 0
v -192 -1024 0
v -192 -960 0
v -128 -960 0
v -192 -1024 0
v -256 -1024 0
v -256 -960 0
v -192 -960 0
v -256 -1024 0
v -320 -1024 0
v -320 -960 0
v -256 -960 0
v -320 -1024 0
v -384 -1024 0
v -384 -960 0
v -320 -960 0
v -384 -1024 0
v -448 -1024 0
v -448 -960 0
v -384 -960 0

# Texture cooridinates (Count = 6)
vt 0.5 0
vt 1 0
vt 1 1
vt 0.5 1
vt 0 0
vt 0 1

# Normal
vn 0 0 -1

# Mesh description
g map_mesh_0082

# Faces
f 1/1/1 2/2/1 3/3/1 4/4/1
f 5/1/1 6/2/1 7/3/1 8/4/1
f 9/1/1 10/2/1 11/3/1 12/4/1
f 13/1/1 14/2/1 15/3/1 16/4/1
f 17/5/1 18/1/1 19/4/1 20/6/1
f 21/5/1 22/1/1 23/4/1 24/6/1
f 25/1/1 26/2/1 27/3/1 28/4/1
f 29/5/1 30/1/1 31/4/1 32/6/1
f 33/5/1 34/1/1 35/4/1 36/6/1
f 37/5/1 38/1/1 39/4/1 40/6/1
f 41/1/1 42/2/1 43/3/1 44/4/1
f 45/1/1 46/2/1 47/3/1 48/4/1
f 49/5/1 50/1/1 51/4/1 52/6/1
f 53/5/1 54/1/1 55/4/1 56/6/1
f 57/5/1 58/1/1 59/4/1 60/6/1
f 61/5/1 62/1/1 63/4/1 64/6/1
f 65/1/1 66/2/1 67/3/1 68/4/1
f 69/1/1 70/2/1 71/3/1 72/4/1
f 73/5/1 74/1/1 75/4/1 76/6/1
f 77/5/1 78/1/1 79/4/1 80/6/1
f 81/5/1 82/1/1 83/4/1 84/6/1
f 85/5/1 86/1/1 87/4/1 88/6/1
f 89/5/1 90/1/1 91/4/1 92/6/1
f 93/1/1 94/2/1 95/3/1 96/4/1
f 97/5/1 98/1/1 99/4/1 100/6/1
f 101/5/1 102/1/1 103/4/1 104/6/1
f 105/5/1 106/1/1 107/4/1 108/6/1
f 109/5/1 110/1/1 111/4/1 112/6/1
f 113/5/1 114/1/1 115/4/1 116/6/1
f 117/5/1 118/1/1 119/4/1 120/6/1
f 121/1/1 122/2/1 123/3/1 124/4/1
f 125/5/1 126/1/1 127/4/1 128/6/1
f 129/5/1 130/1/1 131/4/1 132/6/1
f 133/5/1 134/1/1 135/4/1 136/6/1
f 137/5/1 138/1/1 139/4/1 140/6/1
f 141/5/1 142/1/1 143/4/1 144/6/1
f 145/5/1 146/1/1 147/4/1 148/6/1
f 149/1/1 150/2/1 151/3/1 152/4/1
f 153/5/1 154/1/1 155/4/1 156/6/1
f 157/5/1 158/1/1 159/4/1 160/6/1
f 161/5/1 162/1/1 163/4/1 164/6/1
f 165/5/1 166/1/1 167/4/1 168/6/1
f 169/5/1 170/1/1 171/4/1 172/6/1
f 173/5/1 174/1/1 175/4/1 176/6/1
f 177/1/1 178/2/1 179/3/1 180/4/1

