# Tiled2Unity generated file. Do not modify by hand.
# Wavefront file for 'map_mesh_0443.obj'

# Vertices (Count = 124)
v -960 -64 0
v -1024 -64 0
v -1024 0 0
v -960 0 0
v -960 -128 0
v -1024 -128 0
v -1024 -64 0
v -960 -64 0
v -960 -192 0
v -1024 -192 0
v -1024 -128 0
v -960 -128 0
v -960 -256 0
v -1024 -256 0
v -1024 -192 0
v -960 -192 0
v -960 -320 0
v -1024 -320 0
v -1024 -256 0
v -960 -256 0
v -960 -384 0
v -1024 -384 0
v -1024 -320 0
v -960 -320 0
v -896 -448 0
v -960 -448 0
v -960 -384 0
v -896 -384 0
v -960 -448 0
v -1024 -448 0
v -1024 -384 0
v -960 -384 0
v -896 -512 0
v -960 -512 0
v -960 -448 0
v -896 -448 0
v -960 -512 0
v -1024 -512 0
v -1024 -448 0
v -960 -448 0
v -896 -576 0
v -960 -576 0
v -960 -512 0
v -896 -512 0
v -960 -576 0
v -1024 -576 0
v -1024 -512 0
v -960 -512 0
v -896 -640 0
v -960 -640 0
v -960 -576 0
v -896 -576 0
v -960 -640 0
v -1024 -640 0
v -1024 -576 0
v -960 -576 0
v -896 -704 0
v -960 -704 0
v -960 -640 0
v -896 -640 0
v -960 -704 0
v -1024 -704 0
v -1024 -640 0
v -960 -640 0
v -832 -768 0
v -896 -768 0
v -896 -704 0
v -832 -704 0
v -896 -768 0
v -960 -768 0
v -960 -704 0
v -896 -704 0
v -960 -768 0
v -1024 -768 0
v -1024 -704 0
v -960 -704 0
v -832 -832 0
v -896 -832 0
v -896 -768 0
v -832 -768 0
v -896 -832 0
v -960 -832 0
v -960 -768 0
v -896 -768 0
v -960 -832 0
v -1024 -832 0
v -1024 -768 0
v -960 -768 0
v -832 -896 0
v -896 -896 0
v -896 -832 0
v -832 -832 0
v -896 -896 0
v -960 -896 0
v -960 -832 0
v -896 -832 0
v -960 -896 0
v -1024 -896 0
v -1024 -832 0
v -960 -832 0
v -832 -960 0
v -896 -960 0
v -896 -896 0
v -832 -896 0
v -896 -960 0
v -960 -960 0
v -960 -896 0
v -896 -896 0
v -960 -960 0
v -1024 -960 0
v -1024 -896 0
v -960 -896 0
v -832 -1024 0
v -896 -1024 0
v -896 -960 0
v -832 -960 0
v -896 -1024 0
v -960 -1024 0
v -960 -960 0
v -896 -960 0
v -960 -1024 0
v -1024 -1024 0
v -1024 -960 0
v -960 -960 0

# Texture cooridinates (Count = 6)
vt 0.5 0
vt 1 0
vt 1 1
vt 0.5 1
vt 0 0
vt 0 1

# Normal
vn 0 0 -1

# Mesh description
g map_mesh_0443

# Faces
f 1/1/1 2/2/1 3/3/1 4/4/1
f 5/1/1 6/2/1 7/3/1 8/4/1
f 9/1/1 10/2/1 11/3/1 12/4/1
f 13/1/1 14/2/1 15/3/1 16/4/1
f 17/1/1 18/2/1 19/3/1 20/4/1
f 21/1/1 22/2/1 23/3/1 24/4/1
f 25/1/1 26/2/1 27/3/1 28/4/1
f 29/5/1 30/1/1 31/4/1 32/6/1
f 33/1/1 34/2/1 35/3/1 36/4/1
f 37/5/1 38/1/1 39/4/1 40/6/1
f 41/1/1 42/2/1 43/3/1 44/4/1
f 45/5/1 46/1/1 47/4/1 48/6/1
f 49/1/1 50/2/1 51/3/1 52/4/1
f 53/5/1 54/1/1 55/4/1 56/6/1
f 57/1/1 58/2/1 59/3/1 60/4/1
f 61/5/1 62/1/1 63/4/1 64/6/1
f 65/1/1 66/2/1 67/3/1 68/4/1
f 69/5/1 70/1/1 71/4/1 72/6/1
f 73/5/1 74/1/1 75/4/1 76/6/1
f 77/1/1 78/2/1 79/3/1 80/4/1
f 81/5/1 82/1/1 83/4/1 84/6/1
f 85/5/1 86/1/1 87/4/1 88/6/1
f 89/1/1 90/2/1 91/3/1 92/4/1
f 93/5/1 94/1/1 95/4/1 96/6/1
f 97/5/1 98/1/1 99/4/1 100/6/1
f 101/1/1 102/2/1 103/3/1 104/4/1
f 105/5/1 106/1/1 107/4/1 108/6/1
f 109/5/1 110/1/1 111/4/1 112/6/1
f 113/1/1 114/2/1 115/3/1 116/4/1
f 117/5/1 118/1/1 119/4/1 120/6/1
f 121/5/1 122/1/1 123/4/1 124/6/1

