# Tiled2Unity generated file. Do not modify by hand.
# Wavefront file for 'map_mesh_0340.obj'

# Vertices (Count = 488)
v -832 -64 0
v -896 -64 0
v -896 0 0
v -832 0 0
v -896 -64 0
v -960 -64 0
v -960 0 0
v -896 0 0
v -960 -64 0
v -1024 -64 0
v -1024 0 0
v -960 0 0
v -832 -128 0
v -896 -128 0
v -896 -64 0
v -832 -64 0
v -896 -128 0
v -960 -128 0
v -960 -64 0
v -896 -64 0
v -960 -128 0
v -1024 -128 0
v -1024 -64 0
v -960 -64 0
v -832 -192 0
v -896 -192 0
v -896 -128 0
v -832 -128 0
v -896 -192 0
v -960 -192 0
v -960 -128 0
v -896 -128 0
v -960 -192 0
v -1024 -192 0
v -1024 -128 0
v -960 -128 0
v -832 -256 0
v -896 -256 0
v -896 -192 0
v -832 -192 0
v -896 -256 0
v -960 -256 0
v -960 -192 0
v -896 -192 0
v -960 -256 0
v -1024 -256 0
v -1024 -192 0
v -960 -192 0
v -832 -320 0
v -896 -320 0
v -896 -256 0
v -832 -256 0
v -896 -320 0
v -960 -320 0
v -960 -256 0
v -896 -256 0
v -960 -320 0
v -1024 -320 0
v -1024 -256 0
v -960 -256 0
v -832 -384 0
v -896 -384 0
v -896 -320 0
v -832 -320 0
v -896 -384 0
v -960 -384 0
v -960 -320 0
v -896 -320 0
v -960 -384 0
v -1024 -384 0
v -1024 -320 0
v -960 -320 0
v 0 -448 0
v -64 -448 0
v -64 -384 0
v 0 -384 0
v -64 -448 0
v -128 -448 0
v -128 -384 0
v -64 -384 0
v -832 -448 0
v -896 -448 0
v -896 -384 0
v -832 -384 0
v -896 -448 0
v -960 -448 0
v -960 -384 0
v -896 -384 0
v -960 -448 0
v -1024 -448 0
v -1024 -384 0
v -960 -384 0
v -832 -512 0
v -896 -512 0
v -896 -448 0
v -832 -448 0
v -896 -512 0
v -960 -512 0
v -960 -448 0
v -896 -448 0
v -960 -512 0
v -1024 -512 0
v -1024 -448 0
v -960 -448 0
v -832 -576 0
v -896 -576 0
v -896 -512 0
v -832 -512 0
v -896 -576 0
v -960 -576 0
v -960 -512 0
v -896 -512 0
v -960 -576 0
v -1024 -576 0
v -1024 -512 0
v -960 -512 0
v -832 -640 0
v -896 -640 0
v -896 -576 0
v -832 -576 0
v -896 -640 0
v -960 -640 0
v -960 -576 0
v -896 -576 0
v -960 -640 0
v -1024 -640 0
v -1024 -576 0
v -960 -576 0
v 0 -704 0
v -64 -704 0
v -64 -640 0
v 0 -640 0
v -64 -704 0
v -128 -704 0
v -128 -640 0
v -64 -640 0
v -128 -704 0
v -192 -704 0
v -192 -640 0
v -128 -640 0
v -192 -704 0
v -256 -704 0
v -256 -640 0
v -192 -640 0
v -256 -704 0
v -320 -704 0
v -320 -640 0
v -256 -640 0
v -320 -704 0
v -384 -704 0
v -384 -640 0
v -320 -640 0
v -384 -704 0
v -448 -704 0
v -448 -640 0
v -384 -640 0
v -832 -704 0
v -896 -704 0
v -896 -640 0
v -832 -640 0
v -896 -704 0
v -960 -704 0
v -960 -640 0
v -896 -640 0
v -960 -704 0
v -1024 -704 0
v -1024 -640 0
v -960 -640 0
v 0 -768 0
v -64 -768 0
v -64 -704 0
v 0 -704 0
v -64 -768 0
v -128 -768 0
v -128 -704 0
v -64 -704 0
v -128 -768 0
v -192 -768 0
v -192 -704 0
v -128 -704 0
v -192 -768 0
v -256 -768 0
v -256 -704 0
v -192 -704 0
v -256 -768 0
v -320 -768 0
v -320 -704 0
v -256 -704 0
v -320 -768 0
v -384 -768 0
v -384 -704 0
v -320 -704 0
v -384 -768 0
v -448 -768 0
v -448 -704 0
v -384 -704 0
v -448 -768 0
v -512 -768 0
v -512 -704 0
v -448 -704 0
v -512 -768 0
v -576 -768 0
v -576 -704 0
v -512 -704 0
v -576 -768 0
v -640 -768 0
v -640 -704 0
v -576 -704 0
v -640 -768 0
v -704 -768 0
v -704 -704 0
v -640 -704 0
v -704 -768 0
v -768 -768 0
v -768 -704 0
v -704 -704 0
v -768 -768 0
v -832 -768 0
v -832 -704 0
v -768 -704 0
v -832 -768 0
v -896 -768 0
v -896 -704 0
v -832 -704 0
v -896 -768 0
v -960 -768 0
v -960 -704 0
v -896 -704 0
v -960 -768 0
v -1024 -768 0
v -1024 -704 0
v -960 -704 0
v 0 -832 0
v -64 -832 0
v -64 -768 0
v 0 -768 0
v -64 -832 0
v -128 -832 0
v -128 -768 0
v -64 -768 0
v -128 -832 0
v -192 -832 0
v -192 -768 0
v -128 -768 0
v -192 -832 0
v -256 -832 0
v -256 -768 0
v -192 -768 0
v -256 -832 0
v -320 -832 0
v -320 -768 0
v -256 -768 0
v -320 -832 0
v -384 -832 0
v -384 -768 0
v -320 -768 0
v -384 -832 0
v -448 -832 0
v -448 -768 0
v -384 -768 0
v -448 -832 0
v -512 -832 0
v -512 -768 0
v -448 -768 0
v -512 -832 0
v -576 -832 0
v -576 -768 0
v -512 -768 0
v -576 -832 0
v -640 -832 0
v -640 -768 0
v -576 -768 0
v -640 -832 0
v -704 -832 0
v -704 -768 0
v -640 -768 0
v -704 -832 0
v -768 -832 0
v -768 -768 0
v -704 -768 0
v -768 -832 0
v -832 -832 0
v -832 -768 0
v -768 -768 0
v -832 -832 0
v -896 -832 0
v -896 -768 0
v -832 -768 0
v -896 -832 0
v -960 -832 0
v -960 -768 0
v -896 -768 0
v -960 -832 0
v -1024 -832 0
v -1024 -768 0
v -960 -768 0
v 0 -896 0
v -64 -896 0
v -64 -832 0
v 0 -832 0
v -64 -896 0
v -128 -896 0
v -128 -832 0
v -64 -832 0
v -128 -896 0
v -192 -896 0
v -192 -832 0
v -128 -832 0
v -192 -896 0
v -256 -896 0
v -256 -832 0
v -192 -832 0
v -256 -896 0
v -320 -896 0
v -320 -832 0
v -256 -832 0
v -320 -896 0
v -384 -896 0
v -384 -832 0
v -320 -832 0
v -384 -896 0
v -448 -896 0
v -448 -832 0
v -384 -832 0
v -448 -896 0
v -512 -896 0
v -512 -832 0
v -448 -832 0
v -512 -896 0
v -576 -896 0
v -576 -832 0
v -512 -832 0
v -576 -896 0
v -640 -896 0
v -640 -832 0
v -576 -832 0
v -640 -896 0
v -704 -896 0
v -704 -832 0
v -640 -832 0
v -704 -896 0
v -768 -896 0
v -768 -832 0
v -704 -832 0
v -768 -896 0
v -832 -896 0
v -832 -832 0
v -768 -832 0
v -832 -896 0
v -896 -896 0
v -896 -832 0
v -832 -832 0
v -896 -896 0
v -960 -896 0
v -960 -832 0
v -896 -832 0
v -960 -896 0
v -1024 -896 0
v -1024 -832 0
v -960 -832 0
v 0 -960 0
v -64 -960 0
v -64 -896 0
v 0 -896 0
v -64 -960 0
v -128 -960 0
v -128 -896 0
v -64 -896 0
v -128 -960 0
v -192 -960 0
v -192 -896 0
v -128 -896 0
v -192 -960 0
v -256 -960 0
v -256 -896 0
v -192 -896 0
v -256 -960 0
v -320 -960 0
v -320 -896 0
v -256 -896 0
v -320 -960 0
v -384 -960 0
v -384 -896 0
v -320 -896 0
v -384 -960 0
v -448 -960 0
v -448 -896 0
v -384 -896 0
v -448 -960 0
v -512 -960 0
v -512 -896 0
v -448 -896 0
v -512 -960 0
v -576 -960 0
v -576 -896 0
v -512 -896 0
v -576 -960 0
v -640 -960 0
v -640 -896 0
v -576 -896 0
v -640 -960 0
v -704 -960 0
v -704 -896 0
v -640 -896 0
v -704 -960 0
v -768 -960 0
v -768 -896 0
v -704 -896 0
v -768 -960 0
v -832 -960 0
v -832 -896 0
v -768 -896 0
v -832 -960 0
v -896 -960 0
v -896 -896 0
v -832 -896 0
v -896 -960 0
v -960 -960 0
v -960 -896 0
v -896 -896 0
v -960 -960 0
v -1024 -960 0
v -1024 -896 0
v -960 -896 0
v 0 -1024 0
v -64 -1024 0
v -64 -960 0
v 0 -960 0
v -64 -1024 0
v -128 -1024 0
v -128 -960 0
v -64 -960 0
v -128 -1024 0
v -192 -1024 0
v -192 -960 0
v -128 -960 0
v -192 -1024 0
v -256 -1024 0
v -256 -960 0
v -192 -960 0
v -256 -1024 0
v -320 -1024 0
v -320 -960 0
v -256 -960 0
v -320 -1024 0
v -384 -1024 0
v -384 -960 0
v -320 -960 0
v -384 -1024 0
v -448 -1024 0
v -448 -960 0
v -384 -960 0
v -448 -1024 0
v -512 -1024 0
v -512 -960 0
v -448 -960 0
v -512 -1024 0
v -576 -1024 0
v -576 -960 0
v -512 -960 0
v -576 -1024 0
v -640 -1024 0
v -640 -960 0
v -576 -960 0
v -640 -1024 0
v -704 -1024 0
v -704 -960 0
v -640 -960 0
v -704 -1024 0
v -768 -1024 0
v -768 -960 0
v -704 -960 0
v -768 -1024 0
v -832 -1024 0
v -832 -960 0
v -768 -960 0
v -832 -1024 0
v -896 -1024 0
v -896 -960 0
v -832 -960 0
v -896 -1024 0
v -960 -1024 0
v -960 -960 0
v -896 -960 0
v -960 -1024 0
v -1024 -1024 0
v -1024 -960 0
v -960 -960 0

# Texture cooridinates (Count = 18)
vt 0.2 1
vt 0.2 0.6666666
vt 0.4 0.6666666
vt 0.4 1
vt 0.8 0.3333333
vt 1 0.3333333
vt 1 0.6666666
vt 0.8 0.6666666
vt 0.2 0
vt 0.4 0
vt 0.4 0.3333333
vt 0.2 0.3333333
vt 0.6 0
vt 0.6 0.3333333
vt 0 0.3333333
vt 0 0.6666666
vt 0.6 0.6666666
vt 0.6 1

# Normal
vn 0 0 -1

# Mesh description
g map_mesh_0340

# Faces
f 1/1/1 2/2/1 3/3/1 4/4/1
f 5/5/1 6/6/1 7/7/1 8/8/1
f 9/5/1 10/6/1 11/7/1 12/8/1
f 13/1/1 14/2/1 15/3/1 16/4/1
f 17/5/1 18/6/1 19/7/1 20/8/1
f 21/5/1 22/6/1 23/7/1 24/8/1
f 25/1/1 26/2/1 27/3/1 28/4/1
f 29/5/1 30/6/1 31/7/1 32/8/1
f 33/5/1 34/6/1 35/7/1 36/8/1
f 37/1/1 38/2/1 39/3/1 40/4/1
f 41/5/1 42/6/1 43/7/1 44/8/1
f 45/5/1 46/6/1 47/7/1 48/8/1
f 49/1/1 50/2/1 51/3/1 52/4/1
f 53/5/1 54/6/1 55/7/1 56/8/1
f 57/5/1 58/6/1 59/7/1 60/8/1
f 61/1/1 62/2/1 63/3/1 64/4/1
f 65/5/1 66/6/1 67/7/1 68/8/1
f 69/5/1 70/6/1 71/7/1 72/8/1
f 73/9/1 74/10/1 75/11/1 76/12/1
f 77/10/1 78/13/1 79/14/1 80/11/1
f 81/1/1 82/2/1 83/3/1 84/4/1
f 85/5/1 86/6/1 87/7/1 88/8/1
f 89/5/1 90/6/1 91/7/1 92/8/1
f 93/1/1 94/2/1 95/3/1 96/4/1
f 97/5/1 98/6/1 99/7/1 100/8/1
f 101/5/1 102/6/1 103/7/1 104/8/1
f 105/1/1 106/2/1 107/3/1 108/4/1
f 109/5/1 110/6/1 111/7/1 112/8/1
f 113/5/1 114/6/1 115/7/1 116/8/1
f 117/1/1 118/2/1 119/3/1 120/4/1
f 121/5/1 122/6/1 123/7/1 124/8/1
f 125/5/1 126/6/1 127/7/1 128/8/1
f 129/15/1 130/12/1 131/2/1 132/16/1
f 133/15/1 134/12/1 135/2/1 136/16/1
f 137/15/1 138/12/1 139/2/1 140/16/1
f 141/15/1 142/12/1 143/2/1 144/16/1
f 145/15/1 146/12/1 147/2/1 148/16/1
f 149/15/1 150/12/1 151/2/1 152/16/1
f 153/15/1 154/12/1 155/2/1 156/16/1
f 157/1/1 158/2/1 159/3/1 160/4/1
f 161/5/1 162/6/1 163/7/1 164/8/1
f 165/5/1 166/6/1 167/7/1 168/8/1
f 169/2/1 170/3/1 171/4/1 172/1/1
f 173/2/1 174/3/1 175/4/1 176/1/1
f 177/2/1 178/3/1 179/4/1 180/1/1
f 181/2/1 182/3/1 183/4/1 184/1/1
f 185/2/1 186/3/1 187/4/1 188/1/1
f 189/2/1 190/3/1 191/4/1 192/1/1
f 193/2/1 194/3/1 195/4/1 196/1/1
f 197/2/1 198/3/1 199/4/1 200/1/1
f 201/2/1 202/3/1 203/4/1 204/1/1
f 205/2/1 206/3/1 207/4/1 208/1/1
f 209/2/1 210/3/1 211/4/1 212/1/1
f 213/2/1 214/3/1 215/4/1 216/1/1
f 217/2/1 218/3/1 219/4/1 220/1/1
f 221/3/1 222/17/1 223/18/1 224/4/1
f 225/5/1 226/6/1 227/7/1 228/8/1
f 229/5/1 230/6/1 231/7/1 232/8/1
f 233/5/1 234/6/1 235/7/1 236/8/1
f 237/5/1 238/6/1 239/7/1 240/8/1
f 241/5/1 242/6/1 243/7/1 244/8/1
f 245/5/1 246/6/1 247/7/1 248/8/1
f 249/5/1 250/6/1 251/7/1 252/8/1
f 253/5/1 254/6/1 255/7/1 256/8/1
f 257/5/1 258/6/1 259/7/1 260/8/1
f 261/5/1 262/6/1 263/7/1 264/8/1
f 265/5/1 266/6/1 267/7/1 268/8/1
f 269/5/1 270/6/1 271/7/1 272/8/1
f 273/5/1 274/6/1 275/7/1 276/8/1
f 277/5/1 278/6/1 279/7/1 280/8/1
f 281/5/1 282/6/1 283/7/1 284/8/1
f 285/1/1 286/2/1 287/3/1 288/4/1
f 289/5/1 290/6/1 291/7/1 292/8/1
f 293/5/1 294/6/1 295/7/1 296/8/1
f 297/5/1 298/6/1 299/7/1 300/8/1
f 301/5/1 302/6/1 303/7/1 304/8/1
f 305/5/1 306/6/1 307/7/1 308/8/1
f 309/5/1 310/6/1 311/7/1 312/8/1
f 313/5/1 314/6/1 315/7/1 316/8/1
f 317/5/1 318/6/1 319/7/1 320/8/1
f 321/5/1 322/6/1 323/7/1 324/8/1
f 325/5/1 326/6/1 327/7/1 328/8/1
f 329/5/1 330/6/1 331/7/1 332/8/1
f 333/5/1 334/6/1 335/7/1 336/8/1
f 337/5/1 338/6/1 339/7/1 340/8/1
f 341/5/1 342/6/1 343/7/1 344/8/1
f 345/5/1 346/6/1 347/7/1 348/8/1
f 349/1/1 350/2/1 351/3/1 352/4/1
f 353/5/1 354/6/1 355/7/1 356/8/1
f 357/5/1 358/6/1 359/7/1 360/8/1
f 361/5/1 362/6/1 363/7/1 364/8/1
f 365/5/1 366/6/1 367/7/1 368/8/1
f 369/5/1 370/6/1 371/7/1 372/8/1
f 373/5/1 374/6/1 375/7/1 376/8/1
f 377/5/1 378/6/1 379/7/1 380/8/1
f 381/5/1 382/6/1 383/7/1 384/8/1
f 385/5/1 386/6/1 387/7/1 388/8/1
f 389/5/1 390/6/1 391/7/1 392/8/1
f 393/5/1 394/6/1 395/7/1 396/8/1
f 397/5/1 398/6/1 399/7/1 400/8/1
f 401/5/1 402/6/1 403/7/1 404/8/1
f 405/5/1 406/6/1 407/7/1 408/8/1
f 409/5/1 410/6/1 411/7/1 412/8/1
f 413/1/1 414/2/1 415/3/1 416/4/1
f 417/5/1 418/6/1 419/7/1 420/8/1
f 421/5/1 422/6/1 423/7/1 424/8/1
f 425/5/1 426/6/1 427/7/1 428/8/1
f 429/5/1 430/6/1 431/7/1 432/8/1
f 433/5/1 434/6/1 435/7/1 436/8/1
f 437/5/1 438/6/1 439/7/1 440/8/1
f 441/5/1 442/6/1 443/7/1 444/8/1
f 445/5/1 446/6/1 447/7/1 448/8/1
f 449/5/1 450/6/1 451/7/1 452/8/1
f 453/5/1 454/6/1 455/7/1 456/8/1
f 457/5/1 458/6/1 459/7/1 460/8/1
f 461/5/1 462/6/1 463/7/1 464/8/1
f 465/5/1 466/6/1 467/7/1 468/8/1
f 469/5/1 470/6/1 471/7/1 472/8/1
f 473/5/1 474/6/1 475/7/1 476/8/1
f 477/1/1 478/2/1 479/3/1 480/4/1
f 481/5/1 482/6/1 483/7/1 484/8/1
f 485/5/1 486/6/1 487/7/1 488/8/1

