# Tiled2Unity generated file. Do not modify by hand.
# Wavefront file for 'map_mesh_0219.obj'

# Vertices (Count = 264)
v 0 -768 0
v -64 -768 0
v -64 -704 0
v 0 -704 0
v -64 -768 0
v -128 -768 0
v -128 -704 0
v -64 -704 0
v -128 -768 0
v -192 -768 0
v -192 -704 0
v -128 -704 0
v -192 -768 0
v -256 -768 0
v -256 -704 0
v -192 -704 0
v -256 -768 0
v -320 -768 0
v -320 -704 0
v -256 -704 0
v -896 -768 0
v -960 -768 0
v -960 -704 0
v -896 -704 0
v -960 -768 0
v -1024 -768 0
v -1024 -704 0
v -960 -704 0
v 0 -832 0
v -64 -832 0
v -64 -768 0
v 0 -768 0
v -64 -832 0
v -128 -832 0
v -128 -768 0
v -64 -768 0
v -128 -832 0
v -192 -832 0
v -192 -768 0
v -128 -768 0
v -192 -832 0
v -256 -832 0
v -256 -768 0
v -192 -768 0
v -256 -832 0
v -320 -832 0
v -320 -768 0
v -256 -768 0
v -320 -832 0
v -384 -832 0
v -384 -768 0
v -320 -768 0
v -384 -832 0
v -448 -832 0
v -448 -768 0
v -384 -768 0
v -768 -832 0
v -832 -832 0
v -832 -768 0
v -768 -768 0
v -832 -832 0
v -896 -832 0
v -896 -768 0
v -832 -768 0
v -896 -832 0
v -960 -832 0
v -960 -768 0
v -896 -768 0
v -960 -832 0
v -1024 -832 0
v -1024 -768 0
v -960 -768 0
v 0 -896 0
v -64 -896 0
v -64 -832 0
v 0 -832 0
v -64 -896 0
v -128 -896 0
v -128 -832 0
v -64 -832 0
v -128 -896 0
v -192 -896 0
v -192 -832 0
v -128 -832 0
v -192 -896 0
v -256 -896 0
v -256 -832 0
v -192 -832 0
v -256 -896 0
v -320 -896 0
v -320 -832 0
v -256 -832 0
v -320 -896 0
v -384 -896 0
v -384 -832 0
v -320 -832 0
v -384 -896 0
v -448 -896 0
v -448 -832 0
v -384 -832 0
v -448 -896 0
v -512 -896 0
v -512 -832 0
v -448 -832 0
v -512 -896 0
v -576 -896 0
v -576 -832 0
v -512 -832 0
v -576 -896 0
v -640 -896 0
v -640 -832 0
v -576 -832 0
v -640 -896 0
v -704 -896 0
v -704 -832 0
v -640 -832 0
v -704 -896 0
v -768 -896 0
v -768 -832 0
v -704 -832 0
v -768 -896 0
v -832 -896 0
v -832 -832 0
v -768 -832 0
v -832 -896 0
v -896 -896 0
v -896 -832 0
v -832 -832 0
v -896 -896 0
v -960 -896 0
v -960 -832 0
v -896 -832 0
v -960 -896 0
v -1024 -896 0
v -1024 -832 0
v -960 -832 0
v 0 -960 0
v -64 -960 0
v -64 -896 0
v 0 -896 0
v -64 -960 0
v -128 -960 0
v -128 -896 0
v -64 -896 0
v -128 -960 0
v -192 -960 0
v -192 -896 0
v -128 -896 0
v -192 -960 0
v -256 -960 0
v -256 -896 0
v -192 -896 0
v -256 -960 0
v -320 -960 0
v -320 -896 0
v -256 -896 0
v -320 -960 0
v -384 -960 0
v -384 -896 0
v -320 -896 0
v -384 -960 0
v -448 -960 0
v -448 -896 0
v -384 -896 0
v -448 -960 0
v -512 -960 0
v -512 -896 0
v -448 -896 0
v -512 -960 0
v -576 -960 0
v -576 -896 0
v -512 -896 0
v -576 -960 0
v -640 -960 0
v -640 -896 0
v -576 -896 0
v -640 -960 0
v -704 -960 0
v -704 -896 0
v -640 -896 0
v -704 -960 0
v -768 -960 0
v -768 -896 0
v -704 -896 0
v -768 -960 0
v -832 -960 0
v -832 -896 0
v -768 -896 0
v -832 -960 0
v -896 -960 0
v -896 -896 0
v -832 -896 0
v -896 -960 0
v -960 -960 0
v -960 -896 0
v -896 -896 0
v -960 -960 0
v -1024 -960 0
v -1024 -896 0
v -960 -896 0
v 0 -1024 0
v -64 -1024 0
v -64 -960 0
v 0 -960 0
v -64 -1024 0
v -128 -1024 0
v -128 -960 0
v -64 -960 0
v -128 -1024 0
v -192 -1024 0
v -192 -960 0
v -128 -960 0
v -192 -1024 0
v -256 -1024 0
v -256 -960 0
v -192 -960 0
v -256 -1024 0
v -320 -1024 0
v -320 -960 0
v -256 -960 0
v -320 -1024 0
v -384 -1024 0
v -384 -960 0
v -320 -960 0
v -384 -1024 0
v -448 -1024 0
v -448 -960 0
v -384 -960 0
v -448 -1024 0
v -512 -1024 0
v -512 -960 0
v -448 -960 0
v -512 -1024 0
v -576 -1024 0
v -576 -960 0
v -512 -960 0
v -576 -1024 0
v -640 -1024 0
v -640 -960 0
v -576 -960 0
v -640 -1024 0
v -704 -1024 0
v -704 -960 0
v -640 -960 0
v -704 -1024 0
v -768 -1024 0
v -768 -960 0
v -704 -960 0
v -768 -1024 0
v -832 -1024 0
v -832 -960 0
v -768 -960 0
v -832 -1024 0
v -896 -1024 0
v -896 -960 0
v -832 -960 0
v -896 -1024 0
v -960 -1024 0
v -960 -960 0
v -896 -960 0
v -960 -1024 0
v -1024 -1024 0
v -1024 -960 0
v -960 -960 0

# Texture cooridinates (Count = 44)
vt 0.5925926 0.3333333
vt 0.6666667 0.3333333
vt 0.6666667 0.4444444
vt 0.5925926 0.4444444
vt 0.7407407 0.3333333
vt 0.7407407 0.4444444
vt 0.4444444 0.8888889
vt 0.3703704 0.8888889
vt 0.3703704 0.7777778
vt 0.4444444 0.7777778
vt 0.1481481 0.3333333
vt 0.2222222 0.3333333
vt 0.2222222 0.4444444
vt 0.1481481 0.4444444
vt 0.2962963 0.3333333
vt 0.2962963 0.4444444
vt 0.5925926 0.2222222
vt 0.6666667 0.2222222
vt 0.7407407 0.2222222
vt 0.1481481 0.2222222
vt 0.2222222 0.2222222
vt 0.2962963 0.2222222
vt 0.3703704 0.2222222
vt 0.3703704 0.3333333
vt 0.4444444 0.2222222
vt 0.4444444 0.3333333
vt 0.5185185 0.2222222
vt 0.5185185 0.3333333
vt 0.4444444 0.4444444
vt 0.3703704 0.4444444
vt 0.5185185 0.4444444
vt 0.4444444 0.1111111
vt 0.5185185 0.1111111
vt 0.5925926 0.1111111
vt 0.6666667 0.1111111
vt 0.7407407 0.1111111
vt 0.1481481 0.1111111
vt 0.2222222 0.1111111
vt 0.2962963 0.1111111
vt 0.3703704 0.1111111
vt 0.8148148 0.7777778
vt 0.8888889 0.7777778
vt 0.8888889 0.8888889
vt 0.8148148 0.8888889

# Normal
vn 0 0 -1

# Mesh description
g map_mesh_0219

# Faces
f 1/1/1 2/2/1 3/3/1 4/4/1
f 5/2/1 6/5/1 7/6/1 8/3/1
f 9/7/1 10/8/1 11/9/1 12/10/1
f 13/7/1 14/8/1 15/9/1 16/10/1
f 17/7/1 18/8/1 19/9/1 20/10/1
f 21/11/1 22/12/1 23/13/1 24/14/1
f 25/12/1 26/15/1 27/16/1 28/13/1
f 29/17/1 30/18/1 31/2/1 32/1/1
f 33/18/1 34/19/1 35/5/1 36/2/1
f 37/20/1 38/21/1 39/12/1 40/11/1
f 41/18/1 42/19/1 43/5/1 44/2/1
f 45/20/1 46/21/1 47/12/1 48/11/1
f 49/2/1 50/5/1 51/6/1 52/3/1
f 53/11/1 54/12/1 55/13/1 56/14/1
f 57/11/1 58/12/1 59/13/1 60/14/1
f 61/12/1 62/15/1 63/16/1 64/13/1
f 65/20/1 66/21/1 67/12/1 68/11/1
f 69/21/1 70/22/1 71/15/1 72/12/1
f 73/22/1 74/23/1 75/24/1 76/15/1
f 77/23/1 78/25/1 79/26/1 80/24/1
f 81/25/1 82/27/1 83/28/1 84/26/1
f 85/27/1 86/17/1 87/1/1 88/28/1
f 89/17/1 90/18/1 91/2/1 92/1/1
f 93/18/1 94/19/1 95/5/1 96/2/1
f 97/20/1 98/21/1 99/12/1 100/11/1
f 101/24/1 102/26/1 103/29/1 104/30/1
f 105/26/1 106/28/1 107/31/1 108/29/1
f 109/28/1 110/1/1 111/4/1 112/31/1
f 113/1/1 114/2/1 115/3/1 116/4/1
f 117/2/1 118/5/1 119/6/1 120/3/1
f 121/20/1 122/21/1 123/12/1 124/11/1
f 125/21/1 126/22/1 127/15/1 128/12/1
f 129/22/1 130/23/1 131/24/1 132/15/1
f 133/23/1 134/25/1 135/26/1 136/24/1
f 137/32/1 138/33/1 139/27/1 140/25/1
f 141/33/1 142/34/1 143/17/1 144/27/1
f 145/34/1 146/35/1 147/18/1 148/17/1
f 149/35/1 150/36/1 151/19/1 152/18/1
f 153/20/1 154/21/1 155/12/1 156/11/1
f 157/21/1 158/22/1 159/15/1 160/12/1
f 161/22/1 162/23/1 163/24/1 164/15/1
f 165/23/1 166/25/1 167/26/1 168/24/1
f 169/25/1 170/27/1 171/28/1 172/26/1
f 173/27/1 174/17/1 175/1/1 176/28/1
f 177/17/1 178/18/1 179/2/1 180/1/1
f 181/18/1 182/19/1 183/5/1 184/2/1
f 185/20/1 186/21/1 187/12/1 188/11/1
f 189/37/1 190/38/1 191/21/1 192/20/1
f 193/38/1 194/39/1 195/22/1 196/21/1
f 197/39/1 198/40/1 199/23/1 200/22/1
f 201/41/1 202/42/1 203/43/1 204/44/1
f 205/41/1 206/42/1 207/43/1 208/44/1
f 209/41/1 210/42/1 211/43/1 212/44/1
f 213/41/1 214/42/1 215/43/1 216/44/1
f 217/37/1 218/38/1 219/21/1 220/20/1
f 221/38/1 222/39/1 223/22/1 224/21/1
f 225/37/1 226/38/1 227/21/1 228/20/1
f 229/38/1 230/39/1 231/22/1 232/21/1
f 233/39/1 234/40/1 235/23/1 236/22/1
f 237/41/1 238/42/1 239/43/1 240/44/1
f 241/32/1 242/33/1 243/27/1 244/25/1
f 245/33/1 246/34/1 247/17/1 248/27/1
f 249/34/1 250/35/1 251/18/1 252/17/1
f 253/35/1 254/36/1 255/19/1 256/18/1
f 257/41/1 258/42/1 259/43/1 260/44/1
f 261/41/1 262/42/1 263/43/1 264/44/1

