# Tiled2Unity generated file. Do not modify by hand.
# Wavefront file for 'map_mesh_0227.obj'

# Vertices (Count = 48)
v -960 -512 0
v -1024 -512 0
v -1024 -448 0
v -960 -448 0
v -960 -576 0
v -1024 -576 0
v -1024 -512 0
v -960 -512 0
v -960 -640 0
v -1024 -640 0
v -1024 -576 0
v -960 -576 0
v -896 -704 0
v -960 -704 0
v -960 -640 0
v -896 -640 0
v -896 -768 0
v -960 -768 0
v -960 -704 0
v -896 -704 0
v -832 -832 0
v -896 -832 0
v -896 -768 0
v -832 -768 0
v -896 -832 0
v -960 -832 0
v -960 -768 0
v -896 -768 0
v -768 -896 0
v -832 -896 0
v -832 -832 0
v -768 -832 0
v -832 -896 0
v -896 -896 0
v -896 -832 0
v -832 -832 0
v -768 -960 0
v -832 -960 0
v -832 -896 0
v -768 -896 0
v -640 -1024 0
v -704 -1024 0
v -704 -960 0
v -640 -960 0
v -704 -1024 0
v -768 -1024 0
v -768 -960 0
v -704 -960 0

# Texture cooridinates (Count = 4)
vt 0.5 0
vt 1 0
vt 1 1
vt 0.5 1

# Normal
vn 0 0 -1

# Mesh description
g map_mesh_0227

# Faces
f 1/1/1 2/2/1 3/3/1 4/4/1
f 5/1/1 6/2/1 7/3/1 8/4/1
f 9/1/1 10/2/1 11/3/1 12/4/1
f 13/1/1 14/2/1 15/3/1 16/4/1
f 17/1/1 18/2/1 19/3/1 20/4/1
f 21/1/1 22/2/1 23/3/1 24/4/1
f 25/1/1 26/2/1 27/3/1 28/4/1
f 29/1/1 30/2/1 31/3/1 32/4/1
f 33/1/1 34/2/1 35/3/1 36/4/1
f 37/1/1 38/2/1 39/3/1 40/4/1
f 41/1/1 42/2/1 43/3/1 44/4/1
f 45/1/1 46/2/1 47/3/1 48/4/1

