# Tiled2Unity generated file. Do not modify by hand.
# Wavefront file for 'map_mesh_0137.obj'

# Vertices (Count = 16)
v -768 -1024 0
v -832 -1024 0
v -832 -960 0
v -768 -960 0
v -832 -1024 0
v -896 -1024 0
v -896 -960 0
v -832 -960 0
v -896 -1024 0
v -960 -1024 0
v -960 -960 0
v -896 -960 0
v -960 -1024 0
v -1024 -1024 0
v -1024 -960 0
v -960 -960 0

# Texture cooridinates (Count = 4)
vt 0.5 0
vt 1 0
vt 1 1
vt 0.5 1

# Normal
vn 0 0 -1

# Mesh description
g map_mesh_0137

# Faces
f 1/1/1 2/2/1 3/3/1 4/4/1
f 5/1/1 6/2/1 7/3/1 8/4/1
f 9/1/1 10/2/1 11/3/1 12/4/1
f 13/1/1 14/2/1 15/3/1 16/4/1

