# Tiled2Unity generated file. Do not modify by hand.
# Wavefront file for 'map_mesh_0336.obj'

# Vertices (Count = 308)
v -448 -192 0
v -512 -192 0
v -512 -128 0
v -448 -128 0
v -512 -192 0
v -576 -192 0
v -576 -128 0
v -512 -128 0
v -576 -192 0
v -640 -192 0
v -640 -128 0
v -576 -128 0
v -640 -192 0
v -704 -192 0
v -704 -128 0
v -640 -128 0
v -704 -192 0
v -768 -192 0
v -768 -128 0
v -704 -128 0
v -960 -192 0
v -1024 -192 0
v -1024 -128 0
v -960 -128 0
v -320 -704 0
v -384 -704 0
v -384 -640 0
v -320 -640 0
v -384 -704 0
v -448 -704 0
v -448 -640 0
v -384 -640 0
v -448 -704 0
v -512 -704 0
v -512 -640 0
v -448 -640 0
v -512 -704 0
v -576 -704 0
v -576 -640 0
v -512 -640 0
v -576 -704 0
v -640 -704 0
v -640 -640 0
v -576 -640 0
v -640 -704 0
v -704 -704 0
v -704 -640 0
v -640 -640 0
v -704 -704 0
v -768 -704 0
v -768 -640 0
v -704 -640 0
v -768 -704 0
v -832 -704 0
v -832 -640 0
v -768 -640 0
v -832 -704 0
v -896 -704 0
v -896 -640 0
v -832 -640 0
v -896 -704 0
v -960 -704 0
v -960 -640 0
v -896 -640 0
v -960 -704 0
v -1024 -704 0
v -1024 -640 0
v -960 -640 0
v -256 -768 0
v -320 -768 0
v -320 -704 0
v -256 -704 0
v -320 -768 0
v -384 -768 0
v -384 -704 0
v -320 -704 0
v -384 -768 0
v -448 -768 0
v -448 -704 0
v -384 -704 0
v -448 -768 0
v -512 -768 0
v -512 -704 0
v -448 -704 0
v -512 -768 0
v -576 -768 0
v -576 -704 0
v -512 -704 0
v -576 -768 0
v -640 -768 0
v -640 -704 0
v -576 -704 0
v -640 -768 0
v -704 -768 0
v -704 -704 0
v -640 -704 0
v -704 -768 0
v -768 -768 0
v -768 -704 0
v -704 -704 0
v -768 -768 0
v -832 -768 0
v -832 -704 0
v -768 -704 0
v -832 -768 0
v -896 -768 0
v -896 -704 0
v -832 -704 0
v -896 -768 0
v -960 -768 0
v -960 -704 0
v -896 -704 0
v -960 -768 0
v -1024 -768 0
v -1024 -704 0
v -960 -704 0
v -256 -832 0
v -320 -832 0
v -320 -768 0
v -256 -768 0
v -320 -832 0
v -384 -832 0
v -384 -768 0
v -320 -768 0
v -384 -832 0
v -448 -832 0
v -448 -768 0
v -384 -768 0
v -448 -832 0
v -512 -832 0
v -512 -768 0
v -448 -768 0
v -512 -832 0
v -576 -832 0
v -576 -768 0
v -512 -768 0
v -576 -832 0
v -640 -832 0
v -640 -768 0
v -576 -768 0
v -640 -832 0
v -704 -832 0
v -704 -768 0
v -640 -768 0
v -704 -832 0
v -768 -832 0
v -768 -768 0
v -704 -768 0
v -768 -832 0
v -832 -832 0
v -832 -768 0
v -768 -768 0
v -832 -832 0
v -896 -832 0
v -896 -768 0
v -832 -768 0
v -896 -832 0
v -960 -832 0
v -960 -768 0
v -896 -768 0
v -960 -832 0
v -1024 -832 0
v -1024 -768 0
v -960 -768 0
v -256 -896 0
v -320 -896 0
v -320 -832 0
v -256 -832 0
v -320 -896 0
v -384 -896 0
v -384 -832 0
v -320 -832 0
v -384 -896 0
v -448 -896 0
v -448 -832 0
v -384 -832 0
v -448 -896 0
v -512 -896 0
v -512 -832 0
v -448 -832 0
v -512 -896 0
v -576 -896 0
v -576 -832 0
v -512 -832 0
v -576 -896 0
v -640 -896 0
v -640 -832 0
v -576 -832 0
v -640 -896 0
v -704 -896 0
v -704 -832 0
v -640 -832 0
v -704 -896 0
v -768 -896 0
v -768 -832 0
v -704 -832 0
v -768 -896 0
v -832 -896 0
v -832 -832 0
v -768 -832 0
v -832 -896 0
v -896 -896 0
v -896 -832 0
v -832 -832 0
v -896 -896 0
v -960 -896 0
v -960 -832 0
v -896 -832 0
v -960 -896 0
v -1024 -896 0
v -1024 -832 0
v -960 -832 0
v -256 -960 0
v -320 -960 0
v -320 -896 0
v -256 -896 0
v -320 -960 0
v -384 -960 0
v -384 -896 0
v -320 -896 0
v -384 -960 0
v -448 -960 0
v -448 -896 0
v -384 -896 0
v -448 -960 0
v -512 -960 0
v -512 -896 0
v -448 -896 0
v -512 -960 0
v -576 -960 0
v -576 -896 0
v -512 -896 0
v -576 -960 0
v -640 -960 0
v -640 -896 0
v -576 -896 0
v -640 -960 0
v -704 -960 0
v -704 -896 0
v -640 -896 0
v -704 -960 0
v -768 -960 0
v -768 -896 0
v -704 -896 0
v -768 -960 0
v -832 -960 0
v -832 -896 0
v -768 -896 0
v -832 -960 0
v -896 -960 0
v -896 -896 0
v -832 -896 0
v -896 -960 0
v -960 -960 0
v -960 -896 0
v -896 -896 0
v -960 -960 0
v -1024 -960 0
v -1024 -896 0
v -960 -896 0
v -256 -1024 0
v -320 -1024 0
v -320 -960 0
v -256 -960 0
v -320 -1024 0
v -384 -1024 0
v -384 -960 0
v -320 -960 0
v -384 -1024 0
v -448 -1024 0
v -448 -960 0
v -384 -960 0
v -448 -1024 0
v -512 -1024 0
v -512 -960 0
v -448 -960 0
v -512 -1024 0
v -576 -1024 0
v -576 -960 0
v -512 -960 0
v -576 -1024 0
v -640 -1024 0
v -640 -960 0
v -576 -960 0
v -640 -1024 0
v -704 -1024 0
v -704 -960 0
v -640 -960 0
v -704 -1024 0
v -768 -1024 0
v -768 -960 0
v -704 -960 0
v -768 -1024 0
v -832 -1024 0
v -832 -960 0
v -768 -960 0
v -832 -1024 0
v -896 -1024 0
v -896 -960 0
v -832 -960 0
v -896 -1024 0
v -960 -1024 0
v -960 -960 0
v -896 -960 0
v -960 -1024 0
v -1024 -1024 0
v -1024 -960 0
v -960 -960 0

# Texture cooridinates (Count = 19)
vt 0 0
vt 0.2 0
vt 0.2 0.3333333
vt 0 0.3333333
vt 0.4 0
vt 0.4 0.3333333
vt 0.6 0
vt 0.6 0.3333333
vt 0.2 0.6666666
vt 0 0.6666666
vt 0.4 0.6666666
vt 0.6 0.6666666
vt 0.6 1
vt 0.4 1
vt 0.2 1
vt 0.8 0.3333333
vt 1 0.3333333
vt 1 0.6666666
vt 0.8 0.6666666

# Normal
vn 0 0 -1

# Mesh description
g map_mesh_0336

# Faces
f 1/1/1 2/2/1 3/3/1 4/4/1
f 5/2/1 6/5/1 7/6/1 8/3/1
f 9/2/1 10/5/1 11/6/1 12/3/1
f 13/2/1 14/5/1 15/6/1 16/3/1
f 17/5/1 18/7/1 19/8/1 20/6/1
f 21/1/1 22/2/1 23/3/1 24/4/1
f 25/4/1 26/3/1 27/9/1 28/10/1
f 29/4/1 30/3/1 31/9/1 32/10/1
f 33/4/1 34/3/1 35/9/1 36/10/1
f 37/4/1 38/3/1 39/9/1 40/10/1
f 41/4/1 42/3/1 43/9/1 44/10/1
f 45/4/1 46/3/1 47/9/1 48/10/1
f 49/4/1 50/3/1 51/9/1 52/10/1
f 53/4/1 54/3/1 55/9/1 56/10/1
f 57/4/1 58/3/1 59/9/1 60/10/1
f 61/4/1 62/3/1 63/9/1 64/10/1
f 65/4/1 66/3/1 67/9/1 68/10/1
f 69/11/1 70/12/1 71/13/1 72/14/1
f 73/9/1 74/11/1 75/14/1 76/15/1
f 77/9/1 78/11/1 79/14/1 80/15/1
f 81/9/1 82/11/1 83/14/1 84/15/1
f 85/9/1 86/11/1 87/14/1 88/15/1
f 89/9/1 90/11/1 91/14/1 92/15/1
f 93/9/1 94/11/1 95/14/1 96/15/1
f 97/9/1 98/11/1 99/14/1 100/15/1
f 101/9/1 102/11/1 103/14/1 104/15/1
f 105/9/1 106/11/1 107/14/1 108/15/1
f 109/9/1 110/11/1 111/14/1 112/15/1
f 113/9/1 114/11/1 115/14/1 116/15/1
f 117/15/1 118/9/1 119/11/1 120/14/1
f 121/16/1 122/17/1 123/18/1 124/19/1
f 125/16/1 126/17/1 127/18/1 128/19/1
f 129/16/1 130/17/1 131/18/1 132/19/1
f 133/16/1 134/17/1 135/18/1 136/19/1
f 137/16/1 138/17/1 139/18/1 140/19/1
f 141/16/1 142/17/1 143/18/1 144/19/1
f 145/16/1 146/17/1 147/18/1 148/19/1
f 149/16/1 150/17/1 151/18/1 152/19/1
f 153/16/1 154/17/1 155/18/1 156/19/1
f 157/16/1 158/17/1 159/18/1 160/19/1
f 161/16/1 162/17/1 163/18/1 164/19/1
f 165/15/1 166/9/1 167/11/1 168/14/1
f 169/16/1 170/17/1 171/18/1 172/19/1
f 173/16/1 174/17/1 175/18/1 176/19/1
f 177/16/1 178/17/1 179/18/1 180/19/1
f 181/16/1 182/17/1 183/18/1 184/19/1
f 185/16/1 186/17/1 187/18/1 188/19/1
f 189/16/1 190/17/1 191/18/1 192/19/1
f 193/16/1 194/17/1 195/18/1 196/19/1
f 197/16/1 198/17/1 199/18/1 200/19/1
f 201/16/1 202/17/1 203/18/1 204/19/1
f 205/16/1 206/17/1 207/18/1 208/19/1
f 209/16/1 210/17/1 211/18/1 212/19/1
f 213/15/1 214/9/1 215/11/1 216/14/1
f 217/16/1 218/17/1 219/18/1 220/19/1
f 221/16/1 222/17/1 223/18/1 224/19/1
f 225/16/1 226/17/1 227/18/1 228/19/1
f 229/16/1 230/17/1 231/18/1 232/19/1
f 233/16/1 234/17/1 235/18/1 236/19/1
f 237/16/1 238/17/1 239/18/1 240/19/1
f 241/16/1 242/17/1 243/18/1 244/19/1
f 245/16/1 246/17/1 247/18/1 248/19/1
f 249/16/1 250/17/1 251/18/1 252/19/1
f 253/16/1 254/17/1 255/18/1 256/19/1
f 257/16/1 258/17/1 259/18/1 260/19/1
f 261/15/1 262/9/1 263/11/1 264/14/1
f 265/16/1 266/17/1 267/18/1 268/19/1
f 269/16/1 270/17/1 271/18/1 272/19/1
f 273/16/1 274/17/1 275/18/1 276/19/1
f 277/16/1 278/17/1 279/18/1 280/19/1
f 281/16/1 282/17/1 283/18/1 284/19/1
f 285/16/1 286/17/1 287/18/1 288/19/1
f 289/16/1 290/17/1 291/18/1 292/19/1
f 293/16/1 294/17/1 295/18/1 296/19/1
f 297/16/1 298/17/1 299/18/1 300/19/1
f 301/16/1 302/17/1 303/18/1 304/19/1
f 305/16/1 306/17/1 307/18/1 308/19/1

