# Tiled2Unity generated file. Do not modify by hand.
# Wavefront file for 'map_mesh_0450.obj'

# Vertices (Count = 36)
v -576 -448 0
v -640 -448 0
v -640 -384 0
v -576 -384 0
v -576 -512 0
v -640 -512 0
v -640 -448 0
v -576 -448 0
v -576 -576 0
v -640 -576 0
v -640 -512 0
v -576 -512 0
v -640 -576 0
v -704 -576 0
v -704 -512 0
v -640 -512 0
v -704 -576 0
v -768 -576 0
v -768 -512 0
v -704 -512 0
v -768 -576 0
v -832 -576 0
v -832 -512 0
v -768 -512 0
v -832 -576 0
v -896 -576 0
v -896 -512 0
v -832 -512 0
v -896 -576 0
v -960 -576 0
v -960 -512 0
v -896 -512 0
v -960 -576 0
v -1024 -576 0
v -1024 -512 0
v -960 -512 0

# Texture cooridinates (Count = 12)
vt 0 0.5
vt 0.25 0.5
vt 0.25 0.75
vt 0 0.75
vt 0 0.25
vt 0.25 0.25
vt 0 0
vt 0.25 0
vt 0.5 0
vt 0.5 0.25
vt 0.75 0
vt 0.75 0.25

# Normal
vn 0 0 -1

# Mesh description
g map_mesh_0450

# Faces
f 1/1/1 2/2/1 3/3/1 4/4/1
f 5/5/1 6/6/1 7/2/1 8/1/1
f 9/7/1 10/8/1 11/6/1 12/5/1
f 13/8/1 14/9/1 15/10/1 16/6/1
f 17/9/1 18/11/1 19/12/1 20/10/1
f 21/9/1 22/11/1 23/12/1 24/10/1
f 25/9/1 26/11/1 27/12/1 28/10/1
f 29/8/1 30/9/1 31/10/1 32/6/1
f 33/9/1 34/11/1 35/12/1 36/10/1

