# Tiled2Unity generated file. Do not modify by hand.
# Wavefront file for 'map_mesh_0184.obj'

# Vertices (Count = 296)
v 0 -64 0
v -64 -64 0
v -64 0 0
v 0 0 0
v -64 -64 0
v -128 -64 0
v -128 0 0
v -64 0 0
v -128 -64 0
v -192 -64 0
v -192 0 0
v -128 0 0
v -192 -64 0
v -256 -64 0
v -256 0 0
v -192 0 0
v -256 -64 0
v -320 -64 0
v -320 0 0
v -256 0 0
v -320 -64 0
v -384 -64 0
v -384 0 0
v -320 0 0
v -384 -64 0
v -448 -64 0
v -448 0 0
v -384 0 0
v -448 -64 0
v -512 -64 0
v -512 0 0
v -448 0 0
v -512 -64 0
v -576 -64 0
v -576 0 0
v -512 0 0
v -576 -64 0
v -640 -64 0
v -640 0 0
v -576 0 0
v -640 -64 0
v -704 -64 0
v -704 0 0
v -640 0 0
v -704 -64 0
v -768 -64 0
v -768 0 0
v -704 0 0
v -768 -64 0
v -832 -64 0
v -832 0 0
v -768 0 0
v -832 -64 0
v -896 -64 0
v -896 0 0
v -832 0 0
v -896 -64 0
v -960 -64 0
v -960 0 0
v -896 0 0
v -960 -64 0
v -1024 -64 0
v -1024 0 0
v -960 0 0
v 0 -128 0
v -64 -128 0
v -64 -64 0
v 0 -64 0
v -64 -128 0
v -128 -128 0
v -128 -64 0
v -64 -64 0
v -128 -128 0
v -192 -128 0
v -192 -64 0
v -128 -64 0
v -192 -128 0
v -256 -128 0
v -256 -64 0
v -192 -64 0
v -256 -128 0
v -320 -128 0
v -320 -64 0
v -256 -64 0
v -320 -128 0
v -384 -128 0
v -384 -64 0
v -320 -64 0
v -384 -128 0
v -448 -128 0
v -448 -64 0
v -384 -64 0
v -448 -128 0
v -512 -128 0
v -512 -64 0
v -448 -64 0
v -512 -128 0
v -576 -128 0
v -576 -64 0
v -512 -64 0
v -576 -128 0
v -640 -128 0
v -640 -64 0
v -576 -64 0
v -640 -128 0
v -704 -128 0
v -704 -64 0
v -640 -64 0
v -704 -128 0
v -768 -128 0
v -768 -64 0
v -704 -64 0
v -768 -128 0
v -832 -128 0
v -832 -64 0
v -768 -64 0
v -832 -128 0
v -896 -128 0
v -896 -64 0
v -832 -64 0
v -896 -128 0
v -960 -128 0
v -960 -64 0
v -896 -64 0
v -960 -128 0
v -1024 -128 0
v -1024 -64 0
v -960 -64 0
v 0 -192 0
v -64 -192 0
v -64 -128 0
v 0 -128 0
v -64 -192 0
v -128 -192 0
v -128 -128 0
v -64 -128 0
v -128 -192 0
v -192 -192 0
v -192 -128 0
v -128 -128 0
v -192 -192 0
v -256 -192 0
v -256 -128 0
v -192 -128 0
v -256 -192 0
v -320 -192 0
v -320 -128 0
v -256 -128 0
v -320 -192 0
v -384 -192 0
v -384 -128 0
v -320 -128 0
v -384 -192 0
v -448 -192 0
v -448 -128 0
v -384 -128 0
v -448 -192 0
v -512 -192 0
v -512 -128 0
v -448 -128 0
v -512 -192 0
v -576 -192 0
v -576 -128 0
v -512 -128 0
v -576 -192 0
v -640 -192 0
v -640 -128 0
v -576 -128 0
v -640 -192 0
v -704 -192 0
v -704 -128 0
v -640 -128 0
v -704 -192 0
v -768 -192 0
v -768 -128 0
v -704 -128 0
v -768 -192 0
v -832 -192 0
v -832 -128 0
v -768 -128 0
v -832 -192 0
v -896 -192 0
v -896 -128 0
v -832 -128 0
v -896 -192 0
v -960 -192 0
v -960 -128 0
v -896 -128 0
v -960 -192 0
v -1024 -192 0
v -1024 -128 0
v -960 -128 0
v 0 -256 0
v -64 -256 0
v -64 -192 0
v 0 -192 0
v -64 -256 0
v -128 -256 0
v -128 -192 0
v -64 -192 0
v -128 -256 0
v -192 -256 0
v -192 -192 0
v -128 -192 0
v -192 -256 0
v -256 -256 0
v -256 -192 0
v -192 -192 0
v -256 -256 0
v -320 -256 0
v -320 -192 0
v -256 -192 0
v -320 -256 0
v -384 -256 0
v -384 -192 0
v -320 -192 0
v -384 -256 0
v -448 -256 0
v -448 -192 0
v -384 -192 0
v -448 -256 0
v -512 -256 0
v -512 -192 0
v -448 -192 0
v -512 -256 0
v -576 -256 0
v -576 -192 0
v -512 -192 0
v -576 -256 0
v -640 -256 0
v -640 -192 0
v -576 -192 0
v -640 -256 0
v -704 -256 0
v -704 -192 0
v -640 -192 0
v -704 -256 0
v -768 -256 0
v -768 -192 0
v -704 -192 0
v -768 -256 0
v -832 -256 0
v -832 -192 0
v -768 -192 0
v -832 -256 0
v -896 -256 0
v -896 -192 0
v -832 -192 0
v -896 -256 0
v -960 -256 0
v -960 -192 0
v -896 -192 0
v -960 -256 0
v -1024 -256 0
v -1024 -192 0
v -960 -192 0
v 0 -320 0
v -64 -320 0
v -64 -256 0
v 0 -256 0
v -64 -320 0
v -128 -320 0
v -128 -256 0
v -64 -256 0
v -128 -320 0
v -192 -320 0
v -192 -256 0
v -128 -256 0
v -192 -320 0
v -256 -320 0
v -256 -256 0
v -192 -256 0
v -256 -320 0
v -320 -320 0
v -320 -256 0
v -256 -256 0
v -320 -320 0
v -384 -320 0
v -384 -256 0
v -320 -256 0
v -384 -320 0
v -448 -320 0
v -448 -256 0
v -384 -256 0
v -448 -320 0
v -512 -320 0
v -512 -256 0
v -448 -256 0
v -512 -320 0
v -576 -320 0
v -576 -256 0
v -512 -256 0
v -576 -320 0
v -640 -320 0
v -640 -256 0
v -576 -256 0

# Texture cooridinates (Count = 38)
vt 0.8148148 0.7777778
vt 0.8888889 0.7777778
vt 0.8888889 0.8888889
vt 0.8148148 0.8888889
vt 0.7407407 0.2222222
vt 0.6666667 0.2222222
vt 0.6666667 0.1111111
vt 0.7407407 0.1111111
vt 0.5185185 0.2222222
vt 0.4444444 0.2222222
vt 0.4444444 0.1111111
vt 0.5185185 0.1111111
vt 0.2222222 0.2222222
vt 0.1481481 0.2222222
vt 0.1481481 0.1111111
vt 0.2222222 0.1111111
vt 0.4444444 0.3333333
vt 0.3703704 0.3333333
vt 0.3703704 0.2222222
vt 0.2962963 0.3333333
vt 0.2962963 0.2222222
vt 0.2222222 0.3333333
vt 0.1481481 0.3333333
vt 0.7407407 0.3333333
vt 0.6666667 0.3333333
vt 0.4444444 0.4444444
vt 0.3703704 0.4444444
vt 0.2962963 0.4444444
vt 0.2222222 0.4444444
vt 0.1481481 0.4444444
vt 0.7407407 0.4444444
vt 0.6666667 0.4444444
vt 0.7407407 0.5555556
vt 0.8148148 0.5555556
vt 0.8148148 0.6666666
vt 0.7407407 0.6666666
vt 0.8888889 0.5555556
vt 0.8888889 0.6666666

# Normal
vn 0 0 -1

# Mesh description
g map_mesh_0184

# Faces
f 1/1/1 2/2/1 3/3/1 4/4/1
f 5/1/1 6/2/1 7/3/1 8/4/1
f 9/1/1 10/2/1 11/3/1 12/4/1
f 13/1/1 14/2/1 15/3/1 16/4/1
f 17/1/1 18/2/1 19/3/1 20/4/1
f 21/1/1 22/2/1 23/3/1 24/4/1
f 25/1/1 26/2/1 27/3/1 28/4/1
f 29/1/1 30/2/1 31/3/1 32/4/1
f 33/1/1 34/2/1 35/3/1 36/4/1
f 37/1/1 38/2/1 39/3/1 40/4/1
f 41/1/1 42/2/1 43/3/1 44/4/1
f 45/1/1 46/2/1 47/3/1 48/4/1
f 49/1/1 50/2/1 51/3/1 52/4/1
f 53/1/1 54/2/1 55/3/1 56/4/1
f 57/1/1 58/2/1 59/3/1 60/4/1
f 61/1/1 62/2/1 63/3/1 64/4/1
f 65/5/1 66/6/1 67/7/1 68/8/1
f 69/1/1 70/2/1 71/3/1 72/4/1
f 73/1/1 74/2/1 75/3/1 76/4/1
f 77/1/1 78/2/1 79/3/1 80/4/1
f 81/1/1 82/2/1 83/3/1 84/4/1
f 85/1/1 86/2/1 87/3/1 88/4/1
f 89/1/1 90/2/1 91/3/1 92/4/1
f 93/1/1 94/2/1 95/3/1 96/4/1
f 97/1/1 98/2/1 99/3/1 100/4/1
f 101/5/1 102/6/1 103/7/1 104/8/1
f 105/9/1 106/10/1 107/11/1 108/12/1
f 109/9/1 110/10/1 111/11/1 112/12/1
f 113/9/1 114/10/1 115/11/1 116/12/1
f 117/13/1 118/14/1 119/15/1 120/16/1
f 121/5/1 122/6/1 123/7/1 124/8/1
f 125/9/1 126/10/1 127/11/1 128/12/1
f 129/9/1 130/10/1 131/11/1 132/12/1
f 133/9/1 134/10/1 135/11/1 136/12/1
f 137/9/1 138/10/1 139/11/1 140/12/1
f 141/13/1 142/14/1 143/15/1 144/16/1
f 145/5/1 146/6/1 147/7/1 148/8/1
f 149/5/1 150/6/1 151/7/1 152/8/1
f 153/9/1 154/10/1 155/11/1 156/12/1
f 157/9/1 158/10/1 159/11/1 160/12/1
f 161/9/1 162/10/1 163/11/1 164/12/1
f 165/13/1 166/14/1 167/15/1 168/16/1
f 169/17/1 170/18/1 171/19/1 172/10/1
f 173/18/1 174/20/1 175/21/1 176/19/1
f 177/20/1 178/22/1 179/13/1 180/21/1
f 181/22/1 182/23/1 183/14/1 184/13/1
f 185/24/1 186/25/1 187/6/1 188/5/1
f 189/17/1 190/18/1 191/19/1 192/10/1
f 193/17/1 194/18/1 195/19/1 196/10/1
f 197/18/1 198/20/1 199/21/1 200/19/1
f 201/20/1 202/22/1 203/13/1 204/21/1
f 205/22/1 206/23/1 207/14/1 208/13/1
f 209/24/1 210/25/1 211/6/1 212/5/1
f 213/24/1 214/25/1 215/6/1 216/5/1
f 217/17/1 218/18/1 219/19/1 220/10/1
f 221/18/1 222/20/1 223/21/1 224/19/1
f 225/20/1 226/22/1 227/13/1 228/21/1
f 229/22/1 230/23/1 231/14/1 232/13/1
f 233/26/1 234/27/1 235/18/1 236/17/1
f 237/27/1 238/28/1 239/20/1 240/18/1
f 241/28/1 242/29/1 243/22/1 244/20/1
f 245/29/1 246/30/1 247/23/1 248/22/1
f 249/31/1 250/32/1 251/25/1 252/24/1
f 253/26/1 254/27/1 255/18/1 256/17/1
f 257/26/1 258/27/1 259/18/1 260/17/1
f 261/27/1 262/28/1 263/20/1 264/18/1
f 265/28/1 266/29/1 267/22/1 268/20/1
f 269/33/1 270/34/1 271/35/1 272/36/1
f 273/34/1 274/37/1 275/38/1 276/35/1
f 277/31/1 278/32/1 279/25/1 280/24/1
f 281/26/1 282/27/1 283/18/1 284/17/1
f 285/27/1 286/28/1 287/20/1 288/18/1
f 289/28/1 290/29/1 291/22/1 292/20/1
f 293/29/1 294/30/1 295/23/1 296/22/1

