# Tiled2Unity generated file. Do not modify by hand.
# Wavefront file for 'map_mesh_0241.obj'

# Vertices (Count = 288)
v -512 -192 0
v -576 -192 0
v -576 -128 0
v -512 -128 0
v -576 -192 0
v -640 -192 0
v -640 -128 0
v -576 -128 0
v -640 -192 0
v -704 -192 0
v -704 -128 0
v -640 -128 0
v -704 -192 0
v -768 -192 0
v -768 -128 0
v -704 -128 0
v -768 -192 0
v -832 -192 0
v -832 -128 0
v -768 -128 0
v -832 -192 0
v -896 -192 0
v -896 -128 0
v -832 -128 0
v -896 -192 0
v -960 -192 0
v -960 -128 0
v -896 -128 0
v -960 -192 0
v -1024 -192 0
v -1024 -128 0
v -960 -128 0
v -512 -256 0
v -576 -256 0
v -576 -192 0
v -512 -192 0
v -576 -256 0
v -640 -256 0
v -640 -192 0
v -576 -192 0
v -640 -256 0
v -704 -256 0
v -704 -192 0
v -640 -192 0
v -704 -256 0
v -768 -256 0
v -768 -192 0
v -704 -192 0
v -768 -256 0
v -832 -256 0
v -832 -192 0
v -768 -192 0
v -832 -256 0
v -896 -256 0
v -896 -192 0
v -832 -192 0
v -896 -256 0
v -960 -256 0
v -960 -192 0
v -896 -192 0
v -960 -256 0
v -1024 -256 0
v -1024 -192 0
v -960 -192 0
v -512 -320 0
v -576 -320 0
v -576 -256 0
v -512 -256 0
v -576 -320 0
v -640 -320 0
v -640 -256 0
v -576 -256 0
v -640 -320 0
v -704 -320 0
v -704 -256 0
v -640 -256 0
v -704 -320 0
v -768 -320 0
v -768 -256 0
v -704 -256 0
v -768 -320 0
v -832 -320 0
v -832 -256 0
v -768 -256 0
v -832 -320 0
v -896 -320 0
v -896 -256 0
v -832 -256 0
v -896 -320 0
v -960 -320 0
v -960 -256 0
v -896 -256 0
v -960 -320 0
v -1024 -320 0
v -1024 -256 0
v -960 -256 0
v -512 -384 0
v -576 -384 0
v -576 -320 0
v -512 -320 0
v -576 -384 0
v -640 -384 0
v -640 -320 0
v -576 -320 0
v -640 -384 0
v -704 -384 0
v -704 -320 0
v -640 -320 0
v -704 -384 0
v -768 -384 0
v -768 -320 0
v -704 -320 0
v -768 -384 0
v -832 -384 0
v -832 -320 0
v -768 -320 0
v -832 -384 0
v -896 -384 0
v -896 -320 0
v -832 -320 0
v -896 -384 0
v -960 -384 0
v -960 -320 0
v -896 -320 0
v -960 -384 0
v -1024 -384 0
v -1024 -320 0
v -960 -320 0
v -512 -448 0
v -576 -448 0
v -576 -384 0
v -512 -384 0
v -576 -448 0
v -640 -448 0
v -640 -384 0
v -576 -384 0
v -640 -448 0
v -704 -448 0
v -704 -384 0
v -640 -384 0
v -704 -448 0
v -768 -448 0
v -768 -384 0
v -704 -384 0
v -768 -448 0
v -832 -448 0
v -832 -384 0
v -768 -384 0
v -832 -448 0
v -896 -448 0
v -896 -384 0
v -832 -384 0
v -896 -448 0
v -960 -448 0
v -960 -384 0
v -896 -384 0
v -960 -448 0
v -1024 -448 0
v -1024 -384 0
v -960 -384 0
v -512 -512 0
v -576 -512 0
v -576 -448 0
v -512 -448 0
v -576 -512 0
v -640 -512 0
v -640 -448 0
v -576 -448 0
v -640 -512 0
v -704 -512 0
v -704 -448 0
v -640 -448 0
v -704 -512 0
v -768 -512 0
v -768 -448 0
v -704 -448 0
v -768 -512 0
v -832 -512 0
v -832 -448 0
v -768 -448 0
v -832 -512 0
v -896 -512 0
v -896 -448 0
v -832 -448 0
v -896 -512 0
v -960 -512 0
v -960 -448 0
v -896 -448 0
v -960 -512 0
v -1024 -512 0
v -1024 -448 0
v -960 -448 0
v -512 -576 0
v -576 -576 0
v -576 -512 0
v -512 -512 0
v -576 -576 0
v -640 -576 0
v -640 -512 0
v -576 -512 0
v -640 -576 0
v -704 -576 0
v -704 -512 0
v -640 -512 0
v -704 -576 0
v -768 -576 0
v -768 -512 0
v -704 -512 0
v -768 -576 0
v -832 -576 0
v -832 -512 0
v -768 -512 0
v -832 -576 0
v -896 -576 0
v -896 -512 0
v -832 -512 0
v -896 -576 0
v -960 -576 0
v -960 -512 0
v -896 -512 0
v -960 -576 0
v -1024 -576 0
v -1024 -512 0
v -960 -512 0
v -512 -640 0
v -576 -640 0
v -576 -576 0
v -512 -576 0
v -576 -640 0
v -640 -640 0
v -640 -576 0
v -576 -576 0
v -640 -640 0
v -704 -640 0
v -704 -576 0
v -640 -576 0
v -704 -640 0
v -768 -640 0
v -768 -576 0
v -704 -576 0
v -768 -640 0
v -832 -640 0
v -832 -576 0
v -768 -576 0
v -832 -640 0
v -896 -640 0
v -896 -576 0
v -832 -576 0
v -896 -640 0
v -960 -640 0
v -960 -576 0
v -896 -576 0
v -960 -640 0
v -1024 -640 0
v -1024 -576 0
v -960 -576 0
v -512 -704 0
v -576 -704 0
v -576 -640 0
v -512 -640 0
v -576 -704 0
v -640 -704 0
v -640 -640 0
v -576 -640 0
v -640 -704 0
v -704 -704 0
v -704 -640 0
v -640 -640 0
v -704 -704 0
v -768 -704 0
v -768 -640 0
v -704 -640 0
v -768 -704 0
v -832 -704 0
v -832 -640 0
v -768 -640 0
v -832 -704 0
v -896 -704 0
v -896 -640 0
v -832 -640 0
v -896 -704 0
v -960 -704 0
v -960 -640 0
v -896 -640 0
v -960 -704 0
v -1024 -704 0
v -1024 -640 0
v -960 -640 0

# Texture cooridinates (Count = 14)
vt 0.4 0.6666666
vt 0.6 0.6666666
vt 0.6 1
vt 0.4 1
vt 0.2 0.6666666
vt 0.2 1
vt 1 0.6666666
vt 1 1
vt 0.8 1
vt 0.8 0.6666666
vt 0.8 0.3333333
vt 1 0.3333333
vt 0 1
vt 0 0.6666666

# Normal
vn 0 0 -1

# Mesh description
g map_mesh_0241

# Faces
f 1/1/1 2/2/1 3/3/1 4/4/1
f 5/5/1 6/1/1 7/4/1 8/6/1
f 9/5/1 10/1/1 11/4/1 12/6/1
f 13/5/1 14/1/1 15/4/1 16/6/1
f 17/5/1 18/1/1 19/4/1 20/6/1
f 21/5/1 22/1/1 23/4/1 24/6/1
f 25/5/1 26/1/1 27/4/1 28/6/1
f 29/5/1 30/1/1 31/4/1 32/6/1
f 33/7/1 34/8/1 35/9/1 36/10/1
f 37/11/1 38/12/1 39/7/1 40/10/1
f 41/11/1 42/12/1 43/7/1 44/10/1
f 45/11/1 46/12/1 47/7/1 48/10/1
f 49/11/1 50/12/1 51/7/1 52/10/1
f 53/11/1 54/12/1 55/7/1 56/10/1
f 57/11/1 58/12/1 59/7/1 60/10/1
f 61/11/1 62/12/1 63/7/1 64/10/1
f 65/7/1 66/8/1 67/9/1 68/10/1
f 69/11/1 70/12/1 71/7/1 72/10/1
f 73/11/1 74/12/1 75/7/1 76/10/1
f 77/11/1 78/12/1 79/7/1 80/10/1
f 81/11/1 82/12/1 83/7/1 84/10/1
f 85/11/1 86/12/1 87/7/1 88/10/1
f 89/11/1 90/12/1 91/7/1 92/10/1
f 93/11/1 94/12/1 95/7/1 96/10/1
f 97/7/1 98/8/1 99/9/1 100/10/1
f 101/11/1 102/12/1 103/7/1 104/10/1
f 105/11/1 106/12/1 107/7/1 108/10/1
f 109/11/1 110/12/1 111/7/1 112/10/1
f 113/11/1 114/12/1 115/7/1 116/10/1
f 117/11/1 118/12/1 119/7/1 120/10/1
f 121/11/1 122/12/1 123/7/1 124/10/1
f 125/11/1 126/12/1 127/7/1 128/10/1
f 129/7/1 130/8/1 131/9/1 132/10/1
f 133/11/1 134/12/1 135/7/1 136/10/1
f 137/11/1 138/12/1 139/7/1 140/10/1
f 141/11/1 142/12/1 143/7/1 144/10/1
f 145/11/1 146/12/1 147/7/1 148/10/1
f 149/11/1 150/12/1 151/7/1 152/10/1
f 153/11/1 154/12/1 155/7/1 156/10/1
f 157/11/1 158/12/1 159/7/1 160/10/1
f 161/6/1 162/5/1 163/1/1 164/4/1
f 165/11/1 166/12/1 167/7/1 168/10/1
f 169/11/1 170/12/1 171/7/1 172/10/1
f 173/11/1 174/12/1 175/7/1 176/10/1
f 177/11/1 178/12/1 179/7/1 180/10/1
f 181/11/1 182/12/1 183/7/1 184/10/1
f 185/11/1 186/12/1 187/7/1 188/10/1
f 189/11/1 190/12/1 191/7/1 192/10/1
f 193/6/1 194/5/1 195/1/1 196/4/1
f 197/11/1 198/12/1 199/7/1 200/10/1
f 201/11/1 202/12/1 203/7/1 204/10/1
f 205/11/1 206/12/1 207/7/1 208/10/1
f 209/11/1 210/12/1 211/7/1 212/10/1
f 213/11/1 214/12/1 215/7/1 216/10/1
f 217/11/1 218/12/1 219/7/1 220/10/1
f 221/11/1 222/12/1 223/7/1 224/10/1
f 225/6/1 226/5/1 227/1/1 228/4/1
f 229/11/1 230/12/1 231/7/1 232/10/1
f 233/11/1 234/12/1 235/7/1 236/10/1
f 237/11/1 238/12/1 239/7/1 240/10/1
f 241/11/1 242/12/1 243/7/1 244/10/1
f 245/11/1 246/12/1 247/7/1 248/10/1
f 249/11/1 250/12/1 251/7/1 252/10/1
f 253/11/1 254/12/1 255/7/1 256/10/1
f 257/2/1 258/10/1 259/9/1 260/3/1
f 261/10/1 262/7/1 263/8/1 264/9/1
f 265/6/1 266/13/1 267/14/1 268/5/1
f 269/10/1 270/7/1 271/8/1 272/9/1
f 273/10/1 274/7/1 275/8/1 276/9/1
f 277/6/1 278/13/1 279/14/1 280/5/1
f 281/10/1 282/7/1 283/8/1 284/9/1
f 285/10/1 286/7/1 287/8/1 288/9/1

