# Tiled2Unity generated file. Do not modify by hand.
# Wavefront file for 'map_mesh_0186.obj'

# Vertices (Count = 80)
v 0 -64 0
v -64 -64 0
v -64 0 0
v 0 0 0
v -64 -64 0
v -128 -64 0
v -128 0 0
v -64 0 0
v -128 -64 0
v -192 -64 0
v -192 0 0
v -128 0 0
v -192 -64 0
v -256 -64 0
v -256 0 0
v -192 0 0
v -256 -64 0
v -320 -64 0
v -320 0 0
v -256 0 0
v -320 -64 0
v -384 -64 0
v -384 0 0
v -320 0 0
v -384 -64 0
v -448 -64 0
v -448 0 0
v -384 0 0
v -448 -64 0
v -512 -64 0
v -512 0 0
v -448 0 0
v -512 -64 0
v -576 -64 0
v -576 0 0
v -512 0 0
v -576 -64 0
v -640 -64 0
v -640 0 0
v -576 0 0
v -640 -64 0
v -704 -64 0
v -704 0 0
v -640 0 0
v -704 -64 0
v -768 -64 0
v -768 0 0
v -704 0 0
v -768 -64 0
v -832 -64 0
v -832 0 0
v -768 0 0
v -832 -64 0
v -896 -64 0
v -896 0 0
v -832 0 0
v -896 -64 0
v -960 -64 0
v -960 0 0
v -896 0 0
v -960 -64 0
v -1024 -64 0
v -1024 0 0
v -960 0 0
v 0 -128 0
v -64 -128 0
v -64 -64 0
v 0 -64 0
v -64 -128 0
v -128 -128 0
v -128 -64 0
v -64 -64 0
v -128 -128 0
v -192 -128 0
v -192 -64 0
v -128 -64 0
v -192 -128 0
v -256 -128 0
v -256 -64 0
v -192 -64 0

# Texture cooridinates (Count = 25)
vt 0.4444444 0.3333333
vt 0.3703704 0.3333333
vt 0.3703704 0.2222222
vt 0.4444444 0.2222222
vt 0.2962963 0.3333333
vt 0.2962963 0.2222222
vt 0.2222222 0.3333333
vt 0.2222222 0.2222222
vt 0.1481481 0.3333333
vt 0.1481481 0.2222222
vt 0.4444444 0.4444444
vt 0.3703704 0.4444444
vt 0.2962963 0.4444444
vt 0.2222222 0.4444444
vt 0.1481481 0.4444444
vt 0.7407407 0.4444444
vt 0.6666667 0.4444444
vt 0.6666667 0.3333333
vt 0.7407407 0.3333333
vt 0.7407407 0.5555556
vt 0.8148148 0.5555556
vt 0.8148148 0.6666666
vt 0.7407407 0.6666666
vt 0.8888889 0.5555556
vt 0.8888889 0.6666666

# Normal
vn 0 0 -1

# Mesh description
g map_mesh_0186

# Faces
f 1/1/1 2/2/1 3/3/1 4/4/1
f 5/2/1 6/5/1 7/6/1 8/3/1
f 9/5/1 10/7/1 11/8/1 12/6/1
f 13/7/1 14/9/1 15/10/1 16/8/1
f 17/11/1 18/12/1 19/2/1 20/1/1
f 21/12/1 22/13/1 23/5/1 24/2/1
f 25/13/1 26/14/1 27/7/1 28/5/1
f 29/14/1 30/15/1 31/9/1 32/7/1
f 33/16/1 34/17/1 35/18/1 36/19/1
f 37/16/1 38/17/1 39/18/1 40/19/1
f 41/11/1 42/12/1 43/2/1 44/1/1
f 45/12/1 46/13/1 47/5/1 48/2/1
f 49/20/1 50/21/1 51/22/1 52/23/1
f 53/21/1 54/24/1 55/25/1 56/22/1
f 57/16/1 58/17/1 59/18/1 60/19/1
f 61/11/1 62/12/1 63/2/1 64/1/1
f 65/21/1 66/24/1 67/25/1 68/22/1
f 69/12/1 70/13/1 71/5/1 72/2/1
f 73/13/1 74/14/1 75/7/1 76/5/1
f 77/14/1 78/15/1 79/9/1 80/7/1

