# Tiled2Unity generated file. Do not modify by hand.
# Wavefront file for 'map_mesh_0319.obj'

# Vertices (Count = 548)
v -192 -64 0
v -256 -64 0
v -256 0 0
v -192 0 0
v -256 -64 0
v -320 -64 0
v -320 0 0
v -256 0 0
v -320 -64 0
v -384 -64 0
v -384 0 0
v -320 0 0
v -704 -64 0
v -768 -64 0
v -768 0 0
v -704 0 0
v 0 -128 0
v -64 -128 0
v -64 -64 0
v 0 -64 0
v -64 -128 0
v -128 -128 0
v -128 -64 0
v -64 -64 0
v -128 -128 0
v -192 -128 0
v -192 -64 0
v -128 -64 0
v -192 -128 0
v -256 -128 0
v -256 -64 0
v -192 -64 0
v -256 -128 0
v -320 -128 0
v -320 -64 0
v -256 -64 0
v -320 -128 0
v -384 -128 0
v -384 -64 0
v -320 -64 0
v -384 -128 0
v -448 -128 0
v -448 -64 0
v -384 -64 0
v -448 -128 0
v -512 -128 0
v -512 -64 0
v -448 -64 0
v -512 -128 0
v -576 -128 0
v -576 -64 0
v -512 -64 0
v -576 -128 0
v -640 -128 0
v -640 -64 0
v -576 -64 0
v -640 -128 0
v -704 -128 0
v -704 -64 0
v -640 -64 0
v -704 -128 0
v -768 -128 0
v -768 -64 0
v -704 -64 0
v -768 -128 0
v -832 -128 0
v -832 -64 0
v -768 -64 0
v -832 -128 0
v -896 -128 0
v -896 -64 0
v -832 -64 0
v -896 -128 0
v -960 -128 0
v -960 -64 0
v -896 -64 0
v -960 -128 0
v -1024 -128 0
v -1024 -64 0
v -960 -64 0
v 0 -192 0
v -64 -192 0
v -64 -128 0
v 0 -128 0
v -64 -192 0
v -128 -192 0
v -128 -128 0
v -64 -128 0
v -128 -192 0
v -192 -192 0
v -192 -128 0
v -128 -128 0
v -192 -192 0
v -256 -192 0
v -256 -128 0
v -192 -128 0
v -256 -192 0
v -320 -192 0
v -320 -128 0
v -256 -128 0
v -320 -192 0
v -384 -192 0
v -384 -128 0
v -320 -128 0
v -384 -192 0
v -448 -192 0
v -448 -128 0
v -384 -128 0
v -448 -192 0
v -512 -192 0
v -512 -128 0
v -448 -128 0
v -512 -192 0
v -576 -192 0
v -576 -128 0
v -512 -128 0
v -576 -192 0
v -640 -192 0
v -640 -128 0
v -576 -128 0
v -640 -192 0
v -704 -192 0
v -704 -128 0
v -640 -128 0
v -704 -192 0
v -768 -192 0
v -768 -128 0
v -704 -128 0
v -768 -192 0
v -832 -192 0
v -832 -128 0
v -768 -128 0
v -832 -192 0
v -896 -192 0
v -896 -128 0
v -832 -128 0
v -896 -192 0
v -960 -192 0
v -960 -128 0
v -896 -128 0
v -960 -192 0
v -1024 -192 0
v -1024 -128 0
v -960 -128 0
v 0 -256 0
v -64 -256 0
v -64 -192 0
v 0 -192 0
v -64 -256 0
v -128 -256 0
v -128 -192 0
v -64 -192 0
v -128 -256 0
v -192 -256 0
v -192 -192 0
v -128 -192 0
v -192 -256 0
v -256 -256 0
v -256 -192 0
v -192 -192 0
v -256 -256 0
v -320 -256 0
v -320 -192 0
v -256 -192 0
v -320 -256 0
v -384 -256 0
v -384 -192 0
v -320 -192 0
v -384 -256 0
v -448 -256 0
v -448 -192 0
v -384 -192 0
v -448 -256 0
v -512 -256 0
v -512 -192 0
v -448 -192 0
v -512 -256 0
v -576 -256 0
v -576 -192 0
v -512 -192 0
v -576 -256 0
v -640 -256 0
v -640 -192 0
v -576 -192 0
v -640 -256 0
v -704 -256 0
v -704 -192 0
v -640 -192 0
v -704 -256 0
v -768 -256 0
v -768 -192 0
v -704 -192 0
v -768 -256 0
v -832 -256 0
v -832 -192 0
v -768 -192 0
v -832 -256 0
v -896 -256 0
v -896 -192 0
v -832 -192 0
v -896 -256 0
v -960 -256 0
v -960 -192 0
v -896 -192 0
v -960 -256 0
v -1024 -256 0
v -1024 -192 0
v -960 -192 0
v 0 -320 0
v -64 -320 0
v -64 -256 0
v 0 -256 0
v -64 -320 0
v -128 -320 0
v -128 -256 0
v -64 -256 0
v -128 -320 0
v -192 -320 0
v -192 -256 0
v -128 -256 0
v -192 -320 0
v -256 -320 0
v -256 -256 0
v -192 -256 0
v -256 -320 0
v -320 -320 0
v -320 -256 0
v -256 -256 0
v -320 -320 0
v -384 -320 0
v -384 -256 0
v -320 -256 0
v -384 -320 0
v -448 -320 0
v -448 -256 0
v -384 -256 0
v -448 -320 0
v -512 -320 0
v -512 -256 0
v -448 -256 0
v -512 -320 0
v -576 -320 0
v -576 -256 0
v -512 -256 0
v -576 -320 0
v -640 -320 0
v -640 -256 0
v -576 -256 0
v -640 -320 0
v -704 -320 0
v -704 -256 0
v -640 -256 0
v -704 -320 0
v -768 -320 0
v -768 -256 0
v -704 -256 0
v -768 -320 0
v -832 -320 0
v -832 -256 0
v -768 -256 0
v -832 -320 0
v -896 -320 0
v -896 -256 0
v -832 -256 0
v -896 -320 0
v -960 -320 0
v -960 -256 0
v -896 -256 0
v -960 -320 0
v -1024 -320 0
v -1024 -256 0
v -960 -256 0
v 0 -384 0
v -64 -384 0
v -64 -320 0
v 0 -320 0
v -64 -384 0
v -128 -384 0
v -128 -320 0
v -64 -320 0
v -128 -384 0
v -192 -384 0
v -192 -320 0
v -128 -320 0
v -192 -384 0
v -256 -384 0
v -256 -320 0
v -192 -320 0
v -256 -384 0
v -320 -384 0
v -320 -320 0
v -256 -320 0
v -320 -384 0
v -384 -384 0
v -384 -320 0
v -320 -320 0
v -384 -384 0
v -448 -384 0
v -448 -320 0
v -384 -320 0
v -448 -384 0
v -512 -384 0
v -512 -320 0
v -448 -320 0
v -512 -384 0
v -576 -384 0
v -576 -320 0
v -512 -320 0
v -576 -384 0
v -640 -384 0
v -640 -320 0
v -576 -320 0
v -640 -384 0
v -704 -384 0
v -704 -320 0
v -640 -320 0
v -704 -384 0
v -768 -384 0
v -768 -320 0
v -704 -320 0
v -768 -384 0
v -832 -384 0
v -832 -320 0
v -768 -320 0
v -832 -384 0
v -896 -384 0
v -896 -320 0
v -832 -320 0
v -896 -384 0
v -960 -384 0
v -960 -320 0
v -896 -320 0
v -960 -384 0
v -1024 -384 0
v -1024 -320 0
v -960 -320 0
v 0 -448 0
v -64 -448 0
v -64 -384 0
v 0 -384 0
v -64 -448 0
v -128 -448 0
v -128 -384 0
v -64 -384 0
v -128 -448 0
v -192 -448 0
v -192 -384 0
v -128 -384 0
v -192 -448 0
v -256 -448 0
v -256 -384 0
v -192 -384 0
v -256 -448 0
v -320 -448 0
v -320 -384 0
v -256 -384 0
v -320 -448 0
v -384 -448 0
v -384 -384 0
v -320 -384 0
v -384 -448 0
v -448 -448 0
v -448 -384 0
v -384 -384 0
v -448 -448 0
v -512 -448 0
v -512 -384 0
v -448 -384 0
v -512 -448 0
v -576 -448 0
v -576 -384 0
v -512 -384 0
v -576 -448 0
v -640 -448 0
v -640 -384 0
v -576 -384 0
v -640 -448 0
v -704 -448 0
v -704 -384 0
v -640 -384 0
v -704 -448 0
v -768 -448 0
v -768 -384 0
v -704 -384 0
v -768 -448 0
v -832 -448 0
v -832 -384 0
v -768 -384 0
v -832 -448 0
v -896 -448 0
v -896 -384 0
v -832 -384 0
v -896 -448 0
v -960 -448 0
v -960 -384 0
v -896 -384 0
v -960 -448 0
v -1024 -448 0
v -1024 -384 0
v -960 -384 0
v 0 -512 0
v -64 -512 0
v -64 -448 0
v 0 -448 0
v -64 -512 0
v -128 -512 0
v -128 -448 0
v -64 -448 0
v -128 -512 0
v -192 -512 0
v -192 -448 0
v -128 -448 0
v -192 -512 0
v -256 -512 0
v -256 -448 0
v -192 -448 0
v -256 -512 0
v -320 -512 0
v -320 -448 0
v -256 -448 0
v -320 -512 0
v -384 -512 0
v -384 -448 0
v -320 -448 0
v -384 -512 0
v -448 -512 0
v -448 -448 0
v -384 -448 0
v -448 -512 0
v -512 -512 0
v -512 -448 0
v -448 -448 0
v -512 -512 0
v -576 -512 0
v -576 -448 0
v -512 -448 0
v -576 -512 0
v -640 -512 0
v -640 -448 0
v -576 -448 0
v -640 -512 0
v -704 -512 0
v -704 -448 0
v -640 -448 0
v -704 -512 0
v -768 -512 0
v -768 -448 0
v -704 -448 0
v -768 -512 0
v -832 -512 0
v -832 -448 0
v -768 -448 0
v -832 -512 0
v -896 -512 0
v -896 -448 0
v -832 -448 0
v -896 -512 0
v -960 -512 0
v -960 -448 0
v -896 -448 0
v -960 -512 0
v -1024 -512 0
v -1024 -448 0
v -960 -448 0
v 0 -576 0
v -64 -576 0
v -64 -512 0
v 0 -512 0
v -64 -576 0
v -128 -576 0
v -128 -512 0
v -64 -512 0
v -128 -576 0
v -192 -576 0
v -192 -512 0
v -128 -512 0
v -192 -576 0
v -256 -576 0
v -256 -512 0
v -192 -512 0
v -256 -576 0
v -320 -576 0
v -320 -512 0
v -256 -512 0
v -320 -576 0
v -384 -576 0
v -384 -512 0
v -320 -512 0
v -384 -576 0
v -448 -576 0
v -448 -512 0
v -384 -512 0
v -448 -576 0
v -512 -576 0
v -512 -512 0
v -448 -512 0
v -512 -576 0
v -576 -576 0
v -576 -512 0
v -512 -512 0
v -576 -576 0
v -640 -576 0
v -640 -512 0
v -576 -512 0
v -640 -576 0
v -704 -576 0
v -704 -512 0
v -640 -512 0
v -704 -576 0
v -768 -576 0
v -768 -512 0
v -704 -512 0
v -768 -576 0
v -832 -576 0
v -832 -512 0
v -768 -512 0
v -832 -576 0
v -896 -576 0
v -896 -512 0
v -832 -512 0
v -896 -576 0
v -960 -576 0
v -960 -512 0
v -896 -512 0
v -960 -576 0
v -1024 -576 0
v -1024 -512 0
v -960 -512 0
v 0 -1024 0
v -64 -1024 0
v -64 -960 0
v 0 -960 0
v -64 -1024 0
v -128 -1024 0
v -128 -960 0
v -64 -960 0
v -128 -1024 0
v -192 -1024 0
v -192 -960 0
v -128 -960 0
v -192 -1024 0
v -256 -1024 0
v -256 -960 0
v -192 -960 0
v -256 -1024 0
v -320 -1024 0
v -320 -960 0
v -256 -960 0

# Texture cooridinates (Count = 19)
vt 0.4 0.6666666
vt 0.4 0.3333333
vt 0.6 0.3333333
vt 0.6 0.6666666
vt 0.8 0.3333333
vt 1 0.3333333
vt 1 0.6666666
vt 0.8 0.6666666
vt 0 0.3333333
vt 0.2 0.3333333
vt 0.2 0.6666666
vt 0 0.6666666
vt 1 1
vt 0.8 1
vt 0.2 1
vt 0 1
vt 0.2 0
vt 0.4 0
vt 0.6 0

# Normal
vn 0 0 -1

# Mesh description
g map_mesh_0319

# Faces
f 1/1/1 2/2/1 3/3/1 4/4/1
f 5/5/1 6/6/1 7/7/1 8/8/1
f 9/3/1 10/4/1 11/1/1 12/2/1
f 13/5/1 14/6/1 15/7/1 16/8/1
f 17/9/1 18/10/1 19/11/1 20/12/1
f 21/9/1 22/10/1 23/11/1 24/12/1
f 25/9/1 26/10/1 27/11/1 28/12/1
f 29/1/1 30/2/1 31/3/1 32/4/1
f 33/5/1 34/6/1 35/7/1 36/8/1
f 37/3/1 38/4/1 39/1/1 40/2/1
f 41/9/1 42/10/1 43/11/1 44/12/1
f 45/9/1 46/10/1 47/11/1 48/12/1
f 49/9/1 50/10/1 51/11/1 52/12/1
f 53/9/1 54/10/1 55/11/1 56/12/1
f 57/9/1 58/10/1 59/11/1 60/12/1
f 61/5/1 62/6/1 63/7/1 64/8/1
f 65/9/1 66/10/1 67/11/1 68/12/1
f 69/9/1 70/10/1 71/11/1 72/12/1
f 73/9/1 74/10/1 75/11/1 76/12/1
f 77/9/1 78/10/1 79/11/1 80/12/1
f 81/2/1 82/3/1 83/4/1 84/1/1
f 85/2/1 86/3/1 87/4/1 88/1/1
f 89/2/1 90/3/1 91/4/1 92/1/1
f 93/5/1 94/6/1 95/7/1 96/8/1
f 97/5/1 98/6/1 99/7/1 100/8/1
f 101/5/1 102/6/1 103/7/1 104/8/1
f 105/2/1 106/3/1 107/4/1 108/1/1
f 109/2/1 110/3/1 111/4/1 112/1/1
f 113/2/1 114/3/1 115/4/1 116/1/1
f 117/2/1 118/3/1 119/4/1 120/1/1
f 121/2/1 122/3/1 123/4/1 124/1/1
f 125/5/1 126/6/1 127/7/1 128/8/1
f 129/2/1 130/3/1 131/4/1 132/1/1
f 133/2/1 134/3/1 135/4/1 136/1/1
f 137/2/1 138/3/1 139/4/1 140/1/1
f 141/2/1 142/3/1 143/4/1 144/1/1
f 145/5/1 146/6/1 147/7/1 148/8/1
f 149/5/1 150/6/1 151/7/1 152/8/1
f 153/5/1 154/6/1 155/7/1 156/8/1
f 157/5/1 158/6/1 159/7/1 160/8/1
f 161/5/1 162/6/1 163/7/1 164/8/1
f 165/5/1 166/6/1 167/7/1 168/8/1
f 169/5/1 170/6/1 171/7/1 172/8/1
f 173/5/1 174/6/1 175/7/1 176/8/1
f 177/5/1 178/6/1 179/7/1 180/8/1
f 181/5/1 182/6/1 183/7/1 184/8/1
f 185/5/1 186/6/1 187/7/1 188/8/1
f 189/5/1 190/6/1 191/7/1 192/8/1
f 193/5/1 194/6/1 195/7/1 196/8/1
f 197/5/1 198/6/1 199/7/1 200/8/1
f 201/5/1 202/6/1 203/7/1 204/8/1
f 205/5/1 206/6/1 207/7/1 208/8/1
f 209/5/1 210/6/1 211/7/1 212/8/1
f 213/5/1 214/6/1 215/7/1 216/8/1
f 217/5/1 218/6/1 219/7/1 220/8/1
f 221/5/1 222/6/1 223/7/1 224/8/1
f 225/5/1 226/6/1 227/7/1 228/8/1
f 229/5/1 230/6/1 231/7/1 232/8/1
f 233/5/1 234/6/1 235/7/1 236/8/1
f 237/5/1 238/6/1 239/7/1 240/8/1
f 241/5/1 242/6/1 243/7/1 244/8/1
f 245/5/1 246/6/1 247/7/1 248/8/1
f 249/5/1 250/6/1 251/7/1 252/8/1
f 253/5/1 254/6/1 255/7/1 256/8/1
f 257/5/1 258/6/1 259/7/1 260/8/1
f 261/5/1 262/6/1 263/7/1 264/8/1
f 265/5/1 266/6/1 267/7/1 268/8/1
f 269/5/1 270/6/1 271/7/1 272/8/1
f 273/5/1 274/6/1 275/7/1 276/8/1
f 277/5/1 278/6/1 279/7/1 280/8/1
f 281/5/1 282/6/1 283/7/1 284/8/1
f 285/5/1 286/6/1 287/7/1 288/8/1
f 289/5/1 290/6/1 291/7/1 292/8/1
f 293/5/1 294/6/1 295/7/1 296/8/1
f 297/5/1 298/6/1 299/7/1 300/8/1
f 301/5/1 302/6/1 303/7/1 304/8/1
f 305/5/1 306/6/1 307/7/1 308/8/1
f 309/5/1 310/6/1 311/7/1 312/8/1
f 313/5/1 314/6/1 315/7/1 316/8/1
f 317/5/1 318/6/1 319/7/1 320/8/1
f 321/5/1 322/6/1 323/7/1 324/8/1
f 325/5/1 326/6/1 327/7/1 328/8/1
f 329/5/1 330/6/1 331/7/1 332/8/1
f 333/5/1 334/6/1 335/7/1 336/8/1
f 337/5/1 338/6/1 339/7/1 340/8/1
f 341/5/1 342/6/1 343/7/1 344/8/1
f 345/5/1 346/6/1 347/7/1 348/8/1
f 349/5/1 350/6/1 351/7/1 352/8/1
f 353/5/1 354/6/1 355/7/1 356/8/1
f 357/5/1 358/6/1 359/7/1 360/8/1
f 361/5/1 362/6/1 363/7/1 364/8/1
f 365/5/1 366/6/1 367/7/1 368/8/1
f 369/5/1 370/6/1 371/7/1 372/8/1
f 373/5/1 374/6/1 375/7/1 376/8/1
f 377/5/1 378/6/1 379/7/1 380/8/1
f 381/5/1 382/6/1 383/7/1 384/8/1
f 385/5/1 386/6/1 387/7/1 388/8/1
f 389/5/1 390/6/1 391/7/1 392/8/1
f 393/5/1 394/6/1 395/7/1 396/8/1
f 397/5/1 398/6/1 399/7/1 400/8/1
f 401/5/1 402/6/1 403/7/1 404/8/1
f 405/5/1 406/6/1 407/7/1 408/8/1
f 409/5/1 410/6/1 411/7/1 412/8/1
f 413/5/1 414/6/1 415/7/1 416/8/1
f 417/5/1 418/6/1 419/7/1 420/8/1
f 421/5/1 422/6/1 423/7/1 424/8/1
f 425/5/1 426/6/1 427/7/1 428/8/1
f 429/5/1 430/6/1 431/7/1 432/8/1
f 433/5/1 434/6/1 435/7/1 436/8/1
f 437/5/1 438/6/1 439/7/1 440/8/1
f 441/5/1 442/6/1 443/7/1 444/8/1
f 445/5/1 446/6/1 447/7/1 448/8/1
f 449/5/1 450/6/1 451/7/1 452/8/1
f 453/5/1 454/6/1 455/7/1 456/8/1
f 457/5/1 458/6/1 459/7/1 460/8/1
f 461/5/1 462/6/1 463/7/1 464/8/1
f 465/8/1 466/7/1 467/13/1 468/14/1
f 469/8/1 470/7/1 471/13/1 472/14/1
f 473/15/1 474/16/1 475/12/1 476/11/1
f 477/8/1 478/7/1 479/13/1 480/14/1
f 481/8/1 482/7/1 483/13/1 484/14/1
f 485/15/1 486/16/1 487/12/1 488/11/1
f 489/8/1 490/7/1 491/13/1 492/14/1
f 493/8/1 494/7/1 495/13/1 496/14/1
f 497/15/1 498/16/1 499/12/1 500/11/1
f 501/8/1 502/7/1 503/13/1 504/14/1
f 505/8/1 506/7/1 507/13/1 508/14/1
f 509/15/1 510/16/1 511/12/1 512/11/1
f 513/8/1 514/7/1 515/13/1 516/14/1
f 517/8/1 518/7/1 519/13/1 520/14/1
f 521/15/1 522/16/1 523/12/1 524/11/1
f 525/8/1 526/7/1 527/13/1 528/14/1
f 529/17/1 530/18/1 531/2/1 532/10/1
f 533/17/1 534/18/1 535/2/1 536/10/1
f 537/17/1 538/18/1 539/2/1 540/10/1
f 541/17/1 542/18/1 543/2/1 544/10/1
f 545/18/1 546/19/1 547/3/1 548/2/1

