# Tiled2Unity generated file. Do not modify by hand.
# Wavefront file for 'map_mesh_0207.obj'

# Vertices (Count = 536)
v 0 -64 0
v -64 -64 0
v -64 0 0
v 0 0 0
v -64 -64 0
v -128 -64 0
v -128 0 0
v -64 0 0
v -128 -64 0
v -192 -64 0
v -192 0 0
v -128 0 0
v -192 -64 0
v -256 -64 0
v -256 0 0
v -192 0 0
v -256 -64 0
v -320 -64 0
v -320 0 0
v -256 0 0
v -320 -64 0
v -384 -64 0
v -384 0 0
v -320 0 0
v 0 -128 0
v -64 -128 0
v -64 -64 0
v 0 -64 0
v -64 -128 0
v -128 -128 0
v -128 -64 0
v -64 -64 0
v -128 -128 0
v -192 -128 0
v -192 -64 0
v -128 -64 0
v -192 -128 0
v -256 -128 0
v -256 -64 0
v -192 -64 0
v -256 -128 0
v -320 -128 0
v -320 -64 0
v -256 -64 0
v -320 -128 0
v -384 -128 0
v -384 -64 0
v -320 -64 0
v 0 -192 0
v -64 -192 0
v -64 -128 0
v 0 -128 0
v -64 -192 0
v -128 -192 0
v -128 -128 0
v -64 -128 0
v -128 -192 0
v -192 -192 0
v -192 -128 0
v -128 -128 0
v -192 -192 0
v -256 -192 0
v -256 -128 0
v -192 -128 0
v -256 -192 0
v -320 -192 0
v -320 -128 0
v -256 -128 0
v -320 -192 0
v -384 -192 0
v -384 -128 0
v -320 -128 0
v 0 -256 0
v -64 -256 0
v -64 -192 0
v 0 -192 0
v -64 -256 0
v -128 -256 0
v -128 -192 0
v -64 -192 0
v -128 -256 0
v -192 -256 0
v -192 -192 0
v -128 -192 0
v -192 -256 0
v -256 -256 0
v -256 -192 0
v -192 -192 0
v -256 -256 0
v -320 -256 0
v -320 -192 0
v -256 -192 0
v -320 -256 0
v -384 -256 0
v -384 -192 0
v -320 -192 0
v -384 -256 0
v -448 -256 0
v -448 -192 0
v -384 -192 0
v -448 -256 0
v -512 -256 0
v -512 -192 0
v -448 -192 0
v 0 -320 0
v -64 -320 0
v -64 -256 0
v 0 -256 0
v -64 -320 0
v -128 -320 0
v -128 -256 0
v -64 -256 0
v -128 -320 0
v -192 -320 0
v -192 -256 0
v -128 -256 0
v -192 -320 0
v -256 -320 0
v -256 -256 0
v -192 -256 0
v -256 -320 0
v -320 -320 0
v -320 -256 0
v -256 -256 0
v -320 -320 0
v -384 -320 0
v -384 -256 0
v -320 -256 0
v -384 -320 0
v -448 -320 0
v -448 -256 0
v -384 -256 0
v -448 -320 0
v -512 -320 0
v -512 -256 0
v -448 -256 0
v -512 -320 0
v -576 -320 0
v -576 -256 0
v -512 -256 0
v -576 -320 0
v -640 -320 0
v -640 -256 0
v -576 -256 0
v -640 -320 0
v -704 -320 0
v -704 -256 0
v -640 -256 0
v -704 -320 0
v -768 -320 0
v -768 -256 0
v -704 -256 0
v -768 -320 0
v -832 -320 0
v -832 -256 0
v -768 -256 0
v -832 -320 0
v -896 -320 0
v -896 -256 0
v -832 -256 0
v -896 -320 0
v -960 -320 0
v -960 -256 0
v -896 -256 0
v -960 -320 0
v -1024 -320 0
v -1024 -256 0
v -960 -256 0
v 0 -384 0
v -64 -384 0
v -64 -320 0
v 0 -320 0
v -64 -384 0
v -128 -384 0
v -128 -320 0
v -64 -320 0
v -128 -384 0
v -192 -384 0
v -192 -320 0
v -128 -320 0
v -192 -384 0
v -256 -384 0
v -256 -320 0
v -192 -320 0
v -256 -384 0
v -320 -384 0
v -320 -320 0
v -256 -320 0
v -320 -384 0
v -384 -384 0
v -384 -320 0
v -320 -320 0
v -384 -384 0
v -448 -384 0
v -448 -320 0
v -384 -320 0
v -448 -384 0
v -512 -384 0
v -512 -320 0
v -448 -320 0
v -512 -384 0
v -576 -384 0
v -576 -320 0
v -512 -320 0
v -576 -384 0
v -640 -384 0
v -640 -320 0
v -576 -320 0
v -640 -384 0
v -704 -384 0
v -704 -320 0
v -640 -320 0
v -704 -384 0
v -768 -384 0
v -768 -320 0
v -704 -320 0
v -768 -384 0
v -832 -384 0
v -832 -320 0
v -768 -320 0
v -832 -384 0
v -896 -384 0
v -896 -320 0
v -832 -320 0
v -896 -384 0
v -960 -384 0
v -960 -320 0
v -896 -320 0
v -960 -384 0
v -1024 -384 0
v -1024 -320 0
v -960 -320 0
v 0 -448 0
v -64 -448 0
v -64 -384 0
v 0 -384 0
v -64 -448 0
v -128 -448 0
v -128 -384 0
v -64 -384 0
v -128 -448 0
v -192 -448 0
v -192 -384 0
v -128 -384 0
v -192 -448 0
v -256 -448 0
v -256 -384 0
v -192 -384 0
v -256 -448 0
v -320 -448 0
v -320 -384 0
v -256 -384 0
v -320 -448 0
v -384 -448 0
v -384 -384 0
v -320 -384 0
v -384 -448 0
v -448 -448 0
v -448 -384 0
v -384 -384 0
v -448 -448 0
v -512 -448 0
v -512 -384 0
v -448 -384 0
v -512 -448 0
v -576 -448 0
v -576 -384 0
v -512 -384 0
v -576 -448 0
v -640 -448 0
v -640 -384 0
v -576 -384 0
v -640 -448 0
v -704 -448 0
v -704 -384 0
v -640 -384 0
v -704 -448 0
v -768 -448 0
v -768 -384 0
v -704 -384 0
v -768 -448 0
v -832 -448 0
v -832 -384 0
v -768 -384 0
v -832 -448 0
v -896 -448 0
v -896 -384 0
v -832 -384 0
v -896 -448 0
v -960 -448 0
v -960 -384 0
v -896 -384 0
v -960 -448 0
v -1024 -448 0
v -1024 -384 0
v -960 -384 0
v 0 -512 0
v -64 -512 0
v -64 -448 0
v 0 -448 0
v -64 -512 0
v -128 -512 0
v -128 -448 0
v -64 -448 0
v -128 -512 0
v -192 -512 0
v -192 -448 0
v -128 -448 0
v -192 -512 0
v -256 -512 0
v -256 -448 0
v -192 -448 0
v -256 -512 0
v -320 -512 0
v -320 -448 0
v -256 -448 0
v -320 -512 0
v -384 -512 0
v -384 -448 0
v -320 -448 0
v -384 -512 0
v -448 -512 0
v -448 -448 0
v -384 -448 0
v -448 -512 0
v -512 -512 0
v -512 -448 0
v -448 -448 0
v -512 -512 0
v -576 -512 0
v -576 -448 0
v -512 -448 0
v -576 -512 0
v -640 -512 0
v -640 -448 0
v -576 -448 0
v -640 -512 0
v -704 -512 0
v -704 -448 0
v -640 -448 0
v -704 -512 0
v -768 -512 0
v -768 -448 0
v -704 -448 0
v -768 -512 0
v -832 -512 0
v -832 -448 0
v -768 -448 0
v -832 -512 0
v -896 -512 0
v -896 -448 0
v -832 -448 0
v -896 -512 0
v -960 -512 0
v -960 -448 0
v -896 -448 0
v -960 -512 0
v -1024 -512 0
v -1024 -448 0
v -960 -448 0
v 0 -576 0
v -64 -576 0
v -64 -512 0
v 0 -512 0
v -64 -576 0
v -128 -576 0
v -128 -512 0
v -64 -512 0
v -128 -576 0
v -192 -576 0
v -192 -512 0
v -128 -512 0
v -192 -576 0
v -256 -576 0
v -256 -512 0
v -192 -512 0
v -256 -576 0
v -320 -576 0
v -320 -512 0
v -256 -512 0
v -320 -576 0
v -384 -576 0
v -384 -512 0
v -320 -512 0
v -384 -576 0
v -448 -576 0
v -448 -512 0
v -384 -512 0
v -448 -576 0
v -512 -576 0
v -512 -512 0
v -448 -512 0
v -512 -576 0
v -576 -576 0
v -576 -512 0
v -512 -512 0
v -576 -576 0
v -640 -576 0
v -640 -512 0
v -576 -512 0
v -640 -576 0
v -704 -576 0
v -704 -512 0
v -640 -512 0
v -704 -576 0
v -768 -576 0
v -768 -512 0
v -704 -512 0
v -768 -576 0
v -832 -576 0
v -832 -512 0
v -768 -512 0
v -832 -576 0
v -896 -576 0
v -896 -512 0
v -832 -512 0
v -896 -576 0
v -960 -576 0
v -960 -512 0
v -896 -512 0
v -960 -576 0
v -1024 -576 0
v -1024 -512 0
v -960 -512 0
v -768 -640 0
v -832 -640 0
v -832 -576 0
v -768 -576 0
v -832 -640 0
v -896 -640 0
v -896 -576 0
v -832 -576 0
v -896 -640 0
v -960 -640 0
v -960 -576 0
v -896 -576 0
v -960 -640 0
v -1024 -640 0
v -1024 -576 0
v -960 -576 0
v -768 -704 0
v -832 -704 0
v -832 -640 0
v -768 -640 0
v -832 -704 0
v -896 -704 0
v -896 -640 0
v -832 -640 0
v -896 -704 0
v -960 -704 0
v -960 -640 0
v -896 -640 0
v -960 -704 0
v -1024 -704 0
v -1024 -640 0
v -960 -640 0
v -768 -768 0
v -832 -768 0
v -832 -704 0
v -768 -704 0
v -832 -768 0
v -896 -768 0
v -896 -704 0
v -832 -704 0
v -896 -768 0
v -960 -768 0
v -960 -704 0
v -896 -704 0
v -960 -768 0
v -1024 -768 0
v -1024 -704 0
v -960 -704 0
v -768 -832 0
v -832 -832 0
v -832 -768 0
v -768 -768 0
v -832 -832 0
v -896 -832 0
v -896 -768 0
v -832 -768 0
v -896 -832 0
v -960 -832 0
v -960 -768 0
v -896 -768 0
v -960 -832 0
v -1024 -832 0
v -1024 -768 0
v -960 -768 0
v -768 -896 0
v -832 -896 0
v -832 -832 0
v -768 -832 0
v -832 -896 0
v -896 -896 0
v -896 -832 0
v -832 -832 0
v -896 -896 0
v -960 -896 0
v -960 -832 0
v -896 -832 0
v -960 -896 0
v -1024 -896 0
v -1024 -832 0
v -960 -832 0
v -768 -960 0
v -832 -960 0
v -832 -896 0
v -768 -896 0
v -832 -960 0
v -896 -960 0
v -896 -896 0
v -832 -896 0
v -896 -960 0
v -960 -960 0
v -960 -896 0
v -896 -896 0
v -960 -960 0
v -1024 -960 0
v -1024 -896 0
v -960 -896 0
v -768 -1024 0
v -832 -1024 0
v -832 -960 0
v -768 -960 0
v -832 -1024 0
v -896 -1024 0
v -896 -960 0
v -832 -960 0
v -896 -1024 0
v -960 -1024 0
v -960 -960 0
v -896 -960 0
v -960 -1024 0
v -1024 -1024 0
v -1024 -960 0
v -960 -960 0

# Texture cooridinates (Count = 14)
vt 1 0.6666666
vt 1 1
vt 0.8 1
vt 0.8 0.6666666
vt 0.8 0.3333333
vt 1 0.3333333
vt 0.2 1
vt 0.2 0.6666666
vt 0.4 0.6666666
vt 0.4 1
vt 0.6 0.6666666
vt 0.6 1
vt 0 1
vt 0 0.6666666

# Normal
vn 0 0 -1

# Mesh description
g map_mesh_0207

# Faces
f 1/1/1 2/2/1 3/3/1 4/4/1
f 5/5/1 6/6/1 7/1/1 8/4/1
f 9/5/1 10/6/1 11/1/1 12/4/1
f 13/5/1 14/6/1 15/1/1 16/4/1
f 17/5/1 18/6/1 19/1/1 20/4/1
f 21/5/1 22/6/1 23/1/1 24/4/1
f 25/1/1 26/2/1 27/3/1 28/4/1
f 29/5/1 30/6/1 31/1/1 32/4/1
f 33/5/1 34/6/1 35/1/1 36/4/1
f 37/5/1 38/6/1 39/1/1 40/4/1
f 41/5/1 42/6/1 43/1/1 44/4/1
f 45/5/1 46/6/1 47/1/1 48/4/1
f 49/1/1 50/2/1 51/3/1 52/4/1
f 53/5/1 54/6/1 55/1/1 56/4/1
f 57/5/1 58/6/1 59/1/1 60/4/1
f 61/5/1 62/6/1 63/1/1 64/4/1
f 65/5/1 66/6/1 67/1/1 68/4/1
f 69/5/1 70/6/1 71/1/1 72/4/1
f 73/1/1 74/2/1 75/3/1 76/4/1
f 77/5/1 78/6/1 79/1/1 80/4/1
f 81/5/1 82/6/1 83/1/1 84/4/1
f 85/5/1 86/6/1 87/1/1 88/4/1
f 89/5/1 90/6/1 91/1/1 92/4/1
f 93/5/1 94/6/1 95/1/1 96/4/1
f 97/5/1 98/6/1 99/1/1 100/4/1
f 101/5/1 102/6/1 103/1/1 104/4/1
f 105/1/1 106/2/1 107/3/1 108/4/1
f 109/5/1 110/6/1 111/1/1 112/4/1
f 113/5/1 114/6/1 115/1/1 116/4/1
f 117/5/1 118/6/1 119/1/1 120/4/1
f 121/5/1 122/6/1 123/1/1 124/4/1
f 125/5/1 126/6/1 127/1/1 128/4/1
f 129/5/1 130/6/1 131/1/1 132/4/1
f 133/5/1 134/6/1 135/1/1 136/4/1
f 137/5/1 138/6/1 139/1/1 140/4/1
f 141/5/1 142/6/1 143/1/1 144/4/1
f 145/5/1 146/6/1 147/1/1 148/4/1
f 149/5/1 150/6/1 151/1/1 152/4/1
f 153/5/1 154/6/1 155/1/1 156/4/1
f 157/5/1 158/6/1 159/1/1 160/4/1
f 161/5/1 162/6/1 163/1/1 164/4/1
f 165/5/1 166/6/1 167/1/1 168/4/1
f 169/7/1 170/8/1 171/9/1 172/10/1
f 173/5/1 174/6/1 175/1/1 176/4/1
f 177/5/1 178/6/1 179/1/1 180/4/1
f 181/5/1 182/6/1 183/1/1 184/4/1
f 185/5/1 186/6/1 187/1/1 188/4/1
f 189/5/1 190/6/1 191/1/1 192/4/1
f 193/5/1 194/6/1 195/1/1 196/4/1
f 197/5/1 198/6/1 199/1/1 200/4/1
f 201/5/1 202/6/1 203/1/1 204/4/1
f 205/5/1 206/6/1 207/1/1 208/4/1
f 209/5/1 210/6/1 211/1/1 212/4/1
f 213/5/1 214/6/1 215/1/1 216/4/1
f 217/5/1 218/6/1 219/1/1 220/4/1
f 221/5/1 222/6/1 223/1/1 224/4/1
f 225/5/1 226/6/1 227/1/1 228/4/1
f 229/5/1 230/6/1 231/1/1 232/4/1
f 233/7/1 234/8/1 235/9/1 236/10/1
f 237/5/1 238/6/1 239/1/1 240/4/1
f 241/5/1 242/6/1 243/1/1 244/4/1
f 245/5/1 246/6/1 247/1/1 248/4/1
f 249/5/1 250/6/1 251/1/1 252/4/1
f 253/5/1 254/6/1 255/1/1 256/4/1
f 257/5/1 258/6/1 259/1/1 260/4/1
f 261/5/1 262/6/1 263/1/1 264/4/1
f 265/5/1 266/6/1 267/1/1 268/4/1
f 269/5/1 270/6/1 271/1/1 272/4/1
f 273/5/1 274/6/1 275/1/1 276/4/1
f 277/5/1 278/6/1 279/1/1 280/4/1
f 281/5/1 282/6/1 283/1/1 284/4/1
f 285/5/1 286/6/1 287/1/1 288/4/1
f 289/5/1 290/6/1 291/1/1 292/4/1
f 293/5/1 294/6/1 295/1/1 296/4/1
f 297/7/1 298/8/1 299/9/1 300/10/1
f 301/5/1 302/6/1 303/1/1 304/4/1
f 305/5/1 306/6/1 307/1/1 308/4/1
f 309/5/1 310/6/1 311/1/1 312/4/1
f 313/5/1 314/6/1 315/1/1 316/4/1
f 317/5/1 318/6/1 319/1/1 320/4/1
f 321/5/1 322/6/1 323/1/1 324/4/1
f 325/5/1 326/6/1 327/1/1 328/4/1
f 329/5/1 330/6/1 331/1/1 332/4/1
f 333/5/1 334/6/1 335/1/1 336/4/1
f 337/5/1 338/6/1 339/1/1 340/4/1
f 341/5/1 342/6/1 343/1/1 344/4/1
f 345/5/1 346/6/1 347/1/1 348/4/1
f 349/5/1 350/6/1 351/1/1 352/4/1
f 353/5/1 354/6/1 355/1/1 356/4/1
f 357/5/1 358/6/1 359/1/1 360/4/1
f 361/11/1 362/4/1 363/3/1 364/12/1
f 365/4/1 366/1/1 367/2/1 368/3/1
f 369/7/1 370/13/1 371/14/1 372/8/1
f 373/4/1 374/1/1 375/2/1 376/3/1
f 377/4/1 378/1/1 379/2/1 380/3/1
f 381/7/1 382/13/1 383/14/1 384/8/1
f 385/4/1 386/1/1 387/2/1 388/3/1
f 389/4/1 390/1/1 391/2/1 392/3/1
f 393/7/1 394/13/1 395/14/1 396/8/1
f 397/4/1 398/1/1 399/2/1 400/3/1
f 401/4/1 402/1/1 403/2/1 404/3/1
f 405/7/1 406/13/1 407/14/1 408/8/1
f 409/11/1 410/4/1 411/3/1 412/12/1
f 413/5/1 414/6/1 415/1/1 416/4/1
f 417/5/1 418/6/1 419/1/1 420/4/1
f 421/5/1 422/6/1 423/1/1 424/4/1
f 425/1/1 426/2/1 427/3/1 428/4/1
f 429/5/1 430/6/1 431/1/1 432/4/1
f 433/5/1 434/6/1 435/1/1 436/4/1
f 437/5/1 438/6/1 439/1/1 440/4/1
f 441/1/1 442/2/1 443/3/1 444/4/1
f 445/5/1 446/6/1 447/1/1 448/4/1
f 449/5/1 450/6/1 451/1/1 452/4/1
f 453/5/1 454/6/1 455/1/1 456/4/1
f 457/1/1 458/2/1 459/3/1 460/4/1
f 461/5/1 462/6/1 463/1/1 464/4/1
f 465/5/1 466/6/1 467/1/1 468/4/1
f 469/5/1 470/6/1 471/1/1 472/4/1
f 473/1/1 474/2/1 475/3/1 476/4/1
f 477/5/1 478/6/1 479/1/1 480/4/1
f 481/5/1 482/6/1 483/1/1 484/4/1
f 485/5/1 486/6/1 487/1/1 488/4/1
f 489/1/1 490/2/1 491/3/1 492/4/1
f 493/5/1 494/6/1 495/1/1 496/4/1
f 497/5/1 498/6/1 499/1/1 500/4/1
f 501/5/1 502/6/1 503/1/1 504/4/1
f 505/1/1 506/2/1 507/3/1 508/4/1
f 509/5/1 510/6/1 511/1/1 512/4/1
f 513/5/1 514/6/1 515/1/1 516/4/1
f 517/5/1 518/6/1 519/1/1 520/4/1
f 521/1/1 522/2/1 523/3/1 524/4/1
f 525/5/1 526/6/1 527/1/1 528/4/1
f 529/5/1 530/6/1 531/1/1 532/4/1
f 533/5/1 534/6/1 535/1/1 536/4/1

