# Tiled2Unity generated file. Do not modify by hand.
# Wavefront file for 'map_mesh_0104.obj'

# Vertices (Count = 16)
v -960 -64 0
v -1024 -64 0
v -1024 0 0
v -960 0 0
v -960 -128 0
v -1024 -128 0
v -1024 -64 0
v -960 -64 0
v -960 -960 0
v -1024 -960 0
v -1024 -896 0
v -960 -896 0
v -960 -1024 0
v -1024 -1024 0
v -1024 -960 0
v -960 -960 0

# Texture cooridinates (Count = 6)
vt 0.5 0
vt 1 0
vt 1 1
vt 0.5 1
vt 0 0
vt 0 1

# Normal
vn 0 0 -1

# Mesh description
g map_mesh_0104

# Faces
f 1/1/1 2/2/1 3/3/1 4/4/1
f 5/1/1 6/2/1 7/3/1 8/4/1
f 9/5/1 10/1/1 11/4/1 12/6/1
f 13/5/1 14/1/1 15/4/1 16/6/1

