# Tiled2Unity generated file. Do not modify by hand.
# Wavefront file for 'map_mesh_0218.obj'

# Vertices (Count = 320)
v 0 -768 0
v -64 -768 0
v -64 -704 0
v 0 -704 0
v -64 -768 0
v -128 -768 0
v -128 -704 0
v -64 -704 0
v -128 -768 0
v -192 -768 0
v -192 -704 0
v -128 -704 0
v -192 -768 0
v -256 -768 0
v -256 -704 0
v -192 -704 0
v -256 -768 0
v -320 -768 0
v -320 -704 0
v -256 -704 0
v -320 -768 0
v -384 -768 0
v -384 -704 0
v -320 -704 0
v -384 -768 0
v -448 -768 0
v -448 -704 0
v -384 -704 0
v -448 -768 0
v -512 -768 0
v -512 -704 0
v -448 -704 0
v -512 -768 0
v -576 -768 0
v -576 -704 0
v -512 -704 0
v -576 -768 0
v -640 -768 0
v -640 -704 0
v -576 -704 0
v -640 -768 0
v -704 -768 0
v -704 -704 0
v -640 -704 0
v -704 -768 0
v -768 -768 0
v -768 -704 0
v -704 -704 0
v -768 -768 0
v -832 -768 0
v -832 -704 0
v -768 -704 0
v -832 -768 0
v -896 -768 0
v -896 -704 0
v -832 -704 0
v -896 -768 0
v -960 -768 0
v -960 -704 0
v -896 -704 0
v -960 -768 0
v -1024 -768 0
v -1024 -704 0
v -960 -704 0
v 0 -832 0
v -64 -832 0
v -64 -768 0
v 0 -768 0
v -64 -832 0
v -128 -832 0
v -128 -768 0
v -64 -768 0
v -128 -832 0
v -192 -832 0
v -192 -768 0
v -128 -768 0
v -192 -832 0
v -256 -832 0
v -256 -768 0
v -192 -768 0
v -256 -832 0
v -320 -832 0
v -320 -768 0
v -256 -768 0
v -320 -832 0
v -384 -832 0
v -384 -768 0
v -320 -768 0
v -384 -832 0
v -448 -832 0
v -448 -768 0
v -384 -768 0
v -448 -832 0
v -512 -832 0
v -512 -768 0
v -448 -768 0
v -512 -832 0
v -576 -832 0
v -576 -768 0
v -512 -768 0
v -576 -832 0
v -640 -832 0
v -640 -768 0
v -576 -768 0
v -640 -832 0
v -704 -832 0
v -704 -768 0
v -640 -768 0
v -704 -832 0
v -768 -832 0
v -768 -768 0
v -704 -768 0
v -768 -832 0
v -832 -832 0
v -832 -768 0
v -768 -768 0
v -832 -832 0
v -896 -832 0
v -896 -768 0
v -832 -768 0
v -896 -832 0
v -960 -832 0
v -960 -768 0
v -896 -768 0
v -960 -832 0
v -1024 -832 0
v -1024 -768 0
v -960 -768 0
v 0 -896 0
v -64 -896 0
v -64 -832 0
v 0 -832 0
v -64 -896 0
v -128 -896 0
v -128 -832 0
v -64 -832 0
v -128 -896 0
v -192 -896 0
v -192 -832 0
v -128 -832 0
v -192 -896 0
v -256 -896 0
v -256 -832 0
v -192 -832 0
v -256 -896 0
v -320 -896 0
v -320 -832 0
v -256 -832 0
v -320 -896 0
v -384 -896 0
v -384 -832 0
v -320 -832 0
v -384 -896 0
v -448 -896 0
v -448 -832 0
v -384 -832 0
v -448 -896 0
v -512 -896 0
v -512 -832 0
v -448 -832 0
v -512 -896 0
v -576 -896 0
v -576 -832 0
v -512 -832 0
v -576 -896 0
v -640 -896 0
v -640 -832 0
v -576 -832 0
v -640 -896 0
v -704 -896 0
v -704 -832 0
v -640 -832 0
v -704 -896 0
v -768 -896 0
v -768 -832 0
v -704 -832 0
v -768 -896 0
v -832 -896 0
v -832 -832 0
v -768 -832 0
v -832 -896 0
v -896 -896 0
v -896 -832 0
v -832 -832 0
v -896 -896 0
v -960 -896 0
v -960 -832 0
v -896 -832 0
v -960 -896 0
v -1024 -896 0
v -1024 -832 0
v -960 -832 0
v 0 -960 0
v -64 -960 0
v -64 -896 0
v 0 -896 0
v -64 -960 0
v -128 -960 0
v -128 -896 0
v -64 -896 0
v -128 -960 0
v -192 -960 0
v -192 -896 0
v -128 -896 0
v -192 -960 0
v -256 -960 0
v -256 -896 0
v -192 -896 0
v -256 -960 0
v -320 -960 0
v -320 -896 0
v -256 -896 0
v -320 -960 0
v -384 -960 0
v -384 -896 0
v -320 -896 0
v -384 -960 0
v -448 -960 0
v -448 -896 0
v -384 -896 0
v -448 -960 0
v -512 -960 0
v -512 -896 0
v -448 -896 0
v -512 -960 0
v -576 -960 0
v -576 -896 0
v -512 -896 0
v -576 -960 0
v -640 -960 0
v -640 -896 0
v -576 -896 0
v -640 -960 0
v -704 -960 0
v -704 -896 0
v -640 -896 0
v -704 -960 0
v -768 -960 0
v -768 -896 0
v -704 -896 0
v -768 -960 0
v -832 -960 0
v -832 -896 0
v -768 -896 0
v -832 -960 0
v -896 -960 0
v -896 -896 0
v -832 -896 0
v -896 -960 0
v -960 -960 0
v -960 -896 0
v -896 -896 0
v -960 -960 0
v -1024 -960 0
v -1024 -896 0
v -960 -896 0
v 0 -1024 0
v -64 -1024 0
v -64 -960 0
v 0 -960 0
v -64 -1024 0
v -128 -1024 0
v -128 -960 0
v -64 -960 0
v -128 -1024 0
v -192 -1024 0
v -192 -960 0
v -128 -960 0
v -192 -1024 0
v -256 -1024 0
v -256 -960 0
v -192 -960 0
v -256 -1024 0
v -320 -1024 0
v -320 -960 0
v -256 -960 0
v -320 -1024 0
v -384 -1024 0
v -384 -960 0
v -320 -960 0
v -384 -1024 0
v -448 -1024 0
v -448 -960 0
v -384 -960 0
v -448 -1024 0
v -512 -1024 0
v -512 -960 0
v -448 -960 0
v -512 -1024 0
v -576 -1024 0
v -576 -960 0
v -512 -960 0
v -576 -1024 0
v -640 -1024 0
v -640 -960 0
v -576 -960 0
v -640 -1024 0
v -704 -1024 0
v -704 -960 0
v -640 -960 0
v -704 -1024 0
v -768 -1024 0
v -768 -960 0
v -704 -960 0
v -768 -1024 0
v -832 -1024 0
v -832 -960 0
v -768 -960 0
v -832 -1024 0
v -896 -1024 0
v -896 -960 0
v -832 -960 0
v -896 -1024 0
v -960 -1024 0
v -960 -960 0
v -896 -960 0
v -960 -1024 0
v -1024 -1024 0
v -1024 -960 0
v -960 -960 0

# Texture cooridinates (Count = 44)
vt 0.4444444 0.8888889
vt 0.3703704 0.8888889
vt 0.3703704 0.7777778
vt 0.4444444 0.7777778
vt 0.4444444 0.3333333
vt 0.5185185 0.3333333
vt 0.5185185 0.4444444
vt 0.4444444 0.4444444
vt 0.5925926 0.3333333
vt 0.5925926 0.4444444
vt 0.6666667 0.3333333
vt 0.6666667 0.4444444
vt 0.7407407 0.3333333
vt 0.7407407 0.4444444
vt 0.1481481 0.3333333
vt 0.2222222 0.3333333
vt 0.2222222 0.4444444
vt 0.1481481 0.4444444
vt 0.2962963 0.3333333
vt 0.2962963 0.4444444
vt 0.3703704 0.3333333
vt 0.3703704 0.4444444
vt 0.2962963 0.2222222
vt 0.3703704 0.2222222
vt 0.4444444 0.2222222
vt 0.5185185 0.2222222
vt 0.5925926 0.2222222
vt 0.6666667 0.2222222
vt 0.7407407 0.2222222
vt 0.1481481 0.2222222
vt 0.2222222 0.2222222
vt 0.4444444 0.1111111
vt 0.5185185 0.1111111
vt 0.5925926 0.1111111
vt 0.6666667 0.1111111
vt 0.7407407 0.1111111
vt 0.1481481 0.1111111
vt 0.2222222 0.1111111
vt 0.2962963 0.1111111
vt 0.3703704 0.1111111
vt 0.8148148 0.7777778
vt 0.8888889 0.7777778
vt 0.8888889 0.8888889
vt 0.8148148 0.8888889

# Normal
vn 0 0 -1

# Mesh description
g map_mesh_0218

# Faces
f 1/1/1 2/2/1 3/3/1 4/4/1
f 5/1/1 6/2/1 7/3/1 8/4/1
f 9/5/1 10/6/1 11/7/1 12/8/1
f 13/6/1 14/9/1 15/10/1 16/7/1
f 17/9/1 18/11/1 19/12/1 20/10/1
f 21/11/1 22/13/1 23/14/1 24/12/1
f 25/15/1 26/16/1 27/17/1 28/18/1
f 29/15/1 30/16/1 31/17/1 32/18/1
f 33/16/1 34/19/1 35/20/1 36/17/1
f 37/1/1 38/2/1 39/3/1 40/4/1
f 41/1/1 42/2/1 43/3/1 44/4/1
f 45/1/1 46/2/1 47/3/1 48/4/1
f 49/19/1 50/21/1 51/22/1 52/20/1
f 53/21/1 54/5/1 55/8/1 56/22/1
f 57/5/1 58/6/1 59/7/1 60/8/1
f 61/6/1 62/9/1 63/10/1 64/7/1
f 65/23/1 66/24/1 67/21/1 68/19/1
f 69/24/1 70/25/1 71/5/1 72/21/1
f 73/25/1 74/26/1 75/6/1 76/5/1
f 77/26/1 78/27/1 79/9/1 80/6/1
f 81/27/1 82/28/1 83/11/1 84/9/1
f 85/28/1 86/29/1 87/13/1 88/11/1
f 89/30/1 90/31/1 91/16/1 92/15/1
f 93/30/1 94/31/1 95/16/1 96/15/1
f 97/31/1 98/23/1 99/19/1 100/16/1
f 101/23/1 102/24/1 103/21/1 104/19/1
f 105/30/1 106/31/1 107/16/1 108/15/1
f 109/31/1 110/23/1 111/19/1 112/16/1
f 113/23/1 114/24/1 115/21/1 116/19/1
f 117/24/1 118/25/1 119/5/1 120/21/1
f 121/25/1 122/26/1 123/6/1 124/5/1
f 125/26/1 126/27/1 127/9/1 128/6/1
f 129/32/1 130/33/1 131/26/1 132/25/1
f 133/33/1 134/34/1 135/27/1 136/26/1
f 137/34/1 138/35/1 139/28/1 140/27/1
f 141/35/1 142/36/1 143/29/1 144/28/1
f 145/37/1 146/38/1 147/31/1 148/30/1
f 149/38/1 150/39/1 151/23/1 152/31/1
f 153/37/1 154/38/1 155/31/1 156/30/1
f 157/38/1 158/39/1 159/23/1 160/31/1
f 161/39/1 162/40/1 163/24/1 164/23/1
f 165/41/1 166/42/1 167/43/1 168/44/1
f 169/32/1 170/33/1 171/26/1 172/25/1
f 173/33/1 174/34/1 175/27/1 176/26/1
f 177/34/1 178/35/1 179/28/1 180/27/1
f 181/35/1 182/36/1 183/29/1 184/28/1
f 185/30/1 186/31/1 187/16/1 188/15/1
f 189/31/1 190/23/1 191/19/1 192/16/1
f 193/41/1 194/42/1 195/43/1 196/44/1
f 197/41/1 198/42/1 199/43/1 200/44/1
f 201/41/1 202/42/1 203/43/1 204/44/1
f 205/41/1 206/42/1 207/43/1 208/44/1
f 209/41/1 210/42/1 211/43/1 212/44/1
f 213/41/1 214/42/1 215/43/1 216/44/1
f 217/41/1 218/42/1 219/43/1 220/44/1
f 221/41/1 222/42/1 223/43/1 224/44/1
f 225/41/1 226/42/1 227/43/1 228/44/1
f 229/41/1 230/42/1 231/43/1 232/44/1
f 233/41/1 234/42/1 235/43/1 236/44/1
f 237/41/1 238/42/1 239/43/1 240/44/1
f 241/37/1 242/38/1 243/31/1 244/30/1
f 245/38/1 246/39/1 247/23/1 248/31/1
f 249/39/1 250/40/1 251/24/1 252/23/1
f 253/41/1 254/42/1 255/43/1 256/44/1
f 257/41/1 258/42/1 259/43/1 260/44/1
f 261/41/1 262/42/1 263/43/1 264/44/1
f 265/41/1 266/42/1 267/43/1 268/44/1
f 269/41/1 270/42/1 271/43/1 272/44/1
f 273/41/1 274/42/1 275/43/1 276/44/1
f 277/41/1 278/42/1 279/43/1 280/44/1
f 281/41/1 282/42/1 283/43/1 284/44/1
f 285/41/1 286/42/1 287/43/1 288/44/1
f 289/41/1 290/42/1 291/43/1 292/44/1
f 293/41/1 294/42/1 295/43/1 296/44/1
f 297/41/1 298/42/1 299/43/1 300/44/1
f 301/41/1 302/42/1 303/43/1 304/44/1
f 305/41/1 306/42/1 307/43/1 308/44/1
f 309/41/1 310/42/1 311/43/1 312/44/1
f 313/41/1 314/42/1 315/43/1 316/44/1
f 317/41/1 318/42/1 319/43/1 320/44/1

