# Tiled2Unity generated file. Do not modify by hand.
# Wavefront file for 'map_mesh_0217.obj'

# Vertices (Count = 264)
v -768 -768 0
v -832 -768 0
v -832 -704 0
v -768 -704 0
v -832 -768 0
v -896 -768 0
v -896 -704 0
v -832 -704 0
v -896 -768 0
v -960 -768 0
v -960 -704 0
v -896 -704 0
v -960 -768 0
v -1024 -768 0
v -1024 -704 0
v -960 -704 0
v -128 -832 0
v -192 -832 0
v -192 -768 0
v -128 -768 0
v -192 -832 0
v -256 -832 0
v -256 -768 0
v -192 -768 0
v -256 -832 0
v -320 -832 0
v -320 -768 0
v -256 -768 0
v -320 -832 0
v -384 -832 0
v -384 -768 0
v -320 -768 0
v -384 -832 0
v -448 -832 0
v -448 -768 0
v -384 -768 0
v -448 -832 0
v -512 -832 0
v -512 -768 0
v -448 -768 0
v -512 -832 0
v -576 -832 0
v -576 -768 0
v -512 -768 0
v -576 -832 0
v -640 -832 0
v -640 -768 0
v -576 -768 0
v -640 -832 0
v -704 -832 0
v -704 -768 0
v -640 -768 0
v -704 -832 0
v -768 -832 0
v -768 -768 0
v -704 -768 0
v -768 -832 0
v -832 -832 0
v -832 -768 0
v -768 -768 0
v -832 -832 0
v -896 -832 0
v -896 -768 0
v -832 -768 0
v -896 -832 0
v -960 -832 0
v -960 -768 0
v -896 -768 0
v -960 -832 0
v -1024 -832 0
v -1024 -768 0
v -960 -768 0
v 0 -896 0
v -64 -896 0
v -64 -832 0
v 0 -832 0
v -64 -896 0
v -128 -896 0
v -128 -832 0
v -64 -832 0
v -128 -896 0
v -192 -896 0
v -192 -832 0
v -128 -832 0
v -192 -896 0
v -256 -896 0
v -256 -832 0
v -192 -832 0
v -256 -896 0
v -320 -896 0
v -320 -832 0
v -256 -832 0
v -320 -896 0
v -384 -896 0
v -384 -832 0
v -320 -832 0
v -384 -896 0
v -448 -896 0
v -448 -832 0
v -384 -832 0
v -448 -896 0
v -512 -896 0
v -512 -832 0
v -448 -832 0
v -512 -896 0
v -576 -896 0
v -576 -832 0
v -512 -832 0
v -576 -896 0
v -640 -896 0
v -640 -832 0
v -576 -832 0
v -640 -896 0
v -704 -896 0
v -704 -832 0
v -640 -832 0
v -704 -896 0
v -768 -896 0
v -768 -832 0
v -704 -832 0
v -768 -896 0
v -832 -896 0
v -832 -832 0
v -768 -832 0
v -832 -896 0
v -896 -896 0
v -896 -832 0
v -832 -832 0
v -896 -896 0
v -960 -896 0
v -960 -832 0
v -896 -832 0
v -960 -896 0
v -1024 -896 0
v -1024 -832 0
v -960 -832 0
v 0 -960 0
v -64 -960 0
v -64 -896 0
v 0 -896 0
v -64 -960 0
v -128 -960 0
v -128 -896 0
v -64 -896 0
v -128 -960 0
v -192 -960 0
v -192 -896 0
v -128 -896 0
v -192 -960 0
v -256 -960 0
v -256 -896 0
v -192 -896 0
v -256 -960 0
v -320 -960 0
v -320 -896 0
v -256 -896 0
v -320 -960 0
v -384 -960 0
v -384 -896 0
v -320 -896 0
v -384 -960 0
v -448 -960 0
v -448 -896 0
v -384 -896 0
v -448 -960 0
v -512 -960 0
v -512 -896 0
v -448 -896 0
v -512 -960 0
v -576 -960 0
v -576 -896 0
v -512 -896 0
v -576 -960 0
v -640 -960 0
v -640 -896 0
v -576 -896 0
v -640 -960 0
v -704 -960 0
v -704 -896 0
v -640 -896 0
v -704 -960 0
v -768 -960 0
v -768 -896 0
v -704 -896 0
v -768 -960 0
v -832 -960 0
v -832 -896 0
v -768 -896 0
v -832 -960 0
v -896 -960 0
v -896 -896 0
v -832 -896 0
v -896 -960 0
v -960 -960 0
v -960 -896 0
v -896 -896 0
v -960 -960 0
v -1024 -960 0
v -1024 -896 0
v -960 -896 0
v 0 -1024 0
v -64 -1024 0
v -64 -960 0
v 0 -960 0
v -64 -1024 0
v -128 -1024 0
v -128 -960 0
v -64 -960 0
v -128 -1024 0
v -192 -1024 0
v -192 -960 0
v -128 -960 0
v -192 -1024 0
v -256 -1024 0
v -256 -960 0
v -192 -960 0
v -256 -1024 0
v -320 -1024 0
v -320 -960 0
v -256 -960 0
v -320 -1024 0
v -384 -1024 0
v -384 -960 0
v -320 -960 0
v -384 -1024 0
v -448 -1024 0
v -448 -960 0
v -384 -960 0
v -448 -1024 0
v -512 -1024 0
v -512 -960 0
v -448 -960 0
v -512 -1024 0
v -576 -1024 0
v -576 -960 0
v -512 -960 0
v -576 -1024 0
v -640 -1024 0
v -640 -960 0
v -576 -960 0
v -640 -1024 0
v -704 -1024 0
v -704 -960 0
v -640 -960 0
v -704 -1024 0
v -768 -1024 0
v -768 -960 0
v -704 -960 0
v -768 -1024 0
v -832 -1024 0
v -832 -960 0
v -768 -960 0
v -832 -1024 0
v -896 -1024 0
v -896 -960 0
v -832 -960 0
v -896 -1024 0
v -960 -1024 0
v -960 -960 0
v -896 -960 0
v -960 -1024 0
v -1024 -1024 0
v -1024 -960 0
v -960 -960 0

# Texture cooridinates (Count = 46)
vt 0.1481481 0.3333333
vt 0.2222222 0.3333333
vt 0.2222222 0.4444444
vt 0.1481481 0.4444444
vt 0.2962963 0.3333333
vt 0.2962963 0.4444444
vt 0.4444444 0.8888889
vt 0.3703704 0.8888889
vt 0.3703704 0.7777778
vt 0.4444444 0.7777778
vt 0.07407407 0.3333333
vt 0.07407407 0.4444444
vt 0.3703704 0.3333333
vt 0.4444444 0.3333333
vt 0.4444444 0.4444444
vt 0.3703704 0.4444444
vt 0.5185185 0.3333333
vt 0.5185185 0.4444444
vt 0.5925926 0.3333333
vt 0.5925926 0.4444444
vt 0.6666667 0.3333333
vt 0.6666667 0.4444444
vt 0.7407407 0.3333333
vt 0.7407407 0.4444444
vt 0.1481481 0.2222222
vt 0.2222222 0.2222222
vt 0.2962963 0.2222222
vt 0.3703704 0.2222222
vt 0.4444444 0.2222222
vt 0.5185185 0.2222222
vt 0.5925926 0.2222222
vt 0.6666667 0.2222222
vt 0.7407407 0.2222222
vt 0.1481481 0.1111111
vt 0.2222222 0.1111111
vt 0.2962963 0.1111111
vt 0.3703704 0.1111111
vt 0.8148148 0.7777778
vt 0.8888889 0.7777778
vt 0.8888889 0.8888889
vt 0.8148148 0.8888889
vt 0.4444444 0.1111111
vt 0.5185185 0.1111111
vt 0.5925926 0.1111111
vt 0.6666667 0.1111111
vt 0.7407407 0.1111111

# Normal
vn 0 0 -1

# Mesh description
g map_mesh_0217

# Faces
f 1/1/1 2/2/1 3/3/1 4/4/1
f 5/2/1 6/5/1 7/6/1 8/3/1
f 9/7/1 10/8/1 11/9/1 12/10/1
f 13/7/1 14/8/1 15/9/1 16/10/1
f 17/11/1 18/1/1 19/4/1 20/12/1
f 21/1/1 22/2/1 23/3/1 24/4/1
f 25/7/1 26/8/1 27/9/1 28/10/1
f 29/7/1 30/8/1 31/9/1 32/10/1
f 33/13/1 34/14/1 35/15/1 36/16/1
f 37/14/1 38/17/1 39/18/1 40/15/1
f 41/17/1 42/19/1 43/20/1 44/18/1
f 45/19/1 46/21/1 47/22/1 48/20/1
f 49/21/1 50/23/1 51/24/1 52/22/1
f 53/1/1 54/2/1 55/3/1 56/4/1
f 57/25/1 58/26/1 59/2/1 60/1/1
f 61/26/1 62/27/1 63/5/1 64/2/1
f 65/25/1 66/26/1 67/2/1 68/1/1
f 69/26/1 70/27/1 71/5/1 72/2/1
f 73/7/1 74/8/1 75/9/1 76/10/1
f 77/14/1 78/17/1 79/18/1 80/15/1
f 81/17/1 82/19/1 83/20/1 84/18/1
f 85/25/1 86/26/1 87/2/1 88/1/1
f 89/26/1 90/27/1 91/5/1 92/2/1
f 93/27/1 94/28/1 95/13/1 96/5/1
f 97/28/1 98/29/1 99/14/1 100/13/1
f 101/29/1 102/30/1 103/17/1 104/14/1
f 105/30/1 106/31/1 107/19/1 108/17/1
f 109/31/1 110/32/1 111/21/1 112/19/1
f 113/32/1 114/33/1 115/23/1 116/21/1
f 117/25/1 118/26/1 119/2/1 120/1/1
f 121/34/1 122/35/1 123/26/1 124/25/1
f 125/35/1 126/36/1 127/27/1 128/26/1
f 129/36/1 130/37/1 131/28/1 132/27/1
f 133/38/1 134/39/1 135/40/1 136/41/1
f 137/28/1 138/29/1 139/14/1 140/13/1
f 141/29/1 142/30/1 143/17/1 144/14/1
f 145/30/1 146/31/1 147/19/1 148/17/1
f 149/31/1 150/32/1 151/21/1 152/19/1
f 153/32/1 154/33/1 155/23/1 156/21/1
f 157/34/1 158/35/1 159/26/1 160/25/1
f 161/35/1 162/36/1 163/27/1 164/26/1
f 165/36/1 166/37/1 167/28/1 168/27/1
f 169/38/1 170/39/1 171/40/1 172/41/1
f 173/42/1 174/43/1 175/30/1 176/29/1
f 177/43/1 178/44/1 179/31/1 180/30/1
f 181/44/1 182/45/1 183/32/1 184/31/1
f 185/45/1 186/46/1 187/33/1 188/32/1
f 189/38/1 190/39/1 191/40/1 192/41/1
f 193/38/1 194/39/1 195/40/1 196/41/1
f 197/38/1 198/39/1 199/40/1 200/41/1
f 201/35/1 202/36/1 203/27/1 204/26/1
f 205/36/1 206/37/1 207/28/1 208/27/1
f 209/38/1 210/39/1 211/40/1 212/41/1
f 213/42/1 214/43/1 215/30/1 216/29/1
f 217/43/1 218/44/1 219/31/1 220/30/1
f 221/44/1 222/45/1 223/32/1 224/31/1
f 225/45/1 226/46/1 227/33/1 228/32/1
f 229/45/1 230/46/1 231/33/1 232/32/1
f 233/38/1 234/39/1 235/40/1 236/41/1
f 237/38/1 238/39/1 239/40/1 240/41/1
f 241/38/1 242/39/1 243/40/1 244/41/1
f 245/38/1 246/39/1 247/40/1 248/41/1
f 249/38/1 250/39/1 251/40/1 252/41/1
f 253/38/1 254/39/1 255/40/1 256/41/1
f 257/38/1 258/39/1 259/40/1 260/41/1
f 261/38/1 262/39/1 263/40/1 264/41/1

