# Tiled2Unity generated file. Do not modify by hand.
# Wavefront file for 'map_mesh_0228.obj'

# Vertices (Count = 28)
v 0 -64 0
v -64 -64 0
v -64 0 0
v 0 0 0
v 0 -128 0
v -64 -128 0
v -64 -64 0
v 0 -64 0
v 0 -192 0
v -64 -192 0
v -64 -128 0
v 0 -128 0
v 0 -256 0
v -64 -256 0
v -64 -192 0
v 0 -192 0
v 0 -320 0
v -64 -320 0
v -64 -256 0
v 0 -256 0
v 0 -384 0
v -64 -384 0
v -64 -320 0
v 0 -320 0
v 0 -448 0
v -64 -448 0
v -64 -384 0
v 0 -384 0

# Texture cooridinates (Count = 4)
vt 0.5 0
vt 1 0
vt 1 1
vt 0.5 1

# Normal
vn 0 0 -1

# Mesh description
g map_mesh_0228

# Faces
f 1/1/1 2/2/1 3/3/1 4/4/1
f 5/1/1 6/2/1 7/3/1 8/4/1
f 9/1/1 10/2/1 11/3/1 12/4/1
f 13/1/1 14/2/1 15/3/1 16/4/1
f 17/1/1 18/2/1 19/3/1 20/4/1
f 21/1/1 22/2/1 23/3/1 24/4/1
f 25/1/1 26/2/1 27/3/1 28/4/1

