# Tiled2Unity generated file. Do not modify by hand.
# Wavefront file for 'map_mesh_0312.obj'

# Vertices (Count = 136)
v 0 -64 0
v -64 -64 0
v -64 0 0
v 0 0 0
v -64 -64 0
v -128 -64 0
v -128 0 0
v -64 0 0
v -128 -64 0
v -192 -64 0
v -192 0 0
v -128 0 0
v -192 -64 0
v -256 -64 0
v -256 0 0
v -192 0 0
v -256 -64 0
v -320 -64 0
v -320 0 0
v -256 0 0
v -320 -64 0
v -384 -64 0
v -384 0 0
v -320 0 0
v -384 -64 0
v -448 -64 0
v -448 0 0
v -384 0 0
v -448 -64 0
v -512 -64 0
v -512 0 0
v -448 0 0
v -512 -64 0
v -576 -64 0
v -576 0 0
v -512 0 0
v -576 -64 0
v -640 -64 0
v -640 0 0
v -576 0 0
v 0 -128 0
v -64 -128 0
v -64 -64 0
v 0 -64 0
v -64 -128 0
v -128 -128 0
v -128 -64 0
v -64 -64 0
v -128 -128 0
v -192 -128 0
v -192 -64 0
v -128 -64 0
v -192 -128 0
v -256 -128 0
v -256 -64 0
v -192 -64 0
v -256 -128 0
v -320 -128 0
v -320 -64 0
v -256 -64 0
v -320 -128 0
v -384 -128 0
v -384 -64 0
v -320 -64 0
v -384 -128 0
v -448 -128 0
v -448 -64 0
v -384 -64 0
v -448 -128 0
v -512 -128 0
v -512 -64 0
v -448 -64 0
v -512 -128 0
v -576 -128 0
v -576 -64 0
v -512 -64 0
v 0 -192 0
v -64 -192 0
v -64 -128 0
v 0 -128 0
v -64 -192 0
v -128 -192 0
v -128 -128 0
v -64 -128 0
v -128 -192 0
v -192 -192 0
v -192 -128 0
v -128 -128 0
v -192 -192 0
v -256 -192 0
v -256 -128 0
v -192 -128 0
v -256 -192 0
v -320 -192 0
v -320 -128 0
v -256 -128 0
v -320 -192 0
v -384 -192 0
v -384 -128 0
v -320 -128 0
v -384 -192 0
v -448 -192 0
v -448 -128 0
v -384 -128 0
v 0 -256 0
v -64 -256 0
v -64 -192 0
v 0 -192 0
v -64 -256 0
v -128 -256 0
v -128 -192 0
v -64 -192 0
v -128 -256 0
v -192 -256 0
v -192 -192 0
v -128 -192 0
v -192 -256 0
v -256 -256 0
v -256 -192 0
v -192 -192 0
v -256 -256 0
v -320 -256 0
v -320 -192 0
v -256 -192 0
v 0 -320 0
v -64 -320 0
v -64 -256 0
v 0 -256 0
v -64 -320 0
v -128 -320 0
v -128 -256 0
v -64 -256 0
v 0 -384 0
v -64 -384 0
v -64 -320 0
v 0 -320 0

# Texture cooridinates (Count = 6)
vt 0 0
vt 0.5 0
vt 0.5 1
vt 0 1
vt 1 0
vt 1 1

# Normal
vn 0 0 -1

# Mesh description
g map_mesh_0312

# Faces
f 1/1/1 2/2/1 3/3/1 4/4/1
f 5/1/1 6/2/1 7/3/1 8/4/1
f 9/1/1 10/2/1 11/3/1 12/4/1
f 13/1/1 14/2/1 15/3/1 16/4/1
f 17/1/1 18/2/1 19/3/1 20/4/1
f 21/1/1 22/2/1 23/3/1 24/4/1
f 25/1/1 26/2/1 27/3/1 28/4/1
f 29/1/1 30/2/1 31/3/1 32/4/1
f 33/1/1 34/2/1 35/3/1 36/4/1
f 37/2/1 38/5/1 39/6/1 40/3/1
f 41/1/1 42/2/1 43/3/1 44/4/1
f 45/1/1 46/2/1 47/3/1 48/4/1
f 49/1/1 50/2/1 51/3/1 52/4/1
f 53/1/1 54/2/1 55/3/1 56/4/1
f 57/1/1 58/2/1 59/3/1 60/4/1
f 61/1/1 62/2/1 63/3/1 64/4/1
f 65/1/1 66/2/1 67/3/1 68/4/1
f 69/2/1 70/5/1 71/6/1 72/3/1
f 73/2/1 74/5/1 75/6/1 76/3/1
f 77/1/1 78/2/1 79/3/1 80/4/1
f 81/1/1 82/2/1 83/3/1 84/4/1
f 85/1/1 86/2/1 87/3/1 88/4/1
f 89/1/1 90/2/1 91/3/1 92/4/1
f 93/1/1 94/2/1 95/3/1 96/4/1
f 97/2/1 98/5/1 99/6/1 100/3/1
f 101/2/1 102/5/1 103/6/1 104/3/1
f 105/1/1 106/2/1 107/3/1 108/4/1
f 109/1/1 110/2/1 111/3/1 112/4/1
f 113/2/1 114/5/1 115/6/1 116/3/1
f 117/2/1 118/5/1 119/6/1 120/3/1
f 121/2/1 122/5/1 123/6/1 124/3/1
f 125/1/1 126/2/1 127/3/1 128/4/1
f 129/2/1 130/5/1 131/6/1 132/3/1
f 133/2/1 134/5/1 135/6/1 136/3/1

