# Tiled2Unity generated file. Do not modify by hand.
# Wavefront file for 'map_mesh_0311.obj'

# Vertices (Count = 24)
v -128 -64 0
v -192 -64 0
v -192 0 0
v -128 0 0
v -128 -128 0
v -192 -128 0
v -192 -64 0
v -128 -64 0
v -128 -192 0
v -192 -192 0
v -192 -128 0
v -128 -128 0
v 0 -256 0
v -64 -256 0
v -64 -192 0
v 0 -192 0
v -64 -256 0
v -128 -256 0
v -128 -192 0
v -64 -192 0
v -128 -256 0
v -192 -256 0
v -192 -192 0
v -128 -192 0

# Texture cooridinates (Count = 12)
vt 0.75 0.25
vt 1 0.25
vt 1 0.5
vt 0.75 0.5
vt 1 0.75
vt 0.75 0.75
vt 0.5 0
vt 0.75 0
vt 0.5 0.25
vt 0.25 0
vt 0.25 0.25
vt 1 0

# Normal
vn 0 0 -1

# Mesh description
g map_mesh_0311

# Faces
f 1/1/1 2/2/1 3/3/1 4/4/1
f 5/4/1 6/3/1 7/5/1 8/6/1
f 9/1/1 10/2/1 11/3/1 12/4/1
f 13/7/1 14/8/1 15/1/1 16/9/1
f 17/10/1 18/7/1 19/9/1 20/11/1
f 21/8/1 22/12/1 23/2/1 24/1/1

