# Tiled2Unity generated file. Do not modify by hand.
# Wavefront file for 'map_mesh_0300.obj'

# Vertices (Count = 20)
v -960 -768 0
v -1024 -768 0
v -1024 -704 0
v -960 -704 0
v -960 -832 0
v -1024 -832 0
v -1024 -768 0
v -960 -768 0
v -960 -896 0
v -1024 -896 0
v -1024 -832 0
v -960 -832 0
v -960 -960 0
v -1024 -960 0
v -1024 -896 0
v -960 -896 0
v -960 -1024 0
v -1024 -1024 0
v -1024 -960 0
v -960 -960 0

# Texture cooridinates (Count = 4)
vt 0 0
vt 0.5 0
vt 0.5 1
vt 0 1

# Normal
vn 0 0 -1

# Mesh description
g map_mesh_0300

# Faces
f 1/1/1 2/2/1 3/3/1 4/4/1
f 5/1/1 6/2/1 7/3/1 8/4/1
f 9/1/1 10/2/1 11/3/1 12/4/1
f 13/1/1 14/2/1 15/3/1 16/4/1
f 17/1/1 18/2/1 19/3/1 20/4/1

