# Tiled2Unity generated file. Do not modify by hand.
# Wavefront file for 'map_mesh_0296.obj'

# Vertices (Count = 80)
v -192 -768 0
v -256 -768 0
v -256 -704 0
v -192 -704 0
v -256 -768 0
v -320 -768 0
v -320 -704 0
v -256 -704 0
v -320 -768 0
v -384 -768 0
v -384 -704 0
v -320 -704 0
v -704 -768 0
v -768 -768 0
v -768 -704 0
v -704 -704 0
v -192 -832 0
v -256 -832 0
v -256 -768 0
v -192 -768 0
v -256 -832 0
v -320 -832 0
v -320 -768 0
v -256 -768 0
v -320 -832 0
v -384 -832 0
v -384 -768 0
v -320 -768 0
v -704 -832 0
v -768 -832 0
v -768 -768 0
v -704 -768 0
v -192 -896 0
v -256 -896 0
v -256 -832 0
v -192 -832 0
v -256 -896 0
v -320 -896 0
v -320 -832 0
v -256 -832 0
v -320 -896 0
v -384 -896 0
v -384 -832 0
v -320 -832 0
v -704 -896 0
v -768 -896 0
v -768 -832 0
v -704 -832 0
v -192 -960 0
v -256 -960 0
v -256 -896 0
v -192 -896 0
v -256 -960 0
v -320 -960 0
v -320 -896 0
v -256 -896 0
v -320 -960 0
v -384 -960 0
v -384 -896 0
v -320 -896 0
v -704 -960 0
v -768 -960 0
v -768 -896 0
v -704 -896 0
v -192 -1024 0
v -256 -1024 0
v -256 -960 0
v -192 -960 0
v -256 -1024 0
v -320 -1024 0
v -320 -960 0
v -256 -960 0
v -320 -1024 0
v -384 -1024 0
v -384 -960 0
v -320 -960 0
v -704 -1024 0
v -768 -1024 0
v -768 -960 0
v -704 -960 0

# Texture cooridinates (Count = 10)
vt 0.2 0.3333333
vt 0.4 0.3333333
vt 0.4 0.6666666
vt 0.2 0.6666666
vt 0.6 0.3333333
vt 0.6 0.6666666
vt 0.8 0.3333333
vt 0.8 0.6666666
vt 1 0.3333333
vt 1 0.6666666

# Normal
vn 0 0 -1

# Mesh description
g map_mesh_0296

# Faces
f 1/1/1 2/2/1 3/3/1 4/4/1
f 5/2/1 6/5/1 7/6/1 8/3/1
f 9/5/1 10/7/1 11/8/1 12/6/1
f 13/2/1 14/5/1 15/6/1 16/3/1
f 17/3/1 18/2/1 19/5/1 20/6/1
f 21/7/1 22/9/1 23/10/1 24/8/1
f 25/5/1 26/6/1 27/3/1 28/2/1
f 29/7/1 30/9/1 31/10/1 32/8/1
f 33/3/1 34/2/1 35/5/1 36/6/1
f 37/7/1 38/9/1 39/10/1 40/8/1
f 41/5/1 42/6/1 43/3/1 44/2/1
f 45/7/1 46/9/1 47/10/1 48/8/1
f 49/3/1 50/2/1 51/5/1 52/6/1
f 53/7/1 54/9/1 55/10/1 56/8/1
f 57/5/1 58/6/1 59/3/1 60/2/1
f 61/7/1 62/9/1 63/10/1 64/8/1
f 65/3/1 66/2/1 67/5/1 68/6/1
f 69/7/1 70/9/1 71/10/1 72/8/1
f 73/5/1 74/6/1 75/3/1 76/2/1
f 77/7/1 78/9/1 79/10/1 80/8/1

