# Tiled2Unity generated file. Do not modify by hand.
# Wavefront file for 'map_mesh_0299.obj'

# Vertices (Count = 80)
v -576 -64 0
v -640 -64 0
v -640 0 0
v -576 0 0
v -576 -128 0
v -640 -128 0
v -640 -64 0
v -576 -64 0
v -640 -128 0
v -704 -128 0
v -704 -64 0
v -640 -64 0
v -640 -192 0
v -704 -192 0
v -704 -128 0
v -640 -128 0
v -640 -256 0
v -704 -256 0
v -704 -192 0
v -640 -192 0
v -704 -256 0
v -768 -256 0
v -768 -192 0
v -704 -192 0
v -640 -320 0
v -704 -320 0
v -704 -256 0
v -640 -256 0
v -704 -320 0
v -768 -320 0
v -768 -256 0
v -704 -256 0
v -640 -384 0
v -704 -384 0
v -704 -320 0
v -640 -320 0
v -704 -384 0
v -768 -384 0
v -768 -320 0
v -704 -320 0
v -640 -448 0
v -704 -448 0
v -704 -384 0
v -640 -384 0
v -640 -512 0
v -704 -512 0
v -704 -448 0
v -640 -448 0
v -640 -576 0
v -704 -576 0
v -704 -512 0
v -640 -512 0
v -640 -640 0
v -704 -640 0
v -704 -576 0
v -640 -576 0
v -640 -704 0
v -704 -704 0
v -704 -640 0
v -640 -640 0
v -640 -768 0
v -704 -768 0
v -704 -704 0
v -640 -704 0
v -640 -832 0
v -704 -832 0
v -704 -768 0
v -640 -768 0
v -640 -896 0
v -704 -896 0
v -704 -832 0
v -640 -832 0
v -640 -960 0
v -704 -960 0
v -704 -896 0
v -640 -896 0
v -640 -1024 0
v -704 -1024 0
v -704 -960 0
v -640 -960 0

# Texture cooridinates (Count = 4)
vt 0.5 0
vt 1 0
vt 1 1
vt 0.5 1

# Normal
vn 0 0 -1

# Mesh description
g map_mesh_0299

# Faces
f 1/1/1 2/2/1 3/3/1 4/4/1
f 5/1/1 6/2/1 7/3/1 8/4/1
f 9/1/1 10/2/1 11/3/1 12/4/1
f 13/1/1 14/2/1 15/3/1 16/4/1
f 17/1/1 18/2/1 19/3/1 20/4/1
f 21/1/1 22/2/1 23/3/1 24/4/1
f 25/1/1 26/2/1 27/3/1 28/4/1
f 29/1/1 30/2/1 31/3/1 32/4/1
f 33/1/1 34/2/1 35/3/1 36/4/1
f 37/1/1 38/2/1 39/3/1 40/4/1
f 41/1/1 42/2/1 43/3/1 44/4/1
f 45/1/1 46/2/1 47/3/1 48/4/1
f 49/1/1 50/2/1 51/3/1 52/4/1
f 53/1/1 54/2/1 55/3/1 56/4/1
f 57/1/1 58/2/1 59/3/1 60/4/1
f 61/1/1 62/2/1 63/3/1 64/4/1
f 65/1/1 66/2/1 67/3/1 68/4/1
f 69/1/1 70/2/1 71/3/1 72/4/1
f 73/1/1 74/2/1 75/3/1 76/4/1
f 77/1/1 78/2/1 79/3/1 80/4/1

