# Tiled2Unity generated file. Do not modify by hand.
# Wavefront file for 'map_mesh_0416.obj'

# Vertices (Count = 200)
v 0 -64 0
v -64 -64 0
v -64 0 0
v 0 0 0
v -64 -64 0
v -128 -64 0
v -128 0 0
v -64 0 0
v -128 -64 0
v -192 -64 0
v -192 0 0
v -128 0 0
v -192 -64 0
v -256 -64 0
v -256 0 0
v -192 0 0
v -256 -64 0
v -320 -64 0
v -320 0 0
v -256 0 0
v -320 -64 0
v -384 -64 0
v -384 0 0
v -320 0 0
v -384 -64 0
v -448 -64 0
v -448 0 0
v -384 0 0
v -448 -64 0
v -512 -64 0
v -512 0 0
v -448 0 0
v -512 -64 0
v -576 -64 0
v -576 0 0
v -512 0 0
v -576 -64 0
v -640 -64 0
v -640 0 0
v -576 0 0
v -640 -64 0
v -704 -64 0
v -704 0 0
v -640 0 0
v -704 -64 0
v -768 -64 0
v -768 0 0
v -704 0 0
v -768 -64 0
v -832 -64 0
v -832 0 0
v -768 0 0
v -832 -64 0
v -896 -64 0
v -896 0 0
v -832 0 0
v -896 -64 0
v -960 -64 0
v -960 0 0
v -896 0 0
v -960 -64 0
v -1024 -64 0
v -1024 0 0
v -960 0 0
v 0 -128 0
v -64 -128 0
v -64 -64 0
v 0 -64 0
v -64 -128 0
v -128 -128 0
v -128 -64 0
v -64 -64 0
v -128 -128 0
v -192 -128 0
v -192 -64 0
v -128 -64 0
v -192 -128 0
v -256 -128 0
v -256 -64 0
v -192 -64 0
v -256 -128 0
v -320 -128 0
v -320 -64 0
v -256 -64 0
v -320 -128 0
v -384 -128 0
v -384 -64 0
v -320 -64 0
v -384 -128 0
v -448 -128 0
v -448 -64 0
v -384 -64 0
v -448 -128 0
v -512 -128 0
v -512 -64 0
v -448 -64 0
v -512 -128 0
v -576 -128 0
v -576 -64 0
v -512 -64 0
v -576 -128 0
v -640 -128 0
v -640 -64 0
v -576 -64 0
v -640 -128 0
v -704 -128 0
v -704 -64 0
v -640 -64 0
v -704 -128 0
v -768 -128 0
v -768 -64 0
v -704 -64 0
v -768 -128 0
v -832 -128 0
v -832 -64 0
v -768 -64 0
v -832 -128 0
v -896 -128 0
v -896 -64 0
v -832 -64 0
v -896 -128 0
v -960 -128 0
v -960 -64 0
v -896 -64 0
v -960 -128 0
v -1024 -128 0
v -1024 -64 0
v -960 -64 0
v 0 -192 0
v -64 -192 0
v -64 -128 0
v 0 -128 0
v -64 -192 0
v -128 -192 0
v -128 -128 0
v -64 -128 0
v -128 -192 0
v -192 -192 0
v -192 -128 0
v -128 -128 0
v -192 -192 0
v -256 -192 0
v -256 -128 0
v -192 -128 0
v -256 -192 0
v -320 -192 0
v -320 -128 0
v -256 -128 0
v -320 -192 0
v -384 -192 0
v -384 -128 0
v -320 -128 0
v -384 -192 0
v -448 -192 0
v -448 -128 0
v -384 -128 0
v -448 -192 0
v -512 -192 0
v -512 -128 0
v -448 -128 0
v -512 -192 0
v -576 -192 0
v -576 -128 0
v -512 -128 0
v -576 -192 0
v -640 -192 0
v -640 -128 0
v -576 -128 0
v -640 -192 0
v -704 -192 0
v -704 -128 0
v -640 -128 0
v -704 -192 0
v -768 -192 0
v -768 -128 0
v -704 -128 0
v 0 -256 0
v -64 -256 0
v -64 -192 0
v 0 -192 0
v -64 -256 0
v -128 -256 0
v -128 -192 0
v -64 -192 0
v -128 -256 0
v -192 -256 0
v -192 -192 0
v -128 -192 0
v -192 -256 0
v -256 -256 0
v -256 -192 0
v -192 -192 0
v -256 -256 0
v -320 -256 0
v -320 -192 0
v -256 -192 0
v -320 -256 0
v -384 -256 0
v -384 -192 0
v -320 -192 0

# Texture cooridinates (Count = 6)
vt 0 0
vt 0.5 0
vt 0.5 1
vt 0 1
vt 1 0
vt 1 1

# Normal
vn 0 0 -1

# Mesh description
g map_mesh_0416

# Faces
f 1/1/1 2/2/1 3/3/1 4/4/1
f 5/1/1 6/2/1 7/3/1 8/4/1
f 9/1/1 10/2/1 11/3/1 12/4/1
f 13/1/1 14/2/1 15/3/1 16/4/1
f 17/1/1 18/2/1 19/3/1 20/4/1
f 21/1/1 22/2/1 23/3/1 24/4/1
f 25/1/1 26/2/1 27/3/1 28/4/1
f 29/1/1 30/2/1 31/3/1 32/4/1
f 33/1/1 34/2/1 35/3/1 36/4/1
f 37/1/1 38/2/1 39/3/1 40/4/1
f 41/1/1 42/2/1 43/3/1 44/4/1
f 45/1/1 46/2/1 47/3/1 48/4/1
f 49/1/1 50/2/1 51/3/1 52/4/1
f 53/1/1 54/2/1 55/3/1 56/4/1
f 57/1/1 58/2/1 59/3/1 60/4/1
f 61/2/1 62/5/1 63/6/1 64/3/1
f 65/1/1 66/2/1 67/3/1 68/4/1
f 69/1/1 70/2/1 71/3/1 72/4/1
f 73/1/1 74/2/1 75/3/1 76/4/1
f 77/1/1 78/2/1 79/3/1 80/4/1
f 81/1/1 82/2/1 83/3/1 84/4/1
f 85/1/1 86/2/1 87/3/1 88/4/1
f 89/1/1 90/2/1 91/3/1 92/4/1
f 93/1/1 94/2/1 95/3/1 96/4/1
f 97/1/1 98/2/1 99/3/1 100/4/1
f 101/1/1 102/2/1 103/3/1 104/4/1
f 105/1/1 106/2/1 107/3/1 108/4/1
f 109/1/1 110/2/1 111/3/1 112/4/1
f 113/2/1 114/5/1 115/6/1 116/3/1
f 117/2/1 118/5/1 119/6/1 120/3/1
f 121/2/1 122/5/1 123/6/1 124/3/1
f 125/2/1 126/5/1 127/6/1 128/3/1
f 129/1/1 130/2/1 131/3/1 132/4/1
f 133/1/1 134/2/1 135/3/1 136/4/1
f 137/1/1 138/2/1 139/3/1 140/4/1
f 141/1/1 142/2/1 143/3/1 144/4/1
f 145/1/1 146/2/1 147/3/1 148/4/1
f 149/1/1 150/2/1 151/3/1 152/4/1
f 153/2/1 154/5/1 155/6/1 156/3/1
f 157/2/1 158/5/1 159/6/1 160/3/1
f 161/2/1 162/5/1 163/6/1 164/3/1
f 165/2/1 166/5/1 167/6/1 168/3/1
f 169/2/1 170/5/1 171/6/1 172/3/1
f 173/2/1 174/5/1 175/6/1 176/3/1
f 177/2/1 178/5/1 179/6/1 180/3/1
f 181/2/1 182/5/1 183/6/1 184/3/1
f 185/2/1 186/5/1 187/6/1 188/3/1
f 189/2/1 190/5/1 191/6/1 192/3/1
f 193/2/1 194/5/1 195/6/1 196/3/1
f 197/2/1 198/5/1 199/6/1 200/3/1

