# Tiled2Unity generated file. Do not modify by hand.
# Wavefront file for 'map_mesh_0287.obj'

# Vertices (Count = 308)
v -576 -320 0
v -640 -320 0
v -640 -256 0
v -576 -256 0
v -640 -320 0
v -704 -320 0
v -704 -256 0
v -640 -256 0
v -64 -384 0
v -128 -384 0
v -128 -320 0
v -64 -320 0
v -640 -384 0
v -704 -384 0
v -704 -320 0
v -640 -320 0
v -704 -384 0
v -768 -384 0
v -768 -320 0
v -704 -320 0
v -768 -384 0
v -832 -384 0
v -832 -320 0
v -768 -320 0
v -64 -448 0
v -128 -448 0
v -128 -384 0
v -64 -384 0
v -128 -448 0
v -192 -448 0
v -192 -384 0
v -128 -384 0
v -640 -448 0
v -704 -448 0
v -704 -384 0
v -640 -384 0
v -704 -448 0
v -768 -448 0
v -768 -384 0
v -704 -384 0
v -768 -448 0
v -832 -448 0
v -832 -384 0
v -768 -384 0
v -832 -448 0
v -896 -448 0
v -896 -384 0
v -832 -384 0
v -64 -512 0
v -128 -512 0
v -128 -448 0
v -64 -448 0
v -128 -512 0
v -192 -512 0
v -192 -448 0
v -128 -448 0
v -192 -512 0
v -256 -512 0
v -256 -448 0
v -192 -448 0
v -640 -512 0
v -704 -512 0
v -704 -448 0
v -640 -448 0
v -704 -512 0
v -768 -512 0
v -768 -448 0
v -704 -448 0
v -768 -512 0
v -832 -512 0
v -832 -448 0
v -768 -448 0
v -832 -512 0
v -896 -512 0
v -896 -448 0
v -832 -448 0
v -128 -576 0
v -192 -576 0
v -192 -512 0
v -128 -512 0
v -192 -576 0
v -256 -576 0
v -256 -512 0
v -192 -512 0
v -256 -576 0
v -320 -576 0
v -320 -512 0
v -256 -512 0
v -704 -576 0
v -768 -576 0
v -768 -512 0
v -704 -512 0
v -768 -576 0
v -832 -576 0
v -832 -512 0
v -768 -512 0
v -832 -576 0
v -896 -576 0
v -896 -512 0
v -832 -512 0
v -896 -576 0
v -960 -576 0
v -960 -512 0
v -896 -512 0
v -960 -576 0
v -1024 -576 0
v -1024 -512 0
v -960 -512 0
v -128 -640 0
v -192 -640 0
v -192 -576 0
v -128 -576 0
v -192 -640 0
v -256 -640 0
v -256 -576 0
v -192 -576 0
v -256 -640 0
v -320 -640 0
v -320 -576 0
v -256 -576 0
v -704 -640 0
v -768 -640 0
v -768 -576 0
v -704 -576 0
v -768 -640 0
v -832 -640 0
v -832 -576 0
v -768 -576 0
v -832 -640 0
v -896 -640 0
v -896 -576 0
v -832 -576 0
v -896 -640 0
v -960 -640 0
v -960 -576 0
v -896 -576 0
v -128 -704 0
v -192 -704 0
v -192 -640 0
v -128 -640 0
v -192 -704 0
v -256 -704 0
v -256 -640 0
v -192 -640 0
v -256 -704 0
v -320 -704 0
v -320 -640 0
v -256 -640 0
v -768 -704 0
v -832 -704 0
v -832 -640 0
v -768 -640 0
v -832 -704 0
v -896 -704 0
v -896 -640 0
v -832 -640 0
v -896 -704 0
v -960 -704 0
v -960 -640 0
v -896 -640 0
v -192 -768 0
v -256 -768 0
v -256 -704 0
v -192 -704 0
v -256 -768 0
v -320 -768 0
v -320 -704 0
v -256 -704 0
v -320 -768 0
v -384 -768 0
v -384 -704 0
v -320 -704 0
v -768 -768 0
v -832 -768 0
v -832 -704 0
v -768 -704 0
v -832 -768 0
v -896 -768 0
v -896 -704 0
v -832 -704 0
v -896 -768 0
v -960 -768 0
v -960 -704 0
v -896 -704 0
v -960 -768 0
v -1024 -768 0
v -1024 -704 0
v -960 -704 0
v -192 -832 0
v -256 -832 0
v -256 -768 0
v -192 -768 0
v -256 -832 0
v -320 -832 0
v -320 -768 0
v -256 -768 0
v -320 -832 0
v -384 -832 0
v -384 -768 0
v -320 -768 0
v -384 -832 0
v -448 -832 0
v -448 -768 0
v -384 -768 0
v -768 -832 0
v -832 -832 0
v -832 -768 0
v -768 -768 0
v -832 -832 0
v -896 -832 0
v -896 -768 0
v -832 -768 0
v -896 -832 0
v -960 -832 0
v -960 -768 0
v -896 -768 0
v -960 -832 0
v -1024 -832 0
v -1024 -768 0
v -960 -768 0
v -192 -896 0
v -256 -896 0
v -256 -832 0
v -192 -832 0
v -256 -896 0
v -320 -896 0
v -320 -832 0
v -256 -832 0
v -320 -896 0
v -384 -896 0
v -384 -832 0
v -320 -832 0
v -384 -896 0
v -448 -896 0
v -448 -832 0
v -384 -832 0
v -768 -896 0
v -832 -896 0
v -832 -832 0
v -768 -832 0
v -832 -896 0
v -896 -896 0
v -896 -832 0
v -832 -832 0
v -896 -896 0
v -960 -896 0
v -960 -832 0
v -896 -832 0
v -960 -896 0
v -1024 -896 0
v -1024 -832 0
v -960 -832 0
v -192 -960 0
v -256 -960 0
v -256 -896 0
v -192 -896 0
v -256 -960 0
v -320 -960 0
v -320 -896 0
v -256 -896 0
v -320 -960 0
v -384 -960 0
v -384 -896 0
v -320 -896 0
v -384 -960 0
v -448 -960 0
v -448 -896 0
v -384 -896 0
v -832 -960 0
v -896 -960 0
v -896 -896 0
v -832 -896 0
v -896 -960 0
v -960 -960 0
v -960 -896 0
v -896 -896 0
v -960 -960 0
v -1024 -960 0
v -1024 -896 0
v -960 -896 0
v -128 -1024 0
v -192 -1024 0
v -192 -960 0
v -128 -960 0
v -192 -1024 0
v -256 -1024 0
v -256 -960 0
v -192 -960 0
v -256 -1024 0
v -320 -1024 0
v -320 -960 0
v -256 -960 0
v -320 -1024 0
v -384 -1024 0
v -384 -960 0
v -320 -960 0
v -384 -1024 0
v -448 -1024 0
v -448 -960 0
v -384 -960 0
v -896 -1024 0
v -960 -1024 0
v -960 -960 0
v -896 -960 0
v -960 -1024 0
v -1024 -1024 0
v -1024 -960 0
v -960 -960 0

# Texture cooridinates (Count = 6)
vt 0.5 0
vt 1 0
vt 1 1
vt 0.5 1
vt 0 0
vt 0 1

# Normal
vn 0 0 -1

# Mesh description
g map_mesh_0287

# Faces
f 1/1/1 2/2/1 3/3/1 4/4/1
f 5/1/1 6/2/1 7/3/1 8/4/1
f 9/1/1 10/2/1 11/3/1 12/4/1
f 13/1/1 14/2/1 15/3/1 16/4/1
f 17/1/1 18/2/1 19/3/1 20/4/1
f 21/1/1 22/2/1 23/3/1 24/4/1
f 25/1/1 26/2/1 27/3/1 28/4/1
f 29/1/1 30/2/1 31/3/1 32/4/1
f 33/1/1 34/2/1 35/3/1 36/4/1
f 37/5/1 38/1/1 39/4/1 40/6/1
f 41/1/1 42/2/1 43/3/1 44/4/1
f 45/1/1 46/2/1 47/3/1 48/4/1
f 49/1/1 50/2/1 51/3/1 52/4/1
f 53/1/1 54/2/1 55/3/1 56/4/1
f 57/1/1 58/2/1 59/3/1 60/4/1
f 61/1/1 62/2/1 63/3/1 64/4/1
f 65/1/1 66/2/1 67/3/1 68/4/1
f 69/5/1 70/1/1 71/4/1 72/6/1
f 73/1/1 74/2/1 75/3/1 76/4/1
f 77/1/1 78/2/1 79/3/1 80/4/1
f 81/1/1 82/2/1 83/3/1 84/4/1
f 85/1/1 86/2/1 87/3/1 88/4/1
f 89/1/1 90/2/1 91/3/1 92/4/1
f 93/5/1 94/1/1 95/4/1 96/6/1
f 97/1/1 98/2/1 99/3/1 100/4/1
f 101/1/1 102/2/1 103/3/1 104/4/1
f 105/1/1 106/2/1 107/3/1 108/4/1
f 109/1/1 110/2/1 111/3/1 112/4/1
f 113/5/1 114/1/1 115/4/1 116/6/1
f 117/1/1 118/2/1 119/3/1 120/4/1
f 121/1/1 122/2/1 123/3/1 124/4/1
f 125/1/1 126/2/1 127/3/1 128/4/1
f 129/5/1 130/1/1 131/4/1 132/6/1
f 133/1/1 134/2/1 135/3/1 136/4/1
f 137/1/1 138/2/1 139/3/1 140/4/1
f 141/1/1 142/2/1 143/3/1 144/4/1
f 145/1/1 146/2/1 147/3/1 148/4/1
f 149/1/1 150/2/1 151/3/1 152/4/1
f 153/5/1 154/1/1 155/4/1 156/6/1
f 157/5/1 158/1/1 159/4/1 160/6/1
f 161/1/1 162/2/1 163/3/1 164/4/1
f 165/1/1 166/2/1 167/3/1 168/4/1
f 169/1/1 170/2/1 171/3/1 172/4/1
f 173/1/1 174/2/1 175/3/1 176/4/1
f 177/5/1 178/1/1 179/4/1 180/6/1
f 181/5/1 182/1/1 183/4/1 184/6/1
f 185/5/1 186/1/1 187/4/1 188/6/1
f 189/1/1 190/2/1 191/3/1 192/4/1
f 193/5/1 194/1/1 195/4/1 196/6/1
f 197/1/1 198/2/1 199/3/1 200/4/1
f 201/1/1 202/2/1 203/3/1 204/4/1
f 205/1/1 206/2/1 207/3/1 208/4/1
f 209/5/1 210/1/1 211/4/1 212/6/1
f 213/5/1 214/1/1 215/4/1 216/6/1
f 217/5/1 218/1/1 219/4/1 220/6/1
f 221/1/1 222/2/1 223/3/1 224/4/1
f 225/5/1 226/1/1 227/4/1 228/6/1
f 229/5/1 230/1/1 231/4/1 232/6/1
f 233/1/1 234/2/1 235/3/1 236/4/1
f 237/1/1 238/2/1 239/3/1 240/4/1
f 241/1/1 242/2/1 243/3/1 244/4/1
f 245/5/1 246/1/1 247/4/1 248/6/1
f 249/5/1 250/1/1 251/4/1 252/6/1
f 253/1/1 254/2/1 255/3/1 256/4/1
f 257/5/1 258/1/1 259/4/1 260/6/1
f 261/5/1 262/1/1 263/4/1 264/6/1
f 265/1/1 266/2/1 267/3/1 268/4/1
f 269/1/1 270/2/1 271/3/1 272/4/1
f 273/1/1 274/2/1 275/3/1 276/4/1
f 277/5/1 278/1/1 279/4/1 280/6/1
f 281/1/1 282/2/1 283/3/1 284/4/1
f 285/1/1 286/2/1 287/3/1 288/4/1
f 289/5/1 290/1/1 291/4/1 292/6/1
f 293/5/1 294/1/1 295/4/1 296/6/1
f 297/1/1 298/2/1 299/3/1 300/4/1
f 301/1/1 302/2/1 303/3/1 304/4/1
f 305/5/1 306/1/1 307/4/1 308/6/1

