# Tiled2Unity generated file. Do not modify by hand.
# Wavefront file for 'map_mesh_0384.obj'

# Vertices (Count = 532)
v 0 -128 0
v -64 -128 0
v -64 -64 0
v 0 -64 0
v -256 -128 0
v -320 -128 0
v -320 -64 0
v -256 -64 0
v -320 -128 0
v -384 -128 0
v -384 -64 0
v -320 -64 0
v -384 -128 0
v -448 -128 0
v -448 -64 0
v -384 -64 0
v -448 -128 0
v -512 -128 0
v -512 -64 0
v -448 -64 0
v -704 -128 0
v -768 -128 0
v -768 -64 0
v -704 -64 0
v -768 -128 0
v -832 -128 0
v -832 -64 0
v -768 -64 0
v -832 -128 0
v -896 -128 0
v -896 -64 0
v -832 -64 0
v -896 -128 0
v -960 -128 0
v -960 -64 0
v -896 -64 0
v 0 -512 0
v -64 -512 0
v -64 -448 0
v 0 -448 0
v -64 -512 0
v -128 -512 0
v -128 -448 0
v -64 -448 0
v -128 -512 0
v -192 -512 0
v -192 -448 0
v -128 -448 0
v -192 -512 0
v -256 -512 0
v -256 -448 0
v -192 -448 0
v -256 -512 0
v -320 -512 0
v -320 -448 0
v -256 -448 0
v -448 -512 0
v -512 -512 0
v -512 -448 0
v -448 -448 0
v -512 -512 0
v -576 -512 0
v -576 -448 0
v -512 -448 0
v -576 -512 0
v -640 -512 0
v -640 -448 0
v -576 -448 0
v -640 -512 0
v -704 -512 0
v -704 -448 0
v -640 -448 0
v -704 -512 0
v -768 -512 0
v -768 -448 0
v -704 -448 0
v -896 -512 0
v -960 -512 0
v -960 -448 0
v -896 -448 0
v -960 -512 0
v -1024 -512 0
v -1024 -448 0
v -960 -448 0
v 0 -576 0
v -64 -576 0
v -64 -512 0
v 0 -512 0
v -64 -576 0
v -128 -576 0
v -128 -512 0
v -64 -512 0
v -128 -576 0
v -192 -576 0
v -192 -512 0
v -128 -512 0
v -192 -576 0
v -256 -576 0
v -256 -512 0
v -192 -512 0
v -256 -576 0
v -320 -576 0
v -320 -512 0
v -256 -512 0
v -448 -576 0
v -512 -576 0
v -512 -512 0
v -448 -512 0
v -512 -576 0
v -576 -576 0
v -576 -512 0
v -512 -512 0
v -576 -576 0
v -640 -576 0
v -640 -512 0
v -576 -512 0
v -640 -576 0
v -704 -576 0
v -704 -512 0
v -640 -512 0
v -704 -576 0
v -768 -576 0
v -768 -512 0
v -704 -512 0
v -896 -576 0
v -960 -576 0
v -960 -512 0
v -896 -512 0
v -960 -576 0
v -1024 -576 0
v -1024 -512 0
v -960 -512 0
v 0 -640 0
v -64 -640 0
v -64 -576 0
v 0 -576 0
v -64 -640 0
v -128 -640 0
v -128 -576 0
v -64 -576 0
v -128 -640 0
v -192 -640 0
v -192 -576 0
v -128 -576 0
v -192 -640 0
v -256 -640 0
v -256 -576 0
v -192 -576 0
v -256 -640 0
v -320 -640 0
v -320 -576 0
v -256 -576 0
v -448 -640 0
v -512 -640 0
v -512 -576 0
v -448 -576 0
v -512 -640 0
v -576 -640 0
v -576 -576 0
v -512 -576 0
v -576 -640 0
v -640 -640 0
v -640 -576 0
v -576 -576 0
v -640 -640 0
v -704 -640 0
v -704 -576 0
v -640 -576 0
v -704 -640 0
v -768 -640 0
v -768 -576 0
v -704 -576 0
v -896 -640 0
v -960 -640 0
v -960 -576 0
v -896 -576 0
v -960 -640 0
v -1024 -640 0
v -1024 -576 0
v -960 -576 0
v 0 -704 0
v -64 -704 0
v -64 -640 0
v 0 -640 0
v -64 -704 0
v -128 -704 0
v -128 -640 0
v -64 -640 0
v -128 -704 0
v -192 -704 0
v -192 -640 0
v -128 -640 0
v -192 -704 0
v -256 -704 0
v -256 -640 0
v -192 -640 0
v -256 -704 0
v -320 -704 0
v -320 -640 0
v -256 -640 0
v -448 -704 0
v -512 -704 0
v -512 -640 0
v -448 -640 0
v -512 -704 0
v -576 -704 0
v -576 -640 0
v -512 -640 0
v -576 -704 0
v -640 -704 0
v -640 -640 0
v -576 -640 0
v -640 -704 0
v -704 -704 0
v -704 -640 0
v -640 -640 0
v -704 -704 0
v -768 -704 0
v -768 -640 0
v -704 -640 0
v -896 -704 0
v -960 -704 0
v -960 -640 0
v -896 -640 0
v -960 -704 0
v -1024 -704 0
v -1024 -640 0
v -960 -640 0
v 0 -768 0
v -64 -768 0
v -64 -704 0
v 0 -704 0
v -64 -768 0
v -128 -768 0
v -128 -704 0
v -64 -704 0
v -128 -768 0
v -192 -768 0
v -192 -704 0
v -128 -704 0
v -192 -768 0
v -256 -768 0
v -256 -704 0
v -192 -704 0
v -256 -768 0
v -320 -768 0
v -320 -704 0
v -256 -704 0
v -448 -768 0
v -512 -768 0
v -512 -704 0
v -448 -704 0
v -512 -768 0
v -576 -768 0
v -576 -704 0
v -512 -704 0
v -576 -768 0
v -640 -768 0
v -640 -704 0
v -576 -704 0
v -640 -768 0
v -704 -768 0
v -704 -704 0
v -640 -704 0
v -704 -768 0
v -768 -768 0
v -768 -704 0
v -704 -704 0
v -896 -768 0
v -960 -768 0
v -960 -704 0
v -896 -704 0
v -960 -768 0
v -1024 -768 0
v -1024 -704 0
v -960 -704 0
v 0 -832 0
v -64 -832 0
v -64 -768 0
v 0 -768 0
v -64 -832 0
v -128 -832 0
v -128 -768 0
v -64 -768 0
v -128 -832 0
v -192 -832 0
v -192 -768 0
v -128 -768 0
v -192 -832 0
v -256 -832 0
v -256 -768 0
v -192 -768 0
v -256 -832 0
v -320 -832 0
v -320 -768 0
v -256 -768 0
v -320 -832 0
v -384 -832 0
v -384 -768 0
v -320 -768 0
v -384 -832 0
v -448 -832 0
v -448 -768 0
v -384 -768 0
v -448 -832 0
v -512 -832 0
v -512 -768 0
v -448 -768 0
v -512 -832 0
v -576 -832 0
v -576 -768 0
v -512 -768 0
v -576 -832 0
v -640 -832 0
v -640 -768 0
v -576 -768 0
v -640 -832 0
v -704 -832 0
v -704 -768 0
v -640 -768 0
v -704 -832 0
v -768 -832 0
v -768 -768 0
v -704 -768 0
v -768 -832 0
v -832 -832 0
v -832 -768 0
v -768 -768 0
v -832 -832 0
v -896 -832 0
v -896 -768 0
v -832 -768 0
v -896 -832 0
v -960 -832 0
v -960 -768 0
v -896 -768 0
v -960 -832 0
v -1024 -832 0
v -1024 -768 0
v -960 -768 0
v 0 -896 0
v -64 -896 0
v -64 -832 0
v 0 -832 0
v -64 -896 0
v -128 -896 0
v -128 -832 0
v -64 -832 0
v -128 -896 0
v -192 -896 0
v -192 -832 0
v -128 -832 0
v -192 -896 0
v -256 -896 0
v -256 -832 0
v -192 -832 0
v -256 -896 0
v -320 -896 0
v -320 -832 0
v -256 -832 0
v -320 -896 0
v -384 -896 0
v -384 -832 0
v -320 -832 0
v -384 -896 0
v -448 -896 0
v -448 -832 0
v -384 -832 0
v -448 -896 0
v -512 -896 0
v -512 -832 0
v -448 -832 0
v -512 -896 0
v -576 -896 0
v -576 -832 0
v -512 -832 0
v -576 -896 0
v -640 -896 0
v -640 -832 0
v -576 -832 0
v -640 -896 0
v -704 -896 0
v -704 -832 0
v -640 -832 0
v -704 -896 0
v -768 -896 0
v -768 -832 0
v -704 -832 0
v -768 -896 0
v -832 -896 0
v -832 -832 0
v -768 -832 0
v -832 -896 0
v -896 -896 0
v -896 -832 0
v -832 -832 0
v -896 -896 0
v -960 -896 0
v -960 -832 0
v -896 -832 0
v -960 -896 0
v -1024 -896 0
v -1024 -832 0
v -960 -832 0
v 0 -960 0
v -64 -960 0
v -64 -896 0
v 0 -896 0
v -64 -960 0
v -128 -960 0
v -128 -896 0
v -64 -896 0
v -128 -960 0
v -192 -960 0
v -192 -896 0
v -128 -896 0
v -192 -960 0
v -256 -960 0
v -256 -896 0
v -192 -896 0
v -256 -960 0
v -320 -960 0
v -320 -896 0
v -256 -896 0
v -320 -960 0
v -384 -960 0
v -384 -896 0
v -320 -896 0
v -384 -960 0
v -448 -960 0
v -448 -896 0
v -384 -896 0
v -448 -960 0
v -512 -960 0
v -512 -896 0
v -448 -896 0
v -512 -960 0
v -576 -960 0
v -576 -896 0
v -512 -896 0
v -576 -960 0
v -640 -960 0
v -640 -896 0
v -576 -896 0
v -640 -960 0
v -704 -960 0
v -704 -896 0
v -640 -896 0
v -704 -960 0
v -768 -960 0
v -768 -896 0
v -704 -896 0
v -768 -960 0
v -832 -960 0
v -832 -896 0
v -768 -896 0
v -832 -960 0
v -896 -960 0
v -896 -896 0
v -832 -896 0
v -896 -960 0
v -960 -960 0
v -960 -896 0
v -896 -896 0
v -960 -960 0
v -1024 -960 0
v -1024 -896 0
v -960 -896 0
v 0 -1024 0
v -64 -1024 0
v -64 -960 0
v 0 -960 0
v -64 -1024 0
v -128 -1024 0
v -128 -960 0
v -64 -960 0
v -128 -1024 0
v -192 -1024 0
v -192 -960 0
v -128 -960 0
v -192 -1024 0
v -256 -1024 0
v -256 -960 0
v -192 -960 0
v -256 -1024 0
v -320 -1024 0
v -320 -960 0
v -256 -960 0
v -320 -1024 0
v -384 -1024 0
v -384 -960 0
v -320 -960 0
v -384 -1024 0
v -448 -1024 0
v -448 -960 0
v -384 -960 0
v -448 -1024 0
v -512 -1024 0
v -512 -960 0
v -448 -960 0
v -512 -1024 0
v -576 -1024 0
v -576 -960 0
v -512 -960 0
v -576 -1024 0
v -640 -1024 0
v -640 -960 0
v -576 -960 0
v -640 -1024 0
v -704 -1024 0
v -704 -960 0
v -640 -960 0
v -704 -1024 0
v -768 -1024 0
v -768 -960 0
v -704 -960 0
v -768 -1024 0
v -832 -1024 0
v -832 -960 0
v -768 -960 0
v -832 -1024 0
v -896 -1024 0
v -896 -960 0
v -832 -960 0
v -896 -1024 0
v -960 -1024 0
v -960 -960 0
v -896 -960 0
v -960 -1024 0
v -1024 -1024 0
v -1024 -960 0
v -960 -960 0

# Texture cooridinates (Count = 20)
vt 0.4 0
vt 0.6 0
vt 0.6 0.3333333
vt 0.4 0.3333333
vt 0 0
vt 0.2 0
vt 0.2 0.3333333
vt 0 0.3333333
vt 0.4 0.6666666
vt 0.2 0.6666666
vt 0.6 0.6666666
vt 0.8 0.3333333
vt 0.8 0.6666666
vt 1 0.3333333
vt 1 0.6666666
vt 0.6 1
vt 0.4 1
vt 0.8 1
vt 0 0.6666666
vt 0.2 1

# Normal
vn 0 0 -1

# Mesh description
g map_mesh_0384

# Faces
f 1/1/1 2/2/1 3/3/1 4/4/1
f 5/5/1 6/6/1 7/7/1 8/8/1
f 9/6/1 10/1/1 11/4/1 12/7/1
f 13/6/1 14/1/1 15/4/1 16/7/1
f 17/1/1 18/2/1 19/3/1 20/4/1
f 21/5/1 22/6/1 23/7/1 24/8/1
f 25/6/1 26/1/1 27/4/1 28/7/1
f 29/6/1 30/1/1 31/4/1 32/7/1
f 33/1/1 34/2/1 35/3/1 36/4/1
f 37/7/1 38/4/1 39/9/1 40/10/1
f 41/4/1 42/3/1 43/11/1 44/9/1
f 45/4/1 46/3/1 47/11/1 48/9/1
f 49/4/1 50/3/1 51/11/1 52/9/1
f 53/3/1 54/12/1 55/13/1 56/11/1
f 57/7/1 58/4/1 59/9/1 60/10/1
f 61/4/1 62/3/1 63/11/1 64/9/1
f 65/4/1 66/3/1 67/11/1 68/9/1
f 69/4/1 70/3/1 71/11/1 72/9/1
f 73/3/1 74/12/1 75/13/1 76/11/1
f 77/7/1 78/4/1 79/9/1 80/10/1
f 81/4/1 82/3/1 83/11/1 84/9/1
f 85/12/1 86/14/1 87/15/1 88/13/1
f 89/9/1 90/11/1 91/16/1 92/17/1
f 93/12/1 94/14/1 95/15/1 96/13/1
f 97/11/1 98/13/1 99/18/1 100/16/1
f 101/12/1 102/14/1 103/15/1 104/13/1
f 105/12/1 106/14/1 107/15/1 108/13/1
f 109/9/1 110/11/1 111/16/1 112/17/1
f 113/12/1 114/14/1 115/15/1 116/13/1
f 117/11/1 118/13/1 119/18/1 120/16/1
f 121/12/1 122/14/1 123/15/1 124/13/1
f 125/12/1 126/14/1 127/15/1 128/13/1
f 129/9/1 130/11/1 131/16/1 132/17/1
f 133/12/1 134/14/1 135/15/1 136/13/1
f 137/9/1 138/11/1 139/16/1 140/17/1
f 141/12/1 142/14/1 143/15/1 144/13/1
f 145/11/1 146/13/1 147/18/1 148/16/1
f 149/12/1 150/14/1 151/15/1 152/13/1
f 153/12/1 154/14/1 155/15/1 156/13/1
f 157/9/1 158/11/1 159/16/1 160/17/1
f 161/12/1 162/14/1 163/15/1 164/13/1
f 165/11/1 166/13/1 167/18/1 168/16/1
f 169/12/1 170/14/1 171/15/1 172/13/1
f 173/12/1 174/14/1 175/15/1 176/13/1
f 177/9/1 178/11/1 179/16/1 180/17/1
f 181/12/1 182/14/1 183/15/1 184/13/1
f 185/9/1 186/11/1 187/16/1 188/17/1
f 189/12/1 190/14/1 191/15/1 192/13/1
f 193/11/1 194/13/1 195/18/1 196/16/1
f 197/12/1 198/14/1 199/15/1 200/13/1
f 201/12/1 202/14/1 203/15/1 204/13/1
f 205/9/1 206/11/1 207/16/1 208/17/1
f 209/12/1 210/14/1 211/15/1 212/13/1
f 213/11/1 214/13/1 215/18/1 216/16/1
f 217/12/1 218/14/1 219/15/1 220/13/1
f 221/12/1 222/14/1 223/15/1 224/13/1
f 225/9/1 226/11/1 227/16/1 228/17/1
f 229/12/1 230/14/1 231/15/1 232/13/1
f 233/9/1 234/11/1 235/16/1 236/17/1
f 237/12/1 238/14/1 239/15/1 240/13/1
f 241/11/1 242/13/1 243/18/1 244/16/1
f 245/12/1 246/14/1 247/15/1 248/13/1
f 249/12/1 250/14/1 251/15/1 252/13/1
f 253/9/1 254/11/1 255/16/1 256/17/1
f 257/12/1 258/14/1 259/15/1 260/13/1
f 261/11/1 262/13/1 263/18/1 264/16/1
f 265/12/1 266/14/1 267/15/1 268/13/1
f 269/12/1 270/14/1 271/15/1 272/13/1
f 273/9/1 274/11/1 275/16/1 276/17/1
f 277/12/1 278/14/1 279/15/1 280/13/1
f 281/9/1 282/11/1 283/16/1 284/17/1
f 285/12/1 286/14/1 287/15/1 288/13/1
f 289/11/1 290/13/1 291/18/1 292/16/1
f 293/12/1 294/14/1 295/15/1 296/13/1
f 297/8/1 298/7/1 299/10/1 300/19/1
f 301/8/1 302/7/1 303/10/1 304/19/1
f 305/12/1 306/14/1 307/15/1 308/13/1
f 309/9/1 310/11/1 311/16/1 312/17/1
f 313/12/1 314/14/1 315/15/1 316/13/1
f 317/11/1 318/13/1 319/18/1 320/16/1
f 321/12/1 322/14/1 323/15/1 324/13/1
f 325/8/1 326/7/1 327/10/1 328/19/1
f 329/8/1 330/7/1 331/10/1 332/19/1
f 333/12/1 334/14/1 335/15/1 336/13/1
f 337/9/1 338/11/1 339/16/1 340/17/1
f 341/10/1 342/9/1 343/17/1 344/20/1
f 345/10/1 346/9/1 347/17/1 348/20/1
f 349/10/1 350/9/1 351/17/1 352/20/1
f 353/10/1 354/9/1 355/17/1 356/20/1
f 357/10/1 358/9/1 359/17/1 360/20/1
f 361/10/1 362/9/1 363/17/1 364/20/1
f 365/10/1 366/9/1 367/17/1 368/20/1
f 369/10/1 370/9/1 371/17/1 372/20/1
f 373/10/1 374/9/1 375/17/1 376/20/1
f 377/10/1 378/9/1 379/17/1 380/20/1
f 381/10/1 382/9/1 383/17/1 384/20/1
f 385/10/1 386/9/1 387/17/1 388/20/1
f 389/10/1 390/9/1 391/17/1 392/20/1
f 393/10/1 394/9/1 395/17/1 396/20/1
f 397/10/1 398/9/1 399/17/1 400/20/1
f 401/10/1 402/9/1 403/17/1 404/20/1
f 405/12/1 406/14/1 407/15/1 408/13/1
f 409/12/1 410/14/1 411/15/1 412/13/1
f 413/12/1 414/14/1 415/15/1 416/13/1
f 417/12/1 418/14/1 419/15/1 420/13/1
f 421/12/1 422/14/1 423/15/1 424/13/1
f 425/12/1 426/14/1 427/15/1 428/13/1
f 429/12/1 430/14/1 431/15/1 432/13/1
f 433/12/1 434/14/1 435/15/1 436/13/1
f 437/12/1 438/14/1 439/15/1 440/13/1
f 441/12/1 442/14/1 443/15/1 444/13/1
f 445/12/1 446/14/1 447/15/1 448/13/1
f 449/12/1 450/14/1 451/15/1 452/13/1
f 453/12/1 454/14/1 455/15/1 456/13/1
f 457/12/1 458/14/1 459/15/1 460/13/1
f 461/12/1 462/14/1 463/15/1 464/13/1
f 465/12/1 466/14/1 467/15/1 468/13/1
f 469/12/1 470/14/1 471/15/1 472/13/1
f 473/12/1 474/14/1 475/15/1 476/13/1
f 477/12/1 478/14/1 479/15/1 480/13/1
f 481/12/1 482/14/1 483/15/1 484/13/1
f 485/12/1 486/14/1 487/15/1 488/13/1
f 489/12/1 490/14/1 491/15/1 492/13/1
f 493/12/1 494/14/1 495/15/1 496/13/1
f 497/12/1 498/14/1 499/15/1 500/13/1
f 501/12/1 502/14/1 503/15/1 504/13/1
f 505/12/1 506/14/1 507/15/1 508/13/1
f 509/12/1 510/14/1 511/15/1 512/13/1
f 513/12/1 514/14/1 515/15/1 516/13/1
f 517/12/1 518/14/1 519/15/1 520/13/1
f 521/12/1 522/14/1 523/15/1 524/13/1
f 525/12/1 526/14/1 527/15/1 528/13/1
f 529/12/1 530/14/1 531/15/1 532/13/1

