# Tiled2Unity generated file. Do not modify by hand.
# Wavefront file for 'map_mesh_0224.obj'

# Vertices (Count = 556)
v -320 -512 0
v -384 -512 0
v -384 -448 0
v -320 -448 0
v -384 -512 0
v -448 -512 0
v -448 -448 0
v -384 -448 0
v -448 -512 0
v -512 -512 0
v -512 -448 0
v -448 -448 0
v -512 -512 0
v -576 -512 0
v -576 -448 0
v -512 -448 0
v -576 -512 0
v -640 -512 0
v -640 -448 0
v -576 -448 0
v -640 -512 0
v -704 -512 0
v -704 -448 0
v -640 -448 0
v -704 -512 0
v -768 -512 0
v -768 -448 0
v -704 -448 0
v -768 -512 0
v -832 -512 0
v -832 -448 0
v -768 -448 0
v -832 -512 0
v -896 -512 0
v -896 -448 0
v -832 -448 0
v -896 -512 0
v -960 -512 0
v -960 -448 0
v -896 -448 0
v -960 -512 0
v -1024 -512 0
v -1024 -448 0
v -960 -448 0
v 0 -576 0
v -64 -576 0
v -64 -512 0
v 0 -512 0
v -64 -576 0
v -128 -576 0
v -128 -512 0
v -64 -512 0
v -128 -576 0
v -192 -576 0
v -192 -512 0
v -128 -512 0
v -192 -576 0
v -256 -576 0
v -256 -512 0
v -192 -512 0
v -256 -576 0
v -320 -576 0
v -320 -512 0
v -256 -512 0
v -320 -576 0
v -384 -576 0
v -384 -512 0
v -320 -512 0
v -384 -576 0
v -448 -576 0
v -448 -512 0
v -384 -512 0
v -448 -576 0
v -512 -576 0
v -512 -512 0
v -448 -512 0
v -512 -576 0
v -576 -576 0
v -576 -512 0
v -512 -512 0
v -576 -576 0
v -640 -576 0
v -640 -512 0
v -576 -512 0
v -640 -576 0
v -704 -576 0
v -704 -512 0
v -640 -512 0
v -704 -576 0
v -768 -576 0
v -768 -512 0
v -704 -512 0
v -768 -576 0
v -832 -576 0
v -832 -512 0
v -768 -512 0
v -832 -576 0
v -896 -576 0
v -896 -512 0
v -832 -512 0
v -896 -576 0
v -960 -576 0
v -960 -512 0
v -896 -512 0
v -960 -576 0
v -1024 -576 0
v -1024 -512 0
v -960 -512 0
v 0 -640 0
v -64 -640 0
v -64 -576 0
v 0 -576 0
v -64 -640 0
v -128 -640 0
v -128 -576 0
v -64 -576 0
v -128 -640 0
v -192 -640 0
v -192 -576 0
v -128 -576 0
v -192 -640 0
v -256 -640 0
v -256 -576 0
v -192 -576 0
v -256 -640 0
v -320 -640 0
v -320 -576 0
v -256 -576 0
v -320 -640 0
v -384 -640 0
v -384 -576 0
v -320 -576 0
v -384 -640 0
v -448 -640 0
v -448 -576 0
v -384 -576 0
v -448 -640 0
v -512 -640 0
v -512 -576 0
v -448 -576 0
v -512 -640 0
v -576 -640 0
v -576 -576 0
v -512 -576 0
v -576 -640 0
v -640 -640 0
v -640 -576 0
v -576 -576 0
v -640 -640 0
v -704 -640 0
v -704 -576 0
v -640 -576 0
v -704 -640 0
v -768 -640 0
v -768 -576 0
v -704 -576 0
v -768 -640 0
v -832 -640 0
v -832 -576 0
v -768 -576 0
v -832 -640 0
v -896 -640 0
v -896 -576 0
v -832 -576 0
v -896 -640 0
v -960 -640 0
v -960 -576 0
v -896 -576 0
v -960 -640 0
v -1024 -640 0
v -1024 -576 0
v -960 -576 0
v 0 -704 0
v -64 -704 0
v -64 -640 0
v 0 -640 0
v -64 -704 0
v -128 -704 0
v -128 -640 0
v -64 -640 0
v -128 -704 0
v -192 -704 0
v -192 -640 0
v -128 -640 0
v -192 -704 0
v -256 -704 0
v -256 -640 0
v -192 -640 0
v -256 -704 0
v -320 -704 0
v -320 -640 0
v -256 -640 0
v -320 -704 0
v -384 -704 0
v -384 -640 0
v -320 -640 0
v -384 -704 0
v -448 -704 0
v -448 -640 0
v -384 -640 0
v -448 -704 0
v -512 -704 0
v -512 -640 0
v -448 -640 0
v -512 -704 0
v -576 -704 0
v -576 -640 0
v -512 -640 0
v -576 -704 0
v -640 -704 0
v -640 -640 0
v -576 -640 0
v -640 -704 0
v -704 -704 0
v -704 -640 0
v -640 -640 0
v -704 -704 0
v -768 -704 0
v -768 -640 0
v -704 -640 0
v -768 -704 0
v -832 -704 0
v -832 -640 0
v -768 -640 0
v -832 -704 0
v -896 -704 0
v -896 -640 0
v -832 -640 0
v -896 -704 0
v -960 -704 0
v -960 -640 0
v -896 -640 0
v -960 -704 0
v -1024 -704 0
v -1024 -640 0
v -960 -640 0
v 0 -768 0
v -64 -768 0
v -64 -704 0
v 0 -704 0
v -64 -768 0
v -128 -768 0
v -128 -704 0
v -64 -704 0
v -128 -768 0
v -192 -768 0
v -192 -704 0
v -128 -704 0
v -192 -768 0
v -256 -768 0
v -256 -704 0
v -192 -704 0
v -256 -768 0
v -320 -768 0
v -320 -704 0
v -256 -704 0
v -320 -768 0
v -384 -768 0
v -384 -704 0
v -320 -704 0
v -384 -768 0
v -448 -768 0
v -448 -704 0
v -384 -704 0
v -448 -768 0
v -512 -768 0
v -512 -704 0
v -448 -704 0
v -512 -768 0
v -576 -768 0
v -576 -704 0
v -512 -704 0
v -576 -768 0
v -640 -768 0
v -640 -704 0
v -576 -704 0
v -640 -768 0
v -704 -768 0
v -704 -704 0
v -640 -704 0
v -704 -768 0
v -768 -768 0
v -768 -704 0
v -704 -704 0
v -768 -768 0
v -832 -768 0
v -832 -704 0
v -768 -704 0
v -832 -768 0
v -896 -768 0
v -896 -704 0
v -832 -704 0
v -896 -768 0
v -960 -768 0
v -960 -704 0
v -896 -704 0
v -960 -768 0
v -1024 -768 0
v -1024 -704 0
v -960 -704 0
v 0 -832 0
v -64 -832 0
v -64 -768 0
v 0 -768 0
v -64 -832 0
v -128 -832 0
v -128 -768 0
v -64 -768 0
v -128 -832 0
v -192 -832 0
v -192 -768 0
v -128 -768 0
v -192 -832 0
v -256 -832 0
v -256 -768 0
v -192 -768 0
v -256 -832 0
v -320 -832 0
v -320 -768 0
v -256 -768 0
v -320 -832 0
v -384 -832 0
v -384 -768 0
v -320 -768 0
v -384 -832 0
v -448 -832 0
v -448 -768 0
v -384 -768 0
v -448 -832 0
v -512 -832 0
v -512 -768 0
v -448 -768 0
v -512 -832 0
v -576 -832 0
v -576 -768 0
v -512 -768 0
v -576 -832 0
v -640 -832 0
v -640 -768 0
v -576 -768 0
v -640 -832 0
v -704 -832 0
v -704 -768 0
v -640 -768 0
v -704 -832 0
v -768 -832 0
v -768 -768 0
v -704 -768 0
v -768 -832 0
v -832 -832 0
v -832 -768 0
v -768 -768 0
v -832 -832 0
v -896 -832 0
v -896 -768 0
v -832 -768 0
v -896 -832 0
v -960 -832 0
v -960 -768 0
v -896 -768 0
v -960 -832 0
v -1024 -832 0
v -1024 -768 0
v -960 -768 0
v 0 -896 0
v -64 -896 0
v -64 -832 0
v 0 -832 0
v -64 -896 0
v -128 -896 0
v -128 -832 0
v -64 -832 0
v -128 -896 0
v -192 -896 0
v -192 -832 0
v -128 -832 0
v -192 -896 0
v -256 -896 0
v -256 -832 0
v -192 -832 0
v -256 -896 0
v -320 -896 0
v -320 -832 0
v -256 -832 0
v -320 -896 0
v -384 -896 0
v -384 -832 0
v -320 -832 0
v -384 -896 0
v -448 -896 0
v -448 -832 0
v -384 -832 0
v -448 -896 0
v -512 -896 0
v -512 -832 0
v -448 -832 0
v -512 -896 0
v -576 -896 0
v -576 -832 0
v -512 -832 0
v -576 -896 0
v -640 -896 0
v -640 -832 0
v -576 -832 0
v -640 -896 0
v -704 -896 0
v -704 -832 0
v -640 -832 0
v -704 -896 0
v -768 -896 0
v -768 -832 0
v -704 -832 0
v -768 -896 0
v -832 -896 0
v -832 -832 0
v -768 -832 0
v -832 -896 0
v -896 -896 0
v -896 -832 0
v -832 -832 0
v -896 -896 0
v -960 -896 0
v -960 -832 0
v -896 -832 0
v -960 -896 0
v -1024 -896 0
v -1024 -832 0
v -960 -832 0
v 0 -960 0
v -64 -960 0
v -64 -896 0
v 0 -896 0
v -64 -960 0
v -128 -960 0
v -128 -896 0
v -64 -896 0
v -128 -960 0
v -192 -960 0
v -192 -896 0
v -128 -896 0
v -192 -960 0
v -256 -960 0
v -256 -896 0
v -192 -896 0
v -256 -960 0
v -320 -960 0
v -320 -896 0
v -256 -896 0
v -320 -960 0
v -384 -960 0
v -384 -896 0
v -320 -896 0
v -384 -960 0
v -448 -960 0
v -448 -896 0
v -384 -896 0
v -448 -960 0
v -512 -960 0
v -512 -896 0
v -448 -896 0
v -512 -960 0
v -576 -960 0
v -576 -896 0
v -512 -896 0
v -576 -960 0
v -640 -960 0
v -640 -896 0
v -576 -896 0
v -640 -960 0
v -704 -960 0
v -704 -896 0
v -640 -896 0
v -704 -960 0
v -768 -960 0
v -768 -896 0
v -704 -896 0
v -768 -960 0
v -832 -960 0
v -832 -896 0
v -768 -896 0
v -832 -960 0
v -896 -960 0
v -896 -896 0
v -832 -896 0
v -896 -960 0
v -960 -960 0
v -960 -896 0
v -896 -896 0
v -960 -960 0
v -1024 -960 0
v -1024 -896 0
v -960 -896 0
v 0 -1024 0
v -64 -1024 0
v -64 -960 0
v 0 -960 0
v -64 -1024 0
v -128 -1024 0
v -128 -960 0
v -64 -960 0
v -128 -1024 0
v -192 -1024 0
v -192 -960 0
v -128 -960 0
v -192 -1024 0
v -256 -1024 0
v -256 -960 0
v -192 -960 0
v -256 -1024 0
v -320 -1024 0
v -320 -960 0
v -256 -960 0
v -320 -1024 0
v -384 -1024 0
v -384 -960 0
v -320 -960 0
v -384 -1024 0
v -448 -1024 0
v -448 -960 0
v -384 -960 0
v -448 -1024 0
v -512 -1024 0
v -512 -960 0
v -448 -960 0
v -512 -1024 0
v -576 -1024 0
v -576 -960 0
v -512 -960 0
v -576 -1024 0
v -640 -1024 0
v -640 -960 0
v -576 -960 0
v -640 -1024 0
v -704 -1024 0
v -704 -960 0
v -640 -960 0
v -704 -1024 0
v -768 -1024 0
v -768 -960 0
v -704 -960 0
v -768 -1024 0
v -832 -1024 0
v -832 -960 0
v -768 -960 0
v -832 -1024 0
v -896 -1024 0
v -896 -960 0
v -832 -960 0
v -896 -1024 0
v -960 -1024 0
v -960 -960 0
v -896 -960 0
v -960 -1024 0
v -1024 -1024 0
v -1024 -960 0
v -960 -960 0

# Texture cooridinates (Count = 39)
vt 0.1481481 0.3333333
vt 0.2222222 0.3333333
vt 0.2222222 0.4444444
vt 0.1481481 0.4444444
vt 0.2962963 0.3333333
vt 0.2962963 0.4444444
vt 0.3703704 0.3333333
vt 0.3703704 0.4444444
vt 0.4444444 0.3333333
vt 0.4444444 0.4444444
vt 0.5185185 0.3333333
vt 0.5185185 0.4444444
vt 0.5925926 0.3333333
vt 0.5925926 0.4444444
vt 0.6666667 0.3333333
vt 0.6666667 0.4444444
vt 0.1481481 0.2222222
vt 0.2222222 0.2222222
vt 0.2962963 0.2222222
vt 0.3703704 0.2222222
vt 0.4444444 0.2222222
vt 0.5185185 0.2222222
vt 0.5925926 0.2222222
vt 0.6666667 0.2222222
vt 0.7407407 0.2222222
vt 0.7407407 0.3333333
vt 0.1481481 0.1111111
vt 0.2222222 0.1111111
vt 0.2962963 0.1111111
vt 0.3703704 0.1111111
vt 0.8148148 0.7777778
vt 0.8888889 0.7777778
vt 0.8888889 0.8888889
vt 0.8148148 0.8888889
vt 0.4444444 0.1111111
vt 0.5185185 0.1111111
vt 0.5925926 0.1111111
vt 0.6666667 0.1111111
vt 0.7407407 0.1111111

# Normal
vn 0 0 -1

# Mesh description
g map_mesh_0224

# Faces
f 1/1/1 2/2/1 3/3/1 4/4/1
f 5/2/1 6/5/1 7/6/1 8/3/1
f 9/5/1 10/7/1 11/8/1 12/6/1
f 13/7/1 14/9/1 15/10/1 16/8/1
f 17/9/1 18/11/1 19/12/1 20/10/1
f 21/11/1 22/13/1 23/14/1 24/12/1
f 25/13/1 26/15/1 27/16/1 28/14/1
f 29/1/1 30/2/1 31/3/1 32/4/1
f 33/2/1 34/5/1 35/6/1 36/3/1
f 37/5/1 38/7/1 39/8/1 40/6/1
f 41/7/1 42/9/1 43/10/1 44/8/1
f 45/7/1 46/9/1 47/10/1 48/8/1
f 49/9/1 50/11/1 51/12/1 52/10/1
f 53/1/1 54/2/1 55/3/1 56/4/1
f 57/2/1 58/5/1 59/6/1 60/3/1
f 61/5/1 62/7/1 63/8/1 64/6/1
f 65/17/1 66/18/1 67/2/1 68/1/1
f 69/18/1 70/19/1 71/5/1 72/2/1
f 73/19/1 74/20/1 75/7/1 76/5/1
f 77/20/1 78/21/1 79/9/1 80/7/1
f 81/21/1 82/22/1 83/11/1 84/9/1
f 85/22/1 86/23/1 87/13/1 88/11/1
f 89/23/1 90/24/1 91/15/1 92/13/1
f 93/17/1 94/18/1 95/2/1 96/1/1
f 97/18/1 98/19/1 99/5/1 100/2/1
f 101/19/1 102/20/1 103/7/1 104/5/1
f 105/20/1 106/21/1 107/9/1 108/7/1
f 109/20/1 110/21/1 111/9/1 112/7/1
f 113/21/1 114/22/1 115/11/1 116/9/1
f 117/17/1 118/18/1 119/2/1 120/1/1
f 121/18/1 122/19/1 123/5/1 124/2/1
f 125/19/1 126/20/1 127/7/1 128/5/1
f 129/20/1 130/21/1 131/9/1 132/7/1
f 133/21/1 134/22/1 135/11/1 136/9/1
f 137/22/1 138/23/1 139/13/1 140/11/1
f 141/23/1 142/24/1 143/15/1 144/13/1
f 145/24/1 146/25/1 147/26/1 148/15/1
f 149/17/1 150/18/1 151/2/1 152/1/1
f 153/27/1 154/28/1 155/18/1 156/17/1
f 157/28/1 158/29/1 159/19/1 160/18/1
f 161/29/1 162/30/1 163/20/1 164/19/1
f 165/31/1 166/32/1 167/33/1 168/34/1
f 169/35/1 170/36/1 171/22/1 172/21/1
f 173/35/1 174/36/1 175/22/1 176/21/1
f 177/36/1 178/37/1 179/23/1 180/22/1
f 181/37/1 182/38/1 183/24/1 184/23/1
f 185/38/1 186/39/1 187/25/1 188/24/1
f 189/27/1 190/28/1 191/18/1 192/17/1
f 193/28/1 194/29/1 195/19/1 196/18/1
f 197/29/1 198/30/1 199/20/1 200/19/1
f 201/31/1 202/32/1 203/33/1 204/34/1
f 205/35/1 206/36/1 207/22/1 208/21/1
f 209/36/1 210/37/1 211/23/1 212/22/1
f 213/37/1 214/38/1 215/24/1 216/23/1
f 217/38/1 218/39/1 219/25/1 220/24/1
f 221/31/1 222/32/1 223/33/1 224/34/1
f 225/31/1 226/32/1 227/33/1 228/34/1
f 229/31/1 230/32/1 231/33/1 232/34/1
f 233/31/1 234/32/1 235/33/1 236/34/1
f 237/31/1 238/32/1 239/33/1 240/34/1
f 241/31/1 242/32/1 243/33/1 244/34/1
f 245/31/1 246/32/1 247/33/1 248/34/1
f 249/31/1 250/32/1 251/33/1 252/34/1
f 253/31/1 254/32/1 255/33/1 256/34/1
f 257/31/1 258/32/1 259/33/1 260/34/1
f 261/31/1 262/32/1 263/33/1 264/34/1
f 265/31/1 266/32/1 267/33/1 268/34/1
f 269/31/1 270/32/1 271/33/1 272/34/1
f 273/31/1 274/32/1 275/33/1 276/34/1
f 277/31/1 278/32/1 279/33/1 280/34/1
f 281/31/1 282/32/1 283/33/1 284/34/1
f 285/31/1 286/32/1 287/33/1 288/34/1
f 289/31/1 290/32/1 291/33/1 292/34/1
f 293/31/1 294/32/1 295/33/1 296/34/1
f 297/31/1 298/32/1 299/33/1 300/34/1
f 301/31/1 302/32/1 303/33/1 304/34/1
f 305/31/1 306/32/1 307/33/1 308/34/1
f 309/31/1 310/32/1 311/33/1 312/34/1
f 313/31/1 314/32/1 315/33/1 316/34/1
f 317/31/1 318/32/1 319/33/1 320/34/1
f 321/31/1 322/32/1 323/33/1 324/34/1
f 325/31/1 326/32/1 327/33/1 328/34/1
f 329/31/1 330/32/1 331/33/1 332/34/1
f 333/31/1 334/32/1 335/33/1 336/34/1
f 337/31/1 338/32/1 339/33/1 340/34/1
f 341/31/1 342/32/1 343/33/1 344/34/1
f 345/31/1 346/32/1 347/33/1 348/34/1
f 349/31/1 350/32/1 351/33/1 352/34/1
f 353/31/1 354/32/1 355/33/1 356/34/1
f 357/31/1 358/32/1 359/33/1 360/34/1
f 361/31/1 362/32/1 363/33/1 364/34/1
f 365/31/1 366/32/1 367/33/1 368/34/1
f 369/31/1 370/32/1 371/33/1 372/34/1
f 373/31/1 374/32/1 375/33/1 376/34/1
f 377/31/1 378/32/1 379/33/1 380/34/1
f 381/31/1 382/32/1 383/33/1 384/34/1
f 385/31/1 386/32/1 387/33/1 388/34/1
f 389/31/1 390/32/1 391/33/1 392/34/1
f 393/31/1 394/32/1 395/33/1 396/34/1
f 397/31/1 398/32/1 399/33/1 400/34/1
f 401/31/1 402/32/1 403/33/1 404/34/1
f 405/31/1 406/32/1 407/33/1 408/34/1
f 409/31/1 410/32/1 411/33/1 412/34/1
f 413/31/1 414/32/1 415/33/1 416/34/1
f 417/31/1 418/32/1 419/33/1 420/34/1
f 421/31/1 422/32/1 423/33/1 424/34/1
f 425/31/1 426/32/1 427/33/1 428/34/1
f 429/31/1 430/32/1 431/33/1 432/34/1
f 433/31/1 434/32/1 435/33/1 436/34/1
f 437/31/1 438/32/1 439/33/1 440/34/1
f 441/31/1 442/32/1 443/33/1 444/34/1
f 445/31/1 446/32/1 447/33/1 448/34/1
f 449/31/1 450/32/1 451/33/1 452/34/1
f 453/31/1 454/32/1 455/33/1 456/34/1
f 457/31/1 458/32/1 459/33/1 460/34/1
f 461/31/1 462/32/1 463/33/1 464/34/1
f 465/31/1 466/32/1 467/33/1 468/34/1
f 469/31/1 470/32/1 471/33/1 472/34/1
f 473/31/1 474/32/1 475/33/1 476/34/1
f 477/31/1 478/32/1 479/33/1 480/34/1
f 481/31/1 482/32/1 483/33/1 484/34/1
f 485/31/1 486/32/1 487/33/1 488/34/1
f 489/31/1 490/32/1 491/33/1 492/34/1
f 493/31/1 494/32/1 495/33/1 496/34/1
f 497/31/1 498/32/1 499/33/1 500/34/1
f 501/31/1 502/32/1 503/33/1 504/34/1
f 505/31/1 506/32/1 507/33/1 508/34/1
f 509/31/1 510/32/1 511/33/1 512/34/1
f 513/31/1 514/32/1 515/33/1 516/34/1
f 517/31/1 518/32/1 519/33/1 520/34/1
f 521/31/1 522/32/1 523/33/1 524/34/1
f 525/31/1 526/32/1 527/33/1 528/34/1
f 529/31/1 530/32/1 531/33/1 532/34/1
f 533/31/1 534/32/1 535/33/1 536/34/1
f 537/31/1 538/32/1 539/33/1 540/34/1
f 541/31/1 542/32/1 543/33/1 544/34/1
f 545/31/1 546/32/1 547/33/1 548/34/1
f 549/31/1 550/32/1 551/33/1 552/34/1
f 553/31/1 554/32/1 555/33/1 556/34/1

