# Tiled2Unity generated file. Do not modify by hand.
# Wavefront file for 'map_mesh_0452.obj'

# Vertices (Count = 76)
v -704 -320 0
v -768 -320 0
v -768 -256 0
v -704 -256 0
v -448 -384 0
v -512 -384 0
v -512 -320 0
v -448 -320 0
v -704 -384 0
v -768 -384 0
v -768 -320 0
v -704 -320 0
v -448 -448 0
v -512 -448 0
v -512 -384 0
v -448 -384 0
v -704 -448 0
v -768 -448 0
v -768 -384 0
v -704 -384 0
v -448 -512 0
v -512 -512 0
v -512 -448 0
v -448 -448 0
v -704 -512 0
v -768 -512 0
v -768 -448 0
v -704 -448 0
v -768 -512 0
v -832 -512 0
v -832 -448 0
v -768 -448 0
v -832 -512 0
v -896 -512 0
v -896 -448 0
v -832 -448 0
v -896 -512 0
v -960 -512 0
v -960 -448 0
v -896 -448 0
v -960 -512 0
v -1024 -512 0
v -1024 -448 0
v -960 -448 0
v 0 -576 0
v -64 -576 0
v -64 -512 0
v 0 -512 0
v -64 -576 0
v -128 -576 0
v -128 -512 0
v -64 -512 0
v -128 -576 0
v -192 -576 0
v -192 -512 0
v -128 -512 0
v -192 -576 0
v -256 -576 0
v -256 -512 0
v -192 -512 0
v -256 -576 0
v -320 -576 0
v -320 -512 0
v -256 -512 0
v -320 -576 0
v -384 -576 0
v -384 -512 0
v -320 -512 0
v -384 -576 0
v -448 -576 0
v -448 -512 0
v -384 -512 0
v -448 -576 0
v -512 -576 0
v -512 -512 0
v -448 -512 0

# Texture cooridinates (Count = 18)
vt 0 0.25
vt 0.25 0.25
vt 0.25 0.5
vt 0 0.5
vt 0.75 0.25
vt 1 0.25
vt 1 0.5
vt 0.75 0.5
vt 0.25 0.75
vt 0 0.75
vt 1 0.75
vt 0.75 0.75
vt 0 0
vt 0.25 0
vt 0.5 0
vt 0.5 0.25
vt 0.75 0
vt 1 0

# Normal
vn 0 0 -1

# Mesh description
g map_mesh_0452

# Faces
f 1/1/1 2/2/1 3/3/1 4/4/1
f 5/5/1 6/6/1 7/7/1 8/8/1
f 9/4/1 10/3/1 11/9/1 12/10/1
f 13/8/1 14/7/1 15/11/1 16/12/1
f 17/1/1 18/2/1 19/3/1 20/4/1
f 21/5/1 22/6/1 23/7/1 24/8/1
f 25/13/1 26/14/1 27/2/1 28/1/1
f 29/14/1 30/15/1 31/16/1 32/2/1
f 33/15/1 34/17/1 35/5/1 36/16/1
f 37/14/1 38/15/1 39/16/1 40/2/1
f 41/15/1 42/17/1 43/5/1 44/16/1
f 45/14/1 46/15/1 47/16/1 48/2/1
f 49/15/1 50/17/1 51/5/1 52/16/1
f 53/14/1 54/15/1 55/16/1 56/2/1
f 57/15/1 58/17/1 59/5/1 60/16/1
f 61/14/1 62/15/1 63/16/1 64/2/1
f 65/15/1 66/17/1 67/5/1 68/16/1
f 69/14/1 70/15/1 71/16/1 72/2/1
f 73/17/1 74/18/1 75/6/1 76/5/1

