# Tiled2Unity generated file. Do not modify by hand.
# Wavefront file for 'map_mesh_0216.obj'

# Vertices (Count = 192)
v 0 -896 0
v -64 -896 0
v -64 -832 0
v 0 -832 0
v -64 -896 0
v -128 -896 0
v -128 -832 0
v -64 -832 0
v -128 -896 0
v -192 -896 0
v -192 -832 0
v -128 -832 0
v -192 -896 0
v -256 -896 0
v -256 -832 0
v -192 -832 0
v -256 -896 0
v -320 -896 0
v -320 -832 0
v -256 -832 0
v -320 -896 0
v -384 -896 0
v -384 -832 0
v -320 -832 0
v -384 -896 0
v -448 -896 0
v -448 -832 0
v -384 -832 0
v -448 -896 0
v -512 -896 0
v -512 -832 0
v -448 -832 0
v -512 -896 0
v -576 -896 0
v -576 -832 0
v -512 -832 0
v -576 -896 0
v -640 -896 0
v -640 -832 0
v -576 -832 0
v -640 -896 0
v -704 -896 0
v -704 -832 0
v -640 -832 0
v -704 -896 0
v -768 -896 0
v -768 -832 0
v -704 -832 0
v -768 -896 0
v -832 -896 0
v -832 -832 0
v -768 -832 0
v -832 -896 0
v -896 -896 0
v -896 -832 0
v -832 -832 0
v -896 -896 0
v -960 -896 0
v -960 -832 0
v -896 -832 0
v -960 -896 0
v -1024 -896 0
v -1024 -832 0
v -960 -832 0
v 0 -960 0
v -64 -960 0
v -64 -896 0
v 0 -896 0
v -64 -960 0
v -128 -960 0
v -128 -896 0
v -64 -896 0
v -128 -960 0
v -192 -960 0
v -192 -896 0
v -128 -896 0
v -192 -960 0
v -256 -960 0
v -256 -896 0
v -192 -896 0
v -256 -960 0
v -320 -960 0
v -320 -896 0
v -256 -896 0
v -320 -960 0
v -384 -960 0
v -384 -896 0
v -320 -896 0
v -384 -960 0
v -448 -960 0
v -448 -896 0
v -384 -896 0
v -448 -960 0
v -512 -960 0
v -512 -896 0
v -448 -896 0
v -512 -960 0
v -576 -960 0
v -576 -896 0
v -512 -896 0
v -576 -960 0
v -640 -960 0
v -640 -896 0
v -576 -896 0
v -640 -960 0
v -704 -960 0
v -704 -896 0
v -640 -896 0
v -704 -960 0
v -768 -960 0
v -768 -896 0
v -704 -896 0
v -768 -960 0
v -832 -960 0
v -832 -896 0
v -768 -896 0
v -832 -960 0
v -896 -960 0
v -896 -896 0
v -832 -896 0
v -896 -960 0
v -960 -960 0
v -960 -896 0
v -896 -896 0
v -960 -960 0
v -1024 -960 0
v -1024 -896 0
v -960 -896 0
v 0 -1024 0
v -64 -1024 0
v -64 -960 0
v 0 -960 0
v -64 -1024 0
v -128 -1024 0
v -128 -960 0
v -64 -960 0
v -128 -1024 0
v -192 -1024 0
v -192 -960 0
v -128 -960 0
v -192 -1024 0
v -256 -1024 0
v -256 -960 0
v -192 -960 0
v -256 -1024 0
v -320 -1024 0
v -320 -960 0
v -256 -960 0
v -320 -1024 0
v -384 -1024 0
v -384 -960 0
v -320 -960 0
v -384 -1024 0
v -448 -1024 0
v -448 -960 0
v -384 -960 0
v -448 -1024 0
v -512 -1024 0
v -512 -960 0
v -448 -960 0
v -512 -1024 0
v -576 -1024 0
v -576 -960 0
v -512 -960 0
v -576 -1024 0
v -640 -1024 0
v -640 -960 0
v -576 -960 0
v -640 -1024 0
v -704 -1024 0
v -704 -960 0
v -640 -960 0
v -704 -1024 0
v -768 -1024 0
v -768 -960 0
v -704 -960 0
v -768 -1024 0
v -832 -1024 0
v -832 -960 0
v -768 -960 0
v -832 -1024 0
v -896 -1024 0
v -896 -960 0
v -832 -960 0
v -896 -1024 0
v -960 -1024 0
v -960 -960 0
v -896 -960 0
v -960 -1024 0
v -1024 -1024 0
v -1024 -960 0
v -960 -960 0

# Texture cooridinates (Count = 44)
vt 0.4444444 0.3333333
vt 0.5185185 0.3333333
vt 0.5185185 0.4444444
vt 0.4444444 0.4444444
vt 0.5925926 0.3333333
vt 0.5925926 0.4444444
vt 0.6666667 0.3333333
vt 0.6666667 0.4444444
vt 0.7407407 0.3333333
vt 0.7407407 0.4444444
vt 0.4444444 0.8888889
vt 0.3703704 0.8888889
vt 0.3703704 0.7777778
vt 0.4444444 0.7777778
vt 0.2962963 0.3333333
vt 0.3703704 0.3333333
vt 0.3703704 0.4444444
vt 0.2962963 0.4444444
vt 0.1481481 0.3333333
vt 0.2222222 0.3333333
vt 0.2222222 0.4444444
vt 0.1481481 0.4444444
vt 0.4444444 0.2222222
vt 0.5185185 0.2222222
vt 0.5925926 0.2222222
vt 0.6666667 0.2222222
vt 0.7407407 0.2222222
vt 0.1481481 0.2222222
vt 0.2222222 0.2222222
vt 0.2962963 0.2222222
vt 0.3703704 0.2222222
vt 0.1481481 0.1111111
vt 0.2222222 0.1111111
vt 0.2962963 0.1111111
vt 0.3703704 0.1111111
vt 0.8148148 0.7777778
vt 0.8888889 0.7777778
vt 0.8888889 0.8888889
vt 0.8148148 0.8888889
vt 0.4444444 0.1111111
vt 0.5185185 0.1111111
vt 0.5925926 0.1111111
vt 0.6666667 0.1111111
vt 0.7407407 0.1111111

# Normal
vn 0 0 -1

# Mesh description
g map_mesh_0216

# Faces
f 1/1/1 2/2/1 3/3/1 4/4/1
f 5/2/1 6/5/1 7/6/1 8/3/1
f 9/5/1 10/7/1 11/8/1 12/6/1
f 13/7/1 14/9/1 15/10/1 16/8/1
f 17/11/1 18/12/1 19/13/1 20/14/1
f 21/11/1 22/12/1 23/13/1 24/14/1
f 25/11/1 26/12/1 27/13/1 28/14/1
f 29/15/1 30/16/1 31/17/1 32/18/1
f 33/16/1 34/1/1 35/4/1 36/17/1
f 37/1/1 38/2/1 39/3/1 40/4/1
f 41/2/1 42/5/1 43/6/1 44/3/1
f 45/5/1 46/7/1 47/8/1 48/6/1
f 49/7/1 50/9/1 51/10/1 52/8/1
f 53/19/1 54/20/1 55/21/1 56/22/1
f 57/11/1 58/12/1 59/13/1 60/14/1
f 61/11/1 62/12/1 63/13/1 64/14/1
f 65/23/1 66/24/1 67/2/1 68/1/1
f 69/24/1 70/25/1 71/5/1 72/2/1
f 73/25/1 74/26/1 75/7/1 76/5/1
f 77/26/1 78/27/1 79/9/1 80/7/1
f 81/28/1 82/29/1 83/20/1 84/19/1
f 85/28/1 86/29/1 87/20/1 88/19/1
f 89/29/1 90/30/1 91/15/1 92/20/1
f 93/30/1 94/31/1 95/16/1 96/15/1
f 97/31/1 98/23/1 99/1/1 100/16/1
f 101/23/1 102/24/1 103/2/1 104/1/1
f 105/24/1 106/25/1 107/5/1 108/2/1
f 109/25/1 110/26/1 111/7/1 112/5/1
f 113/26/1 114/27/1 115/9/1 116/7/1
f 117/28/1 118/29/1 119/20/1 120/19/1
f 121/29/1 122/30/1 123/15/1 124/20/1
f 125/30/1 126/31/1 127/16/1 128/15/1
f 129/32/1 130/33/1 131/29/1 132/28/1
f 133/33/1 134/34/1 135/30/1 136/29/1
f 137/34/1 138/35/1 139/31/1 140/30/1
f 141/36/1 142/37/1 143/38/1 144/39/1
f 145/40/1 146/41/1 147/24/1 148/23/1
f 149/41/1 150/42/1 151/25/1 152/24/1
f 153/42/1 154/43/1 155/26/1 156/25/1
f 157/32/1 158/33/1 159/29/1 160/28/1
f 161/33/1 162/34/1 163/30/1 164/29/1
f 165/34/1 166/35/1 167/31/1 168/30/1
f 169/35/1 170/40/1 171/23/1 172/31/1
f 173/40/1 174/41/1 175/24/1 176/23/1
f 177/41/1 178/42/1 179/25/1 180/24/1
f 181/42/1 182/43/1 183/26/1 184/25/1
f 185/43/1 186/44/1 187/27/1 188/26/1
f 189/32/1 190/33/1 191/29/1 192/28/1

