# Tiled2Unity generated file. Do not modify by hand.
# Wavefront file for 'map_mesh_0399.obj'

# Vertices (Count = 120)
v 0 -64 0
v -64 -64 0
v -64 0 0
v 0 0 0
v -64 -64 0
v -128 -64 0
v -128 0 0
v -64 0 0
v -128 -64 0
v -192 -64 0
v -192 0 0
v -128 0 0
v -192 -64 0
v -256 -64 0
v -256 0 0
v -192 0 0
v -256 -64 0
v -320 -64 0
v -320 0 0
v -256 0 0
v -320 -64 0
v -384 -64 0
v -384 0 0
v -320 0 0
v -384 -64 0
v -448 -64 0
v -448 0 0
v -384 0 0
v -448 -64 0
v -512 -64 0
v -512 0 0
v -448 0 0
v -512 -64 0
v -576 -64 0
v -576 0 0
v -512 0 0
v -576 -64 0
v -640 -64 0
v -640 0 0
v -576 0 0
v -640 -64 0
v -704 -64 0
v -704 0 0
v -640 0 0
v -704 -64 0
v -768 -64 0
v -768 0 0
v -704 0 0
v -768 -64 0
v -832 -64 0
v -832 0 0
v -768 0 0
v -832 -64 0
v -896 -64 0
v -896 0 0
v -832 0 0
v -64 -128 0
v -128 -128 0
v -128 -64 0
v -64 -64 0
v -128 -128 0
v -192 -128 0
v -192 -64 0
v -128 -64 0
v -192 -128 0
v -256 -128 0
v -256 -64 0
v -192 -64 0
v -256 -128 0
v -320 -128 0
v -320 -64 0
v -256 -64 0
v -320 -128 0
v -384 -128 0
v -384 -64 0
v -320 -64 0
v -384 -128 0
v -448 -128 0
v -448 -64 0
v -384 -64 0
v -448 -128 0
v -512 -128 0
v -512 -64 0
v -448 -64 0
v -512 -128 0
v -576 -128 0
v -576 -64 0
v -512 -64 0
v -576 -128 0
v -640 -128 0
v -640 -64 0
v -576 -64 0
v -640 -128 0
v -704 -128 0
v -704 -64 0
v -640 -64 0
v -704 -128 0
v -768 -128 0
v -768 -64 0
v -704 -64 0
v -768 -128 0
v -832 -128 0
v -832 -64 0
v -768 -64 0
v -512 -192 0
v -576 -192 0
v -576 -128 0
v -512 -128 0
v -576 -192 0
v -640 -192 0
v -640 -128 0
v -576 -128 0
v -640 -192 0
v -704 -192 0
v -704 -128 0
v -640 -128 0
v -704 -192 0
v -768 -192 0
v -768 -128 0
v -704 -128 0

# Texture cooridinates (Count = 6)
vt 0.5 0
vt 1 0
vt 1 1
vt 0.5 1
vt 0 0
vt 0 1

# Normal
vn 0 0 -1

# Mesh description
g map_mesh_0399

# Faces
f 1/1/1 2/2/1 3/3/1 4/4/1
f 5/5/1 6/1/1 7/4/1 8/6/1
f 9/5/1 10/1/1 11/4/1 12/6/1
f 13/5/1 14/1/1 15/4/1 16/6/1
f 17/5/1 18/1/1 19/4/1 20/6/1
f 21/5/1 22/1/1 23/4/1 24/6/1
f 25/5/1 26/1/1 27/4/1 28/6/1
f 29/5/1 30/1/1 31/4/1 32/6/1
f 33/5/1 34/1/1 35/4/1 36/6/1
f 37/5/1 38/1/1 39/4/1 40/6/1
f 41/5/1 42/1/1 43/4/1 44/6/1
f 45/5/1 46/1/1 47/4/1 48/6/1
f 49/5/1 50/1/1 51/4/1 52/6/1
f 53/1/1 54/2/1 55/3/1 56/4/1
f 57/1/1 58/2/1 59/3/1 60/4/1
f 61/1/1 62/2/1 63/3/1 64/4/1
f 65/1/1 66/2/1 67/3/1 68/4/1
f 69/1/1 70/2/1 71/3/1 72/4/1
f 73/1/1 74/2/1 75/3/1 76/4/1
f 77/1/1 78/2/1 79/3/1 80/4/1
f 81/1/1 82/2/1 83/3/1 84/4/1
f 85/5/1 86/1/1 87/4/1 88/6/1
f 89/5/1 90/1/1 91/4/1 92/6/1
f 93/5/1 94/1/1 95/4/1 96/6/1
f 97/1/1 98/2/1 99/3/1 100/4/1
f 101/1/1 102/2/1 103/3/1 104/4/1
f 105/1/1 106/2/1 107/3/1 108/4/1
f 109/1/1 110/2/1 111/3/1 112/4/1
f 113/1/1 114/2/1 115/3/1 116/4/1
f 117/1/1 118/2/1 119/3/1 120/4/1

