# Tiled2Unity generated file. Do not modify by hand.
# Wavefront file for 'map_mesh_0221.obj'

# Vertices (Count = 304)
v -832 -640 0
v -896 -640 0
v -896 -576 0
v -832 -576 0
v -896 -640 0
v -960 -640 0
v -960 -576 0
v -896 -576 0
v -960 -640 0
v -1024 -640 0
v -1024 -576 0
v -960 -576 0
v -832 -704 0
v -896 -704 0
v -896 -640 0
v -832 -640 0
v -896 -704 0
v -960 -704 0
v -960 -640 0
v -896 -640 0
v -960 -704 0
v -1024 -704 0
v -1024 -640 0
v -960 -640 0
v -640 -768 0
v -704 -768 0
v -704 -704 0
v -640 -704 0
v -704 -768 0
v -768 -768 0
v -768 -704 0
v -704 -704 0
v -768 -768 0
v -832 -768 0
v -832 -704 0
v -768 -704 0
v -832 -768 0
v -896 -768 0
v -896 -704 0
v -832 -704 0
v -896 -768 0
v -960 -768 0
v -960 -704 0
v -896 -704 0
v -960 -768 0
v -1024 -768 0
v -1024 -704 0
v -960 -704 0
v 0 -832 0
v -64 -832 0
v -64 -768 0
v 0 -768 0
v -64 -832 0
v -128 -832 0
v -128 -768 0
v -64 -768 0
v -128 -832 0
v -192 -832 0
v -192 -768 0
v -128 -768 0
v -192 -832 0
v -256 -832 0
v -256 -768 0
v -192 -768 0
v -256 -832 0
v -320 -832 0
v -320 -768 0
v -256 -768 0
v -320 -832 0
v -384 -832 0
v -384 -768 0
v -320 -768 0
v -384 -832 0
v -448 -832 0
v -448 -768 0
v -384 -768 0
v -448 -832 0
v -512 -832 0
v -512 -768 0
v -448 -768 0
v -512 -832 0
v -576 -832 0
v -576 -768 0
v -512 -768 0
v -576 -832 0
v -640 -832 0
v -640 -768 0
v -576 -768 0
v -640 -832 0
v -704 -832 0
v -704 -768 0
v -640 -768 0
v -704 -832 0
v -768 -832 0
v -768 -768 0
v -704 -768 0
v -768 -832 0
v -832 -832 0
v -832 -768 0
v -768 -768 0
v -832 -832 0
v -896 -832 0
v -896 -768 0
v -832 -768 0
v -896 -832 0
v -960 -832 0
v -960 -768 0
v -896 -768 0
v -960 -832 0
v -1024 -832 0
v -1024 -768 0
v -960 -768 0
v 0 -896 0
v -64 -896 0
v -64 -832 0
v 0 -832 0
v -64 -896 0
v -128 -896 0
v -128 -832 0
v -64 -832 0
v -128 -896 0
v -192 -896 0
v -192 -832 0
v -128 -832 0
v -192 -896 0
v -256 -896 0
v -256 -832 0
v -192 -832 0
v -256 -896 0
v -320 -896 0
v -320 -832 0
v -256 -832 0
v -320 -896 0
v -384 -896 0
v -384 -832 0
v -320 -832 0
v -384 -896 0
v -448 -896 0
v -448 -832 0
v -384 -832 0
v -448 -896 0
v -512 -896 0
v -512 -832 0
v -448 -832 0
v -512 -896 0
v -576 -896 0
v -576 -832 0
v -512 -832 0
v -576 -896 0
v -640 -896 0
v -640 -832 0
v -576 -832 0
v -640 -896 0
v -704 -896 0
v -704 -832 0
v -640 -832 0
v -704 -896 0
v -768 -896 0
v -768 -832 0
v -704 -832 0
v -768 -896 0
v -832 -896 0
v -832 -832 0
v -768 -832 0
v -832 -896 0
v -896 -896 0
v -896 -832 0
v -832 -832 0
v -896 -896 0
v -960 -896 0
v -960 -832 0
v -896 -832 0
v -960 -896 0
v -1024 -896 0
v -1024 -832 0
v -960 -832 0
v 0 -960 0
v -64 -960 0
v -64 -896 0
v 0 -896 0
v -64 -960 0
v -128 -960 0
v -128 -896 0
v -64 -896 0
v -128 -960 0
v -192 -960 0
v -192 -896 0
v -128 -896 0
v -192 -960 0
v -256 -960 0
v -256 -896 0
v -192 -896 0
v -256 -960 0
v -320 -960 0
v -320 -896 0
v -256 -896 0
v -320 -960 0
v -384 -960 0
v -384 -896 0
v -320 -896 0
v -384 -960 0
v -448 -960 0
v -448 -896 0
v -384 -896 0
v -448 -960 0
v -512 -960 0
v -512 -896 0
v -448 -896 0
v -512 -960 0
v -576 -960 0
v -576 -896 0
v -512 -896 0
v -576 -960 0
v -640 -960 0
v -640 -896 0
v -576 -896 0
v -640 -960 0
v -704 -960 0
v -704 -896 0
v -640 -896 0
v -704 -960 0
v -768 -960 0
v -768 -896 0
v -704 -896 0
v -768 -960 0
v -832 -960 0
v -832 -896 0
v -768 -896 0
v -832 -960 0
v -896 -960 0
v -896 -896 0
v -832 -896 0
v -896 -960 0
v -960 -960 0
v -960 -896 0
v -896 -896 0
v -960 -960 0
v -1024 -960 0
v -1024 -896 0
v -960 -896 0
v 0 -1024 0
v -64 -1024 0
v -64 -960 0
v 0 -960 0
v -64 -1024 0
v -128 -1024 0
v -128 -960 0
v -64 -960 0
v -128 -1024 0
v -192 -1024 0
v -192 -960 0
v -128 -960 0
v -192 -1024 0
v -256 -1024 0
v -256 -960 0
v -192 -960 0
v -256 -1024 0
v -320 -1024 0
v -320 -960 0
v -256 -960 0
v -320 -1024 0
v -384 -1024 0
v -384 -960 0
v -320 -960 0
v -384 -1024 0
v -448 -1024 0
v -448 -960 0
v -384 -960 0
v -448 -1024 0
v -512 -1024 0
v -512 -960 0
v -448 -960 0
v -512 -1024 0
v -576 -1024 0
v -576 -960 0
v -512 -960 0
v -576 -1024 0
v -640 -1024 0
v -640 -960 0
v -576 -960 0
v -640 -1024 0
v -704 -1024 0
v -704 -960 0
v -640 -960 0
v -704 -1024 0
v -768 -1024 0
v -768 -960 0
v -704 -960 0
v -768 -1024 0
v -832 -1024 0
v -832 -960 0
v -768 -960 0
v -832 -1024 0
v -896 -1024 0
v -896 -960 0
v -832 -960 0
v -896 -1024 0
v -960 -1024 0
v -960 -960 0
v -896 -960 0
v -960 -1024 0
v -1024 -1024 0
v -1024 -960 0
v -960 -960 0

# Texture cooridinates (Count = 40)
vt 0.2962963 0.3333333
vt 0.3703704 0.3333333
vt 0.3703704 0.4444444
vt 0.2962963 0.4444444
vt 0.4444444 0.3333333
vt 0.4444444 0.4444444
vt 0.5185185 0.3333333
vt 0.5185185 0.4444444
vt 0.2962963 0.2222222
vt 0.3703704 0.2222222
vt 0.4444444 0.2222222
vt 0.5185185 0.2222222
vt 0.1481481 0.3333333
vt 0.2222222 0.3333333
vt 0.2222222 0.4444444
vt 0.1481481 0.4444444
vt 0.1481481 0.2222222
vt 0.2222222 0.2222222
vt 0.5925926 0.3333333
vt 0.5925926 0.4444444
vt 0.6666667 0.3333333
vt 0.6666667 0.4444444
vt 0.7407407 0.3333333
vt 0.7407407 0.4444444
vt 0.5925926 0.2222222
vt 0.6666667 0.2222222
vt 0.7407407 0.2222222
vt 0.1481481 0.1111111
vt 0.2222222 0.1111111
vt 0.2962963 0.1111111
vt 0.3703704 0.1111111
vt 0.8148148 0.7777778
vt 0.8888889 0.7777778
vt 0.8888889 0.8888889
vt 0.8148148 0.8888889
vt 0.4444444 0.1111111
vt 0.5185185 0.1111111
vt 0.5925926 0.1111111
vt 0.6666667 0.1111111
vt 0.7407407 0.1111111

# Normal
vn 0 0 -1

# Mesh description
g map_mesh_0221

# Faces
f 1/1/1 2/2/1 3/3/1 4/4/1
f 5/2/1 6/5/1 7/6/1 8/3/1
f 9/5/1 10/7/1 11/8/1 12/6/1
f 13/9/1 14/10/1 15/2/1 16/1/1
f 17/10/1 18/11/1 19/5/1 20/2/1
f 21/11/1 22/12/1 23/7/1 24/5/1
f 25/13/1 26/14/1 27/15/1 28/16/1
f 29/14/1 30/1/1 31/4/1 32/15/1
f 33/17/1 34/18/1 35/14/1 36/13/1
f 37/18/1 38/9/1 39/1/1 40/14/1
f 41/9/1 42/10/1 43/2/1 44/1/1
f 45/10/1 46/11/1 47/5/1 48/2/1
f 49/1/1 50/2/1 51/3/1 52/4/1
f 53/13/1 54/14/1 55/15/1 56/16/1
f 57/14/1 58/1/1 59/4/1 60/15/1
f 61/1/1 62/2/1 63/3/1 64/4/1
f 65/2/1 66/5/1 67/6/1 68/3/1
f 69/5/1 70/7/1 71/8/1 72/6/1
f 73/7/1 74/19/1 75/20/1 76/8/1
f 77/19/1 78/21/1 79/22/1 80/20/1
f 81/21/1 82/23/1 83/24/1 84/22/1
f 85/13/1 86/14/1 87/15/1 88/16/1
f 89/17/1 90/18/1 91/14/1 92/13/1
f 93/18/1 94/9/1 95/1/1 96/14/1
f 97/9/1 98/10/1 99/2/1 100/1/1
f 101/10/1 102/11/1 103/5/1 104/2/1
f 105/11/1 106/12/1 107/7/1 108/5/1
f 109/12/1 110/25/1 111/19/1 112/7/1
f 113/9/1 114/10/1 115/2/1 116/1/1
f 117/17/1 118/18/1 119/14/1 120/13/1
f 121/18/1 122/9/1 123/1/1 124/14/1
f 125/9/1 126/10/1 127/2/1 128/1/1
f 129/10/1 130/11/1 131/5/1 132/2/1
f 133/11/1 134/12/1 135/7/1 136/5/1
f 137/12/1 138/25/1 139/19/1 140/7/1
f 141/25/1 142/26/1 143/21/1 144/19/1
f 145/26/1 146/27/1 147/23/1 148/21/1
f 149/17/1 150/18/1 151/14/1 152/13/1
f 153/28/1 154/29/1 155/18/1 156/17/1
f 157/29/1 158/30/1 159/9/1 160/18/1
f 161/30/1 162/31/1 163/10/1 164/9/1
f 165/32/1 166/33/1 167/34/1 168/35/1
f 169/36/1 170/37/1 171/12/1 172/11/1
f 173/37/1 174/38/1 175/25/1 176/12/1
f 177/37/1 178/38/1 179/25/1 180/12/1
f 181/38/1 182/39/1 183/26/1 184/25/1
f 185/39/1 186/40/1 187/27/1 188/26/1
f 189/28/1 190/29/1 191/18/1 192/17/1
f 193/29/1 194/30/1 195/9/1 196/18/1
f 197/30/1 198/31/1 199/10/1 200/9/1
f 201/32/1 202/33/1 203/34/1 204/35/1
f 205/36/1 206/37/1 207/12/1 208/11/1
f 209/37/1 210/38/1 211/25/1 212/12/1
f 213/38/1 214/39/1 215/26/1 216/25/1
f 217/39/1 218/40/1 219/27/1 220/26/1
f 221/32/1 222/33/1 223/34/1 224/35/1
f 225/32/1 226/33/1 227/34/1 228/35/1
f 229/32/1 230/33/1 231/34/1 232/35/1
f 233/32/1 234/33/1 235/34/1 236/35/1
f 237/32/1 238/33/1 239/34/1 240/35/1
f 241/37/1 242/38/1 243/25/1 244/12/1
f 245/38/1 246/39/1 247/26/1 248/25/1
f 249/39/1 250/40/1 251/27/1 252/26/1
f 253/32/1 254/33/1 255/34/1 256/35/1
f 257/32/1 258/33/1 259/34/1 260/35/1
f 261/32/1 262/33/1 263/34/1 264/35/1
f 265/32/1 266/33/1 267/34/1 268/35/1
f 269/32/1 270/33/1 271/34/1 272/35/1
f 273/32/1 274/33/1 275/34/1 276/35/1
f 277/32/1 278/33/1 279/34/1 280/35/1
f 281/32/1 282/33/1 283/34/1 284/35/1
f 285/32/1 286/33/1 287/34/1 288/35/1
f 289/32/1 290/33/1 291/34/1 292/35/1
f 293/32/1 294/33/1 295/34/1 296/35/1
f 297/32/1 298/33/1 299/34/1 300/35/1
f 301/32/1 302/33/1 303/34/1 304/35/1

