# Tiled2Unity generated file. Do not modify by hand.
# Wavefront file for 'map_mesh_0387.obj'

# Vertices (Count = 516)
v 0 -128 0
v -64 -128 0
v -64 -64 0
v 0 -64 0
v -64 -128 0
v -128 -128 0
v -128 -64 0
v -64 -64 0
v -320 -128 0
v -384 -128 0
v -384 -64 0
v -320 -64 0
v -384 -128 0
v -448 -128 0
v -448 -64 0
v -384 -64 0
v -448 -128 0
v -512 -128 0
v -512 -64 0
v -448 -64 0
v -512 -128 0
v -576 -128 0
v -576 -64 0
v -512 -64 0
v -768 -128 0
v -832 -128 0
v -832 -64 0
v -768 -64 0
v -832 -128 0
v -896 -128 0
v -896 -64 0
v -832 -64 0
v -896 -128 0
v -960 -128 0
v -960 -64 0
v -896 -64 0
v -960 -128 0
v -1024 -128 0
v -1024 -64 0
v -960 -64 0
v -64 -512 0
v -128 -512 0
v -128 -448 0
v -64 -448 0
v -128 -512 0
v -192 -512 0
v -192 -448 0
v -128 -448 0
v -192 -512 0
v -256 -512 0
v -256 -448 0
v -192 -448 0
v -256 -512 0
v -320 -512 0
v -320 -448 0
v -256 -448 0
v -320 -512 0
v -384 -512 0
v -384 -448 0
v -320 -448 0
v -512 -512 0
v -576 -512 0
v -576 -448 0
v -512 -448 0
v -576 -512 0
v -640 -512 0
v -640 -448 0
v -576 -448 0
v -640 -512 0
v -704 -512 0
v -704 -448 0
v -640 -448 0
v -704 -512 0
v -768 -512 0
v -768 -448 0
v -704 -448 0
v -768 -512 0
v -832 -512 0
v -832 -448 0
v -768 -448 0
v -960 -512 0
v -1024 -512 0
v -1024 -448 0
v -960 -448 0
v -64 -576 0
v -128 -576 0
v -128 -512 0
v -64 -512 0
v -128 -576 0
v -192 -576 0
v -192 -512 0
v -128 -512 0
v -192 -576 0
v -256 -576 0
v -256 -512 0
v -192 -512 0
v -256 -576 0
v -320 -576 0
v -320 -512 0
v -256 -512 0
v -320 -576 0
v -384 -576 0
v -384 -512 0
v -320 -512 0
v -512 -576 0
v -576 -576 0
v -576 -512 0
v -512 -512 0
v -576 -576 0
v -640 -576 0
v -640 -512 0
v -576 -512 0
v -640 -576 0
v -704 -576 0
v -704 -512 0
v -640 -512 0
v -704 -576 0
v -768 -576 0
v -768 -512 0
v -704 -512 0
v -768 -576 0
v -832 -576 0
v -832 -512 0
v -768 -512 0
v -960 -576 0
v -1024 -576 0
v -1024 -512 0
v -960 -512 0
v -64 -640 0
v -128 -640 0
v -128 -576 0
v -64 -576 0
v -128 -640 0
v -192 -640 0
v -192 -576 0
v -128 -576 0
v -192 -640 0
v -256 -640 0
v -256 -576 0
v -192 -576 0
v -256 -640 0
v -320 -640 0
v -320 -576 0
v -256 -576 0
v -320 -640 0
v -384 -640 0
v -384 -576 0
v -320 -576 0
v -512 -640 0
v -576 -640 0
v -576 -576 0
v -512 -576 0
v -576 -640 0
v -640 -640 0
v -640 -576 0
v -576 -576 0
v -640 -640 0
v -704 -640 0
v -704 -576 0
v -640 -576 0
v -704 -640 0
v -768 -640 0
v -768 -576 0
v -704 -576 0
v -768 -640 0
v -832 -640 0
v -832 -576 0
v -768 -576 0
v -960 -640 0
v -1024 -640 0
v -1024 -576 0
v -960 -576 0
v -64 -704 0
v -128 -704 0
v -128 -640 0
v -64 -640 0
v -128 -704 0
v -192 -704 0
v -192 -640 0
v -128 -640 0
v -192 -704 0
v -256 -704 0
v -256 -640 0
v -192 -640 0
v -256 -704 0
v -320 -704 0
v -320 -640 0
v -256 -640 0
v -320 -704 0
v -384 -704 0
v -384 -640 0
v -320 -640 0
v -512 -704 0
v -576 -704 0
v -576 -640 0
v -512 -640 0
v -576 -704 0
v -640 -704 0
v -640 -640 0
v -576 -640 0
v -640 -704 0
v -704 -704 0
v -704 -640 0
v -640 -640 0
v -704 -704 0
v -768 -704 0
v -768 -640 0
v -704 -640 0
v -768 -704 0
v -832 -704 0
v -832 -640 0
v -768 -640 0
v -960 -704 0
v -1024 -704 0
v -1024 -640 0
v -960 -640 0
v -64 -768 0
v -128 -768 0
v -128 -704 0
v -64 -704 0
v -128 -768 0
v -192 -768 0
v -192 -704 0
v -128 -704 0
v -192 -768 0
v -256 -768 0
v -256 -704 0
v -192 -704 0
v -256 -768 0
v -320 -768 0
v -320 -704 0
v -256 -704 0
v -320 -768 0
v -384 -768 0
v -384 -704 0
v -320 -704 0
v -512 -768 0
v -576 -768 0
v -576 -704 0
v -512 -704 0
v -576 -768 0
v -640 -768 0
v -640 -704 0
v -576 -704 0
v -640 -768 0
v -704 -768 0
v -704 -704 0
v -640 -704 0
v -704 -768 0
v -768 -768 0
v -768 -704 0
v -704 -704 0
v -768 -768 0
v -832 -768 0
v -832 -704 0
v -768 -704 0
v -960 -768 0
v -1024 -768 0
v -1024 -704 0
v -960 -704 0
v 0 -832 0
v -64 -832 0
v -64 -768 0
v 0 -768 0
v -64 -832 0
v -128 -832 0
v -128 -768 0
v -64 -768 0
v -128 -832 0
v -192 -832 0
v -192 -768 0
v -128 -768 0
v -192 -832 0
v -256 -832 0
v -256 -768 0
v -192 -768 0
v -256 -832 0
v -320 -832 0
v -320 -768 0
v -256 -768 0
v -320 -832 0
v -384 -832 0
v -384 -768 0
v -320 -768 0
v -384 -832 0
v -448 -832 0
v -448 -768 0
v -384 -768 0
v -448 -832 0
v -512 -832 0
v -512 -768 0
v -448 -768 0
v -512 -832 0
v -576 -832 0
v -576 -768 0
v -512 -768 0
v -576 -832 0
v -640 -832 0
v -640 -768 0
v -576 -768 0
v -640 -832 0
v -704 -832 0
v -704 -768 0
v -640 -768 0
v -704 -832 0
v -768 -832 0
v -768 -768 0
v -704 -768 0
v -768 -832 0
v -832 -832 0
v -832 -768 0
v -768 -768 0
v -832 -832 0
v -896 -832 0
v -896 -768 0
v -832 -768 0
v -896 -832 0
v -960 -832 0
v -960 -768 0
v -896 -768 0
v -960 -832 0
v -1024 -832 0
v -1024 -768 0
v -960 -768 0
v 0 -896 0
v -64 -896 0
v -64 -832 0
v 0 -832 0
v -64 -896 0
v -128 -896 0
v -128 -832 0
v -64 -832 0
v -128 -896 0
v -192 -896 0
v -192 -832 0
v -128 -832 0
v -192 -896 0
v -256 -896 0
v -256 -832 0
v -192 -832 0
v -256 -896 0
v -320 -896 0
v -320 -832 0
v -256 -832 0
v -320 -896 0
v -384 -896 0
v -384 -832 0
v -320 -832 0
v -384 -896 0
v -448 -896 0
v -448 -832 0
v -384 -832 0
v -448 -896 0
v -512 -896 0
v -512 -832 0
v -448 -832 0
v -512 -896 0
v -576 -896 0
v -576 -832 0
v -512 -832 0
v -576 -896 0
v -640 -896 0
v -640 -832 0
v -576 -832 0
v -640 -896 0
v -704 -896 0
v -704 -832 0
v -640 -832 0
v -704 -896 0
v -768 -896 0
v -768 -832 0
v -704 -832 0
v -768 -896 0
v -832 -896 0
v -832 -832 0
v -768 -832 0
v -832 -896 0
v -896 -896 0
v -896 -832 0
v -832 -832 0
v -896 -896 0
v -960 -896 0
v -960 -832 0
v -896 -832 0
v -960 -896 0
v -1024 -896 0
v -1024 -832 0
v -960 -832 0
v 0 -960 0
v -64 -960 0
v -64 -896 0
v 0 -896 0
v -64 -960 0
v -128 -960 0
v -128 -896 0
v -64 -896 0
v -128 -960 0
v -192 -960 0
v -192 -896 0
v -128 -896 0
v -192 -960 0
v -256 -960 0
v -256 -896 0
v -192 -896 0
v -256 -960 0
v -320 -960 0
v -320 -896 0
v -256 -896 0
v -320 -960 0
v -384 -960 0
v -384 -896 0
v -320 -896 0
v -384 -960 0
v -448 -960 0
v -448 -896 0
v -384 -896 0
v -448 -960 0
v -512 -960 0
v -512 -896 0
v -448 -896 0
v -512 -960 0
v -576 -960 0
v -576 -896 0
v -512 -896 0
v -576 -960 0
v -640 -960 0
v -640 -896 0
v -576 -896 0
v -640 -960 0
v -704 -960 0
v -704 -896 0
v -640 -896 0
v -704 -960 0
v -768 -960 0
v -768 -896 0
v -704 -896 0
v -768 -960 0
v -832 -960 0
v -832 -896 0
v -768 -896 0
v -832 -960 0
v -896 -960 0
v -896 -896 0
v -832 -896 0
v -896 -960 0
v -960 -960 0
v -960 -896 0
v -896 -896 0
v -960 -960 0
v -1024 -960 0
v -1024 -896 0
v -960 -896 0
v 0 -1024 0
v -64 -1024 0
v -64 -960 0
v 0 -960 0
v -64 -1024 0
v -128 -1024 0
v -128 -960 0
v -64 -960 0
v -128 -1024 0
v -192 -1024 0
v -192 -960 0
v -128 -960 0
v -192 -1024 0
v -256 -1024 0
v -256 -960 0
v -192 -960 0
v -256 -1024 0
v -320 -1024 0
v -320 -960 0
v -256 -960 0
v -320 -1024 0
v -384 -1024 0
v -384 -960 0
v -320 -960 0
v -384 -1024 0
v -448 -1024 0
v -448 -960 0
v -384 -960 0
v -448 -1024 0
v -512 -1024 0
v -512 -960 0
v -448 -960 0
v -512 -1024 0
v -576 -1024 0
v -576 -960 0
v -512 -960 0
v -576 -1024 0
v -640 -1024 0
v -640 -960 0
v -576 -960 0
v -640 -1024 0
v -704 -1024 0
v -704 -960 0
v -640 -960 0
v -704 -1024 0
v -768 -1024 0
v -768 -960 0
v -704 -960 0
v -768 -1024 0
v -832 -1024 0
v -832 -960 0
v -768 -960 0
v -832 -1024 0
v -896 -1024 0
v -896 -960 0
v -832 -960 0
v -896 -1024 0
v -960 -1024 0
v -960 -960 0
v -896 -960 0
v -960 -1024 0
v -1024 -1024 0
v -1024 -960 0
v -960 -960 0

# Texture cooridinates (Count = 20)
vt 0.2 0
vt 0.4 0
vt 0.4 0.3333333
vt 0.2 0.3333333
vt 0.6 0
vt 0.6 0.3333333
vt 0 0
vt 0 0.3333333
vt 0.4 0.6666666
vt 0.2 0.6666666
vt 0.6 0.6666666
vt 0.8 0.3333333
vt 0.8 0.6666666
vt 1 0.3333333
vt 1 0.6666666
vt 0.6 1
vt 0.4 1
vt 0.8 1
vt 0 0.6666666
vt 0.2 1

# Normal
vn 0 0 -1

# Mesh description
g map_mesh_0387

# Faces
f 1/1/1 2/2/1 3/3/1 4/4/1
f 5/2/1 6/5/1 7/6/1 8/3/1
f 9/7/1 10/1/1 11/4/1 12/8/1
f 13/1/1 14/2/1 15/3/1 16/4/1
f 17/1/1 18/2/1 19/3/1 20/4/1
f 21/2/1 22/5/1 23/6/1 24/3/1
f 25/7/1 26/1/1 27/4/1 28/8/1
f 29/1/1 30/2/1 31/3/1 32/4/1
f 33/1/1 34/2/1 35/3/1 36/4/1
f 37/2/1 38/5/1 39/6/1 40/3/1
f 41/4/1 42/3/1 43/9/1 44/10/1
f 45/3/1 46/6/1 47/11/1 48/9/1
f 49/3/1 50/6/1 51/11/1 52/9/1
f 53/3/1 54/6/1 55/11/1 56/9/1
f 57/6/1 58/12/1 59/13/1 60/11/1
f 61/4/1 62/3/1 63/9/1 64/10/1
f 65/3/1 66/6/1 67/11/1 68/9/1
f 69/3/1 70/6/1 71/11/1 72/9/1
f 73/3/1 74/6/1 75/11/1 76/9/1
f 77/6/1 78/12/1 79/13/1 80/11/1
f 81/4/1 82/3/1 83/9/1 84/10/1
f 85/12/1 86/14/1 87/15/1 88/13/1
f 89/9/1 90/11/1 91/16/1 92/17/1
f 93/12/1 94/14/1 95/15/1 96/13/1
f 97/11/1 98/13/1 99/18/1 100/16/1
f 101/12/1 102/14/1 103/15/1 104/13/1
f 105/12/1 106/14/1 107/15/1 108/13/1
f 109/9/1 110/11/1 111/16/1 112/17/1
f 113/12/1 114/14/1 115/15/1 116/13/1
f 117/11/1 118/13/1 119/18/1 120/16/1
f 121/12/1 122/14/1 123/15/1 124/13/1
f 125/12/1 126/14/1 127/15/1 128/13/1
f 129/12/1 130/14/1 131/15/1 132/13/1
f 133/9/1 134/11/1 135/16/1 136/17/1
f 137/12/1 138/14/1 139/15/1 140/13/1
f 141/11/1 142/13/1 143/18/1 144/16/1
f 145/12/1 146/14/1 147/15/1 148/13/1
f 149/12/1 150/14/1 151/15/1 152/13/1
f 153/9/1 154/11/1 155/16/1 156/17/1
f 157/12/1 158/14/1 159/15/1 160/13/1
f 161/11/1 162/13/1 163/18/1 164/16/1
f 165/12/1 166/14/1 167/15/1 168/13/1
f 169/12/1 170/14/1 171/15/1 172/13/1
f 173/12/1 174/14/1 175/15/1 176/13/1
f 177/9/1 178/11/1 179/16/1 180/17/1
f 181/12/1 182/14/1 183/15/1 184/13/1
f 185/11/1 186/13/1 187/18/1 188/16/1
f 189/12/1 190/14/1 191/15/1 192/13/1
f 193/12/1 194/14/1 195/15/1 196/13/1
f 197/9/1 198/11/1 199/16/1 200/17/1
f 201/12/1 202/14/1 203/15/1 204/13/1
f 205/11/1 206/13/1 207/18/1 208/16/1
f 209/12/1 210/14/1 211/15/1 212/13/1
f 213/12/1 214/14/1 215/15/1 216/13/1
f 217/12/1 218/14/1 219/15/1 220/13/1
f 221/9/1 222/11/1 223/16/1 224/17/1
f 225/12/1 226/14/1 227/15/1 228/13/1
f 229/11/1 230/13/1 231/18/1 232/16/1
f 233/12/1 234/14/1 235/15/1 236/13/1
f 237/12/1 238/14/1 239/15/1 240/13/1
f 241/9/1 242/11/1 243/16/1 244/17/1
f 245/12/1 246/14/1 247/15/1 248/13/1
f 249/11/1 250/13/1 251/18/1 252/16/1
f 253/12/1 254/14/1 255/15/1 256/13/1
f 257/12/1 258/14/1 259/15/1 260/13/1
f 261/8/1 262/4/1 263/10/1 264/19/1
f 265/12/1 266/14/1 267/15/1 268/13/1
f 269/9/1 270/11/1 271/16/1 272/17/1
f 273/12/1 274/14/1 275/15/1 276/13/1
f 277/11/1 278/13/1 279/18/1 280/16/1
f 281/12/1 282/14/1 283/15/1 284/13/1
f 285/8/1 286/4/1 287/10/1 288/19/1
f 289/8/1 290/4/1 291/10/1 292/19/1
f 293/12/1 294/14/1 295/15/1 296/13/1
f 297/9/1 298/11/1 299/16/1 300/17/1
f 301/12/1 302/14/1 303/15/1 304/13/1
f 305/11/1 306/13/1 307/18/1 308/16/1
f 309/12/1 310/14/1 311/15/1 312/13/1
f 313/8/1 314/4/1 315/10/1 316/19/1
f 317/8/1 318/4/1 319/10/1 320/19/1
f 321/12/1 322/14/1 323/15/1 324/13/1
f 325/10/1 326/9/1 327/17/1 328/20/1
f 329/10/1 330/9/1 331/17/1 332/20/1
f 333/10/1 334/9/1 335/17/1 336/20/1
f 337/10/1 338/9/1 339/17/1 340/20/1
f 341/10/1 342/9/1 343/17/1 344/20/1
f 345/10/1 346/9/1 347/17/1 348/20/1
f 349/10/1 350/9/1 351/17/1 352/20/1
f 353/10/1 354/9/1 355/17/1 356/20/1
f 357/10/1 358/9/1 359/17/1 360/20/1
f 361/10/1 362/9/1 363/17/1 364/20/1
f 365/10/1 366/9/1 367/17/1 368/20/1
f 369/10/1 370/9/1 371/17/1 372/20/1
f 373/10/1 374/9/1 375/17/1 376/20/1
f 377/10/1 378/9/1 379/17/1 380/20/1
f 381/10/1 382/9/1 383/17/1 384/20/1
f 385/10/1 386/9/1 387/17/1 388/20/1
f 389/12/1 390/14/1 391/15/1 392/13/1
f 393/12/1 394/14/1 395/15/1 396/13/1
f 397/12/1 398/14/1 399/15/1 400/13/1
f 401/12/1 402/14/1 403/15/1 404/13/1
f 405/12/1 406/14/1 407/15/1 408/13/1
f 409/12/1 410/14/1 411/15/1 412/13/1
f 413/12/1 414/14/1 415/15/1 416/13/1
f 417/12/1 418/14/1 419/15/1 420/13/1
f 421/12/1 422/14/1 423/15/1 424/13/1
f 425/12/1 426/14/1 427/15/1 428/13/1
f 429/12/1 430/14/1 431/15/1 432/13/1
f 433/12/1 434/14/1 435/15/1 436/13/1
f 437/12/1 438/14/1 439/15/1 440/13/1
f 441/12/1 442/14/1 443/15/1 444/13/1
f 445/12/1 446/14/1 447/15/1 448/13/1
f 449/12/1 450/14/1 451/15/1 452/13/1
f 453/12/1 454/14/1 455/15/1 456/13/1
f 457/12/1 458/14/1 459/15/1 460/13/1
f 461/12/1 462/14/1 463/15/1 464/13/1
f 465/12/1 466/14/1 467/15/1 468/13/1
f 469/12/1 470/14/1 471/15/1 472/13/1
f 473/12/1 474/14/1 475/15/1 476/13/1
f 477/12/1 478/14/1 479/15/1 480/13/1
f 481/12/1 482/14/1 483/15/1 484/13/1
f 485/12/1 486/14/1 487/15/1 488/13/1
f 489/12/1 490/14/1 491/15/1 492/13/1
f 493/12/1 494/14/1 495/15/1 496/13/1
f 497/12/1 498/14/1 499/15/1 500/13/1
f 501/12/1 502/14/1 503/15/1 504/13/1
f 505/12/1 506/14/1 507/15/1 508/13/1
f 509/12/1 510/14/1 511/15/1 512/13/1
f 513/12/1 514/14/1 515/15/1 516/13/1

