# Tiled2Unity generated file. Do not modify by hand.
# Wavefront file for 'map_mesh_0187.obj'

# Vertices (Count = 12)
v 0 -64 0
v -64 -64 0
v -64 0 0
v 0 0 0
v -64 -64 0
v -128 -64 0
v -128 0 0
v -64 0 0
v -128 -64 0
v -192 -64 0
v -192 0 0
v -128 0 0

# Texture cooridinates (Count = 8)
vt 0.3703704 0.4444444
vt 0.2962963 0.4444444
vt 0.2962963 0.3333333
vt 0.3703704 0.3333333
vt 0.2222222 0.4444444
vt 0.2222222 0.3333333
vt 0.1481481 0.4444444
vt 0.1481481 0.3333333

# Normal
vn 0 0 -1

# Mesh description
g map_mesh_0187

# Faces
f 1/1/1 2/2/1 3/3/1 4/4/1
f 5/2/1 6/5/1 7/6/1 8/3/1
f 9/5/1 10/7/1 11/8/1 12/6/1

