# Tiled2Unity generated file. Do not modify by hand.
# Wavefront file for 'map_mesh_0190.obj'

# Vertices (Count = 312)
v -256 -640 0
v -320 -640 0
v -320 -576 0
v -256 -576 0
v -320 -640 0
v -384 -640 0
v -384 -576 0
v -320 -576 0
v -384 -640 0
v -448 -640 0
v -448 -576 0
v -384 -576 0
v -448 -640 0
v -512 -640 0
v -512 -576 0
v -448 -576 0
v -512 -640 0
v -576 -640 0
v -576 -576 0
v -512 -576 0
v -576 -640 0
v -640 -640 0
v -640 -576 0
v -576 -576 0
v -640 -640 0
v -704 -640 0
v -704 -576 0
v -640 -576 0
v -704 -640 0
v -768 -640 0
v -768 -576 0
v -704 -576 0
v -768 -640 0
v -832 -640 0
v -832 -576 0
v -768 -576 0
v -832 -640 0
v -896 -640 0
v -896 -576 0
v -832 -576 0
v -896 -640 0
v -960 -640 0
v -960 -576 0
v -896 -576 0
v -960 -640 0
v -1024 -640 0
v -1024 -576 0
v -960 -576 0
v -256 -704 0
v -320 -704 0
v -320 -640 0
v -256 -640 0
v -320 -704 0
v -384 -704 0
v -384 -640 0
v -320 -640 0
v -384 -704 0
v -448 -704 0
v -448 -640 0
v -384 -640 0
v -448 -704 0
v -512 -704 0
v -512 -640 0
v -448 -640 0
v -512 -704 0
v -576 -704 0
v -576 -640 0
v -512 -640 0
v -576 -704 0
v -640 -704 0
v -640 -640 0
v -576 -640 0
v -640 -704 0
v -704 -704 0
v -704 -640 0
v -640 -640 0
v -704 -704 0
v -768 -704 0
v -768 -640 0
v -704 -640 0
v -768 -704 0
v -832 -704 0
v -832 -640 0
v -768 -640 0
v -832 -704 0
v -896 -704 0
v -896 -640 0
v -832 -640 0
v -896 -704 0
v -960 -704 0
v -960 -640 0
v -896 -640 0
v -960 -704 0
v -1024 -704 0
v -1024 -640 0
v -960 -640 0
v -256 -768 0
v -320 -768 0
v -320 -704 0
v -256 -704 0
v -320 -768 0
v -384 -768 0
v -384 -704 0
v -320 -704 0
v -384 -768 0
v -448 -768 0
v -448 -704 0
v -384 -704 0
v -448 -768 0
v -512 -768 0
v -512 -704 0
v -448 -704 0
v -512 -768 0
v -576 -768 0
v -576 -704 0
v -512 -704 0
v -576 -768 0
v -640 -768 0
v -640 -704 0
v -576 -704 0
v -640 -768 0
v -704 -768 0
v -704 -704 0
v -640 -704 0
v -704 -768 0
v -768 -768 0
v -768 -704 0
v -704 -704 0
v -768 -768 0
v -832 -768 0
v -832 -704 0
v -768 -704 0
v -832 -768 0
v -896 -768 0
v -896 -704 0
v -832 -704 0
v -896 -768 0
v -960 -768 0
v -960 -704 0
v -896 -704 0
v -960 -768 0
v -1024 -768 0
v -1024 -704 0
v -960 -704 0
v -256 -832 0
v -320 -832 0
v -320 -768 0
v -256 -768 0
v -320 -832 0
v -384 -832 0
v -384 -768 0
v -320 -768 0
v -384 -832 0
v -448 -832 0
v -448 -768 0
v -384 -768 0
v -448 -832 0
v -512 -832 0
v -512 -768 0
v -448 -768 0
v -512 -832 0
v -576 -832 0
v -576 -768 0
v -512 -768 0
v -576 -832 0
v -640 -832 0
v -640 -768 0
v -576 -768 0
v -640 -832 0
v -704 -832 0
v -704 -768 0
v -640 -768 0
v -704 -832 0
v -768 -832 0
v -768 -768 0
v -704 -768 0
v -768 -832 0
v -832 -832 0
v -832 -768 0
v -768 -768 0
v -832 -832 0
v -896 -832 0
v -896 -768 0
v -832 -768 0
v -896 -832 0
v -960 -832 0
v -960 -768 0
v -896 -768 0
v -960 -832 0
v -1024 -832 0
v -1024 -768 0
v -960 -768 0
v -320 -896 0
v -384 -896 0
v -384 -832 0
v -320 -832 0
v -384 -896 0
v -448 -896 0
v -448 -832 0
v -384 -832 0
v -448 -896 0
v -512 -896 0
v -512 -832 0
v -448 -832 0
v -512 -896 0
v -576 -896 0
v -576 -832 0
v -512 -832 0
v -576 -896 0
v -640 -896 0
v -640 -832 0
v -576 -832 0
v -640 -896 0
v -704 -896 0
v -704 -832 0
v -640 -832 0
v -704 -896 0
v -768 -896 0
v -768 -832 0
v -704 -832 0
v -768 -896 0
v -832 -896 0
v -832 -832 0
v -768 -832 0
v -832 -896 0
v -896 -896 0
v -896 -832 0
v -832 -832 0
v -896 -896 0
v -960 -896 0
v -960 -832 0
v -896 -832 0
v -960 -896 0
v -1024 -896 0
v -1024 -832 0
v -960 -832 0
v -384 -960 0
v -448 -960 0
v -448 -896 0
v -384 -896 0
v -448 -960 0
v -512 -960 0
v -512 -896 0
v -448 -896 0
v -512 -960 0
v -576 -960 0
v -576 -896 0
v -512 -896 0
v -576 -960 0
v -640 -960 0
v -640 -896 0
v -576 -896 0
v -640 -960 0
v -704 -960 0
v -704 -896 0
v -640 -896 0
v -704 -960 0
v -768 -960 0
v -768 -896 0
v -704 -896 0
v -768 -960 0
v -832 -960 0
v -832 -896 0
v -768 -896 0
v -832 -960 0
v -896 -960 0
v -896 -896 0
v -832 -896 0
v -896 -960 0
v -960 -960 0
v -960 -896 0
v -896 -896 0
v -960 -960 0
v -1024 -960 0
v -1024 -896 0
v -960 -896 0
v -448 -1024 0
v -512 -1024 0
v -512 -960 0
v -448 -960 0
v -512 -1024 0
v -576 -1024 0
v -576 -960 0
v -512 -960 0
v -576 -1024 0
v -640 -1024 0
v -640 -960 0
v -576 -960 0
v -640 -1024 0
v -704 -1024 0
v -704 -960 0
v -640 -960 0
v -704 -1024 0
v -768 -1024 0
v -768 -960 0
v -704 -960 0
v -768 -1024 0
v -832 -1024 0
v -832 -960 0
v -768 -960 0
v -832 -1024 0
v -896 -1024 0
v -896 -960 0
v -832 -960 0
v -896 -1024 0
v -960 -1024 0
v -960 -960 0
v -896 -960 0
v -960 -1024 0
v -1024 -1024 0
v -1024 -960 0
v -960 -960 0

# Texture cooridinates (Count = 6)
vt 0.5 0
vt 1 0
vt 1 1
vt 0.5 1
vt 0 0
vt 0 1

# Normal
vn 0 0 -1

# Mesh description
g map_mesh_0190

# Faces
f 1/1/1 2/2/1 3/3/1 4/4/1
f 5/1/1 6/2/1 7/3/1 8/4/1
f 9/1/1 10/2/1 11/3/1 12/4/1
f 13/1/1 14/2/1 15/3/1 16/4/1
f 17/1/1 18/2/1 19/3/1 20/4/1
f 21/1/1 22/2/1 23/3/1 24/4/1
f 25/1/1 26/2/1 27/3/1 28/4/1
f 29/1/1 30/2/1 31/3/1 32/4/1
f 33/1/1 34/2/1 35/3/1 36/4/1
f 37/1/1 38/2/1 39/3/1 40/4/1
f 41/1/1 42/2/1 43/3/1 44/4/1
f 45/1/1 46/2/1 47/3/1 48/4/1
f 49/1/1 50/2/1 51/3/1 52/4/1
f 53/5/1 54/1/1 55/4/1 56/6/1
f 57/5/1 58/1/1 59/4/1 60/6/1
f 61/5/1 62/1/1 63/4/1 64/6/1
f 65/5/1 66/1/1 67/4/1 68/6/1
f 69/5/1 70/1/1 71/4/1 72/6/1
f 73/5/1 74/1/1 75/4/1 76/6/1
f 77/5/1 78/1/1 79/4/1 80/6/1
f 81/5/1 82/1/1 83/4/1 84/6/1
f 85/5/1 86/1/1 87/4/1 88/6/1
f 89/5/1 90/1/1 91/4/1 92/6/1
f 93/5/1 94/1/1 95/4/1 96/6/1
f 97/1/1 98/2/1 99/3/1 100/4/1
f 101/5/1 102/1/1 103/4/1 104/6/1
f 105/5/1 106/1/1 107/4/1 108/6/1
f 109/5/1 110/1/1 111/4/1 112/6/1
f 113/5/1 114/1/1 115/4/1 116/6/1
f 117/5/1 118/1/1 119/4/1 120/6/1
f 121/5/1 122/1/1 123/4/1 124/6/1
f 125/5/1 126/1/1 127/4/1 128/6/1
f 129/5/1 130/1/1 131/4/1 132/6/1
f 133/5/1 134/1/1 135/4/1 136/6/1
f 137/5/1 138/1/1 139/4/1 140/6/1
f 141/5/1 142/1/1 143/4/1 144/6/1
f 145/1/1 146/2/1 147/3/1 148/4/1
f 149/1/1 150/2/1 151/3/1 152/4/1
f 153/5/1 154/1/1 155/4/1 156/6/1
f 157/5/1 158/1/1 159/4/1 160/6/1
f 161/5/1 162/1/1 163/4/1 164/6/1
f 165/5/1 166/1/1 167/4/1 168/6/1
f 169/5/1 170/1/1 171/4/1 172/6/1
f 173/5/1 174/1/1 175/4/1 176/6/1
f 177/5/1 178/1/1 179/4/1 180/6/1
f 181/5/1 182/1/1 183/4/1 184/6/1
f 185/5/1 186/1/1 187/4/1 188/6/1
f 189/5/1 190/1/1 191/4/1 192/6/1
f 193/1/1 194/2/1 195/3/1 196/4/1
f 197/1/1 198/2/1 199/3/1 200/4/1
f 201/5/1 202/1/1 203/4/1 204/6/1
f 205/5/1 206/1/1 207/4/1 208/6/1
f 209/5/1 210/1/1 211/4/1 212/6/1
f 213/5/1 214/1/1 215/4/1 216/6/1
f 217/5/1 218/1/1 219/4/1 220/6/1
f 221/5/1 222/1/1 223/4/1 224/6/1
f 225/5/1 226/1/1 227/4/1 228/6/1
f 229/5/1 230/1/1 231/4/1 232/6/1
f 233/5/1 234/1/1 235/4/1 236/6/1
f 237/1/1 238/2/1 239/3/1 240/4/1
f 241/1/1 242/2/1 243/3/1 244/4/1
f 245/5/1 246/1/1 247/4/1 248/6/1
f 249/5/1 250/1/1 251/4/1 252/6/1
f 253/5/1 254/1/1 255/4/1 256/6/1
f 257/5/1 258/1/1 259/4/1 260/6/1
f 261/5/1 262/1/1 263/4/1 264/6/1
f 265/5/1 266/1/1 267/4/1 268/6/1
f 269/5/1 270/1/1 271/4/1 272/6/1
f 273/5/1 274/1/1 275/4/1 276/6/1
f 277/1/1 278/2/1 279/3/1 280/4/1
f 281/1/1 282/2/1 283/3/1 284/4/1
f 285/5/1 286/1/1 287/4/1 288/6/1
f 289/5/1 290/1/1 291/4/1 292/6/1
f 293/5/1 294/1/1 295/4/1 296/6/1
f 297/5/1 298/1/1 299/4/1 300/6/1
f 301/5/1 302/1/1 303/4/1 304/6/1
f 305/5/1 306/1/1 307/4/1 308/6/1
f 309/5/1 310/1/1 311/4/1 312/6/1

