# Tiled2Unity generated file. Do not modify by hand.
# Wavefront file for 'map_mesh_0454.obj'

# Vertices (Count = 56)
v -384 -320 0
v -448 -320 0
v -448 -256 0
v -384 -256 0
v -384 -384 0
v -448 -384 0
v -448 -320 0
v -384 -320 0
v -960 -384 0
v -1024 -384 0
v -1024 -320 0
v -960 -320 0
v -384 -448 0
v -448 -448 0
v -448 -384 0
v -384 -384 0
v -960 -448 0
v -1024 -448 0
v -1024 -384 0
v -960 -384 0
v 0 -512 0
v -64 -512 0
v -64 -448 0
v 0 -448 0
v -64 -512 0
v -128 -512 0
v -128 -448 0
v -64 -448 0
v -128 -512 0
v -192 -512 0
v -192 -448 0
v -128 -448 0
v -192 -512 0
v -256 -512 0
v -256 -448 0
v -192 -448 0
v -256 -512 0
v -320 -512 0
v -320 -448 0
v -256 -448 0
v -320 -512 0
v -384 -512 0
v -384 -448 0
v -320 -448 0
v -384 -512 0
v -448 -512 0
v -448 -448 0
v -384 -448 0
v -960 -512 0
v -1024 -512 0
v -1024 -448 0
v -960 -448 0
v -960 -576 0
v -1024 -576 0
v -1024 -512 0
v -960 -512 0

# Texture cooridinates (Count = 18)
vt 0.75 0.25
vt 1 0.25
vt 1 0.5
vt 0.75 0.5
vt 1 0.75
vt 0.75 0.75
vt 0 0.25
vt 0.25 0.25
vt 0.25 0.5
vt 0 0.5
vt 0.25 0.75
vt 0 0.75
vt 0.25 0
vt 0.5 0
vt 0.5 0.25
vt 0.75 0
vt 1 0
vt 0 0

# Normal
vn 0 0 -1

# Mesh description
g map_mesh_0454

# Faces
f 1/1/1 2/2/1 3/3/1 4/4/1
f 5/4/1 6/3/1 7/5/1 8/6/1
f 9/7/1 10/8/1 11/9/1 12/10/1
f 13/1/1 14/2/1 15/3/1 16/4/1
f 17/10/1 18/9/1 19/11/1 20/12/1
f 21/13/1 22/14/1 23/15/1 24/8/1
f 25/14/1 26/16/1 27/1/1 28/15/1
f 29/13/1 30/14/1 31/15/1 32/8/1
f 33/14/1 34/16/1 35/1/1 36/15/1
f 37/13/1 38/14/1 39/15/1 40/8/1
f 41/14/1 42/16/1 43/1/1 44/15/1
f 45/16/1 46/17/1 47/2/1 48/1/1
f 49/7/1 50/8/1 51/9/1 52/10/1
f 53/18/1 54/13/1 55/8/1 56/7/1

