# Tiled2Unity generated file. Do not modify by hand.
# Wavefront file for 'map_mesh_0159.obj'

# Vertices (Count = 124)
v 0 -384 0
v -64 -384 0
v -64 -320 0
v 0 -320 0
v 0 -448 0
v -64 -448 0
v -64 -384 0
v 0 -384 0
v -64 -448 0
v -128 -448 0
v -128 -384 0
v -64 -384 0
v 0 -512 0
v -64 -512 0
v -64 -448 0
v 0 -448 0
v -64 -512 0
v -128 -512 0
v -128 -448 0
v -64 -448 0
v 0 -576 0
v -64 -576 0
v -64 -512 0
v 0 -512 0
v -64 -576 0
v -128 -576 0
v -128 -512 0
v -64 -512 0
v 0 -640 0
v -64 -640 0
v -64 -576 0
v 0 -576 0
v -64 -640 0
v -128 -640 0
v -128 -576 0
v -64 -576 0
v -128 -640 0
v -192 -640 0
v -192 -576 0
v -128 -576 0
v 0 -704 0
v -64 -704 0
v -64 -640 0
v 0 -640 0
v -64 -704 0
v -128 -704 0
v -128 -640 0
v -64 -640 0
v -128 -704 0
v -192 -704 0
v -192 -640 0
v -128 -640 0
v 0 -768 0
v -64 -768 0
v -64 -704 0
v 0 -704 0
v -64 -768 0
v -128 -768 0
v -128 -704 0
v -64 -704 0
v -128 -768 0
v -192 -768 0
v -192 -704 0
v -128 -704 0
v 0 -832 0
v -64 -832 0
v -64 -768 0
v 0 -768 0
v -64 -832 0
v -128 -832 0
v -128 -768 0
v -64 -768 0
v -128 -832 0
v -192 -832 0
v -192 -768 0
v -128 -768 0
v 0 -896 0
v -64 -896 0
v -64 -832 0
v 0 -832 0
v -64 -896 0
v -128 -896 0
v -128 -832 0
v -64 -832 0
v -128 -896 0
v -192 -896 0
v -192 -832 0
v -128 -832 0
v -192 -896 0
v -256 -896 0
v -256 -832 0
v -192 -832 0
v 0 -960 0
v -64 -960 0
v -64 -896 0
v 0 -896 0
v -64 -960 0
v -128 -960 0
v -128 -896 0
v -64 -896 0
v -128 -960 0
v -192 -960 0
v -192 -896 0
v -128 -896 0
v -192 -960 0
v -256 -960 0
v -256 -896 0
v -192 -896 0
v 0 -1024 0
v -64 -1024 0
v -64 -960 0
v 0 -960 0
v -64 -1024 0
v -128 -1024 0
v -128 -960 0
v -64 -960 0
v -128 -1024 0
v -192 -1024 0
v -192 -960 0
v -128 -960 0
v -192 -1024 0
v -256 -1024 0
v -256 -960 0
v -192 -960 0

# Texture cooridinates (Count = 6)
vt 0.5 0
vt 1 0
vt 1 1
vt 0.5 1
vt 0 0
vt 0 1

# Normal
vn 0 0 -1

# Mesh description
g map_mesh_0159

# Faces
f 1/1/1 2/2/1 3/3/1 4/4/1
f 5/1/1 6/2/1 7/3/1 8/4/1
f 9/1/1 10/2/1 11/3/1 12/4/1
f 13/5/1 14/1/1 15/4/1 16/6/1
f 17/1/1 18/2/1 19/3/1 20/4/1
f 21/5/1 22/1/1 23/4/1 24/6/1
f 25/1/1 26/2/1 27/3/1 28/4/1
f 29/5/1 30/1/1 31/4/1 32/6/1
f 33/1/1 34/2/1 35/3/1 36/4/1
f 37/1/1 38/2/1 39/3/1 40/4/1
f 41/5/1 42/1/1 43/4/1 44/6/1
f 45/5/1 46/1/1 47/4/1 48/6/1
f 49/1/1 50/2/1 51/3/1 52/4/1
f 53/5/1 54/1/1 55/4/1 56/6/1
f 57/5/1 58/1/1 59/4/1 60/6/1
f 61/1/1 62/2/1 63/3/1 64/4/1
f 65/5/1 66/1/1 67/4/1 68/6/1
f 69/5/1 70/1/1 71/4/1 72/6/1
f 73/1/1 74/2/1 75/3/1 76/4/1
f 77/5/1 78/1/1 79/4/1 80/6/1
f 81/5/1 82/1/1 83/4/1 84/6/1
f 85/1/1 86/2/1 87/3/1 88/4/1
f 89/1/1 90/2/1 91/3/1 92/4/1
f 93/5/1 94/1/1 95/4/1 96/6/1
f 97/5/1 98/1/1 99/4/1 100/6/1
f 101/5/1 102/1/1 103/4/1 104/6/1
f 105/1/1 106/2/1 107/3/1 108/4/1
f 109/5/1 110/1/1 111/4/1 112/6/1
f 113/5/1 114/1/1 115/4/1 116/6/1
f 117/5/1 118/1/1 119/4/1 120/6/1
f 121/1/1 122/2/1 123/3/1 124/4/1

