# Tiled2Unity generated file. Do not modify by hand.
# Wavefront file for 'map_mesh_0243.obj'

# Vertices (Count = 608)
v -768 -64 0
v -832 -64 0
v -832 0 0
v -768 0 0
v -832 -64 0
v -896 -64 0
v -896 0 0
v -832 0 0
v -896 -64 0
v -960 -64 0
v -960 0 0
v -896 0 0
v -960 -64 0
v -1024 -64 0
v -1024 0 0
v -960 0 0
v -768 -128 0
v -832 -128 0
v -832 -64 0
v -768 -64 0
v -832 -128 0
v -896 -128 0
v -896 -64 0
v -832 -64 0
v -896 -128 0
v -960 -128 0
v -960 -64 0
v -896 -64 0
v -960 -128 0
v -1024 -128 0
v -1024 -64 0
v -960 -64 0
v 0 -192 0
v -64 -192 0
v -64 -128 0
v 0 -128 0
v -64 -192 0
v -128 -192 0
v -128 -128 0
v -64 -128 0
v -128 -192 0
v -192 -192 0
v -192 -128 0
v -128 -128 0
v -192 -192 0
v -256 -192 0
v -256 -128 0
v -192 -128 0
v -256 -192 0
v -320 -192 0
v -320 -128 0
v -256 -128 0
v -320 -192 0
v -384 -192 0
v -384 -128 0
v -320 -128 0
v -384 -192 0
v -448 -192 0
v -448 -128 0
v -384 -128 0
v -448 -192 0
v -512 -192 0
v -512 -128 0
v -448 -128 0
v -512 -192 0
v -576 -192 0
v -576 -128 0
v -512 -128 0
v -576 -192 0
v -640 -192 0
v -640 -128 0
v -576 -128 0
v -640 -192 0
v -704 -192 0
v -704 -128 0
v -640 -128 0
v -704 -192 0
v -768 -192 0
v -768 -128 0
v -704 -128 0
v -768 -192 0
v -832 -192 0
v -832 -128 0
v -768 -128 0
v -832 -192 0
v -896 -192 0
v -896 -128 0
v -832 -128 0
v -896 -192 0
v -960 -192 0
v -960 -128 0
v -896 -128 0
v -960 -192 0
v -1024 -192 0
v -1024 -128 0
v -960 -128 0
v 0 -256 0
v -64 -256 0
v -64 -192 0
v 0 -192 0
v -64 -256 0
v -128 -256 0
v -128 -192 0
v -64 -192 0
v -128 -256 0
v -192 -256 0
v -192 -192 0
v -128 -192 0
v -192 -256 0
v -256 -256 0
v -256 -192 0
v -192 -192 0
v -256 -256 0
v -320 -256 0
v -320 -192 0
v -256 -192 0
v -320 -256 0
v -384 -256 0
v -384 -192 0
v -320 -192 0
v -384 -256 0
v -448 -256 0
v -448 -192 0
v -384 -192 0
v -448 -256 0
v -512 -256 0
v -512 -192 0
v -448 -192 0
v -512 -256 0
v -576 -256 0
v -576 -192 0
v -512 -192 0
v -576 -256 0
v -640 -256 0
v -640 -192 0
v -576 -192 0
v -640 -256 0
v -704 -256 0
v -704 -192 0
v -640 -192 0
v -704 -256 0
v -768 -256 0
v -768 -192 0
v -704 -192 0
v -768 -256 0
v -832 -256 0
v -832 -192 0
v -768 -192 0
v -832 -256 0
v -896 -256 0
v -896 -192 0
v -832 -192 0
v -896 -256 0
v -960 -256 0
v -960 -192 0
v -896 -192 0
v -960 -256 0
v -1024 -256 0
v -1024 -192 0
v -960 -192 0
v 0 -320 0
v -64 -320 0
v -64 -256 0
v 0 -256 0
v -64 -320 0
v -128 -320 0
v -128 -256 0
v -64 -256 0
v -128 -320 0
v -192 -320 0
v -192 -256 0
v -128 -256 0
v -192 -320 0
v -256 -320 0
v -256 -256 0
v -192 -256 0
v -256 -320 0
v -320 -320 0
v -320 -256 0
v -256 -256 0
v -320 -320 0
v -384 -320 0
v -384 -256 0
v -320 -256 0
v -384 -320 0
v -448 -320 0
v -448 -256 0
v -384 -256 0
v -448 -320 0
v -512 -320 0
v -512 -256 0
v -448 -256 0
v -512 -320 0
v -576 -320 0
v -576 -256 0
v -512 -256 0
v -576 -320 0
v -640 -320 0
v -640 -256 0
v -576 -256 0
v -640 -320 0
v -704 -320 0
v -704 -256 0
v -640 -256 0
v -704 -320 0
v -768 -320 0
v -768 -256 0
v -704 -256 0
v -768 -320 0
v -832 -320 0
v -832 -256 0
v -768 -256 0
v -832 -320 0
v -896 -320 0
v -896 -256 0
v -832 -256 0
v -896 -320 0
v -960 -320 0
v -960 -256 0
v -896 -256 0
v -960 -320 0
v -1024 -320 0
v -1024 -256 0
v -960 -256 0
v 0 -384 0
v -64 -384 0
v -64 -320 0
v 0 -320 0
v -64 -384 0
v -128 -384 0
v -128 -320 0
v -64 -320 0
v -128 -384 0
v -192 -384 0
v -192 -320 0
v -128 -320 0
v -192 -384 0
v -256 -384 0
v -256 -320 0
v -192 -320 0
v -256 -384 0
v -320 -384 0
v -320 -320 0
v -256 -320 0
v -320 -384 0
v -384 -384 0
v -384 -320 0
v -320 -320 0
v -384 -384 0
v -448 -384 0
v -448 -320 0
v -384 -320 0
v -448 -384 0
v -512 -384 0
v -512 -320 0
v -448 -320 0
v -512 -384 0
v -576 -384 0
v -576 -320 0
v -512 -320 0
v -576 -384 0
v -640 -384 0
v -640 -320 0
v -576 -320 0
v -640 -384 0
v -704 -384 0
v -704 -320 0
v -640 -320 0
v -704 -384 0
v -768 -384 0
v -768 -320 0
v -704 -320 0
v -768 -384 0
v -832 -384 0
v -832 -320 0
v -768 -320 0
v -832 -384 0
v -896 -384 0
v -896 -320 0
v -832 -320 0
v -896 -384 0
v -960 -384 0
v -960 -320 0
v -896 -320 0
v -960 -384 0
v -1024 -384 0
v -1024 -320 0
v -960 -320 0
v 0 -448 0
v -64 -448 0
v -64 -384 0
v 0 -384 0
v -64 -448 0
v -128 -448 0
v -128 -384 0
v -64 -384 0
v -128 -448 0
v -192 -448 0
v -192 -384 0
v -128 -384 0
v -192 -448 0
v -256 -448 0
v -256 -384 0
v -192 -384 0
v -256 -448 0
v -320 -448 0
v -320 -384 0
v -256 -384 0
v -320 -448 0
v -384 -448 0
v -384 -384 0
v -320 -384 0
v -384 -448 0
v -448 -448 0
v -448 -384 0
v -384 -384 0
v -448 -448 0
v -512 -448 0
v -512 -384 0
v -448 -384 0
v -512 -448 0
v -576 -448 0
v -576 -384 0
v -512 -384 0
v -576 -448 0
v -640 -448 0
v -640 -384 0
v -576 -384 0
v -640 -448 0
v -704 -448 0
v -704 -384 0
v -640 -384 0
v -704 -448 0
v -768 -448 0
v -768 -384 0
v -704 -384 0
v -768 -448 0
v -832 -448 0
v -832 -384 0
v -768 -384 0
v -832 -448 0
v -896 -448 0
v -896 -384 0
v -832 -384 0
v -896 -448 0
v -960 -448 0
v -960 -384 0
v -896 -384 0
v -960 -448 0
v -1024 -448 0
v -1024 -384 0
v -960 -384 0
v 0 -512 0
v -64 -512 0
v -64 -448 0
v 0 -448 0
v -64 -512 0
v -128 -512 0
v -128 -448 0
v -64 -448 0
v -128 -512 0
v -192 -512 0
v -192 -448 0
v -128 -448 0
v -192 -512 0
v -256 -512 0
v -256 -448 0
v -192 -448 0
v -256 -512 0
v -320 -512 0
v -320 -448 0
v -256 -448 0
v -320 -512 0
v -384 -512 0
v -384 -448 0
v -320 -448 0
v -384 -512 0
v -448 -512 0
v -448 -448 0
v -384 -448 0
v -448 -512 0
v -512 -512 0
v -512 -448 0
v -448 -448 0
v -512 -512 0
v -576 -512 0
v -576 -448 0
v -512 -448 0
v -576 -512 0
v -640 -512 0
v -640 -448 0
v -576 -448 0
v -640 -512 0
v -704 -512 0
v -704 -448 0
v -640 -448 0
v -704 -512 0
v -768 -512 0
v -768 -448 0
v -704 -448 0
v -768 -512 0
v -832 -512 0
v -832 -448 0
v -768 -448 0
v -832 -512 0
v -896 -512 0
v -896 -448 0
v -832 -448 0
v -896 -512 0
v -960 -512 0
v -960 -448 0
v -896 -448 0
v -960 -512 0
v -1024 -512 0
v -1024 -448 0
v -960 -448 0
v 0 -576 0
v -64 -576 0
v -64 -512 0
v 0 -512 0
v -64 -576 0
v -128 -576 0
v -128 -512 0
v -64 -512 0
v -128 -576 0
v -192 -576 0
v -192 -512 0
v -128 -512 0
v -192 -576 0
v -256 -576 0
v -256 -512 0
v -192 -512 0
v -256 -576 0
v -320 -576 0
v -320 -512 0
v -256 -512 0
v -320 -576 0
v -384 -576 0
v -384 -512 0
v -320 -512 0
v -384 -576 0
v -448 -576 0
v -448 -512 0
v -384 -512 0
v -448 -576 0
v -512 -576 0
v -512 -512 0
v -448 -512 0
v -512 -576 0
v -576 -576 0
v -576 -512 0
v -512 -512 0
v -576 -576 0
v -640 -576 0
v -640 -512 0
v -576 -512 0
v -640 -576 0
v -704 -576 0
v -704 -512 0
v -640 -512 0
v -704 -576 0
v -768 -576 0
v -768 -512 0
v -704 -512 0
v -768 -576 0
v -832 -576 0
v -832 -512 0
v -768 -512 0
v -832 -576 0
v -896 -576 0
v -896 -512 0
v -832 -512 0
v -896 -576 0
v -960 -576 0
v -960 -512 0
v -896 -512 0
v -960 -576 0
v -1024 -576 0
v -1024 -512 0
v -960 -512 0
v 0 -640 0
v -64 -640 0
v -64 -576 0
v 0 -576 0
v -64 -640 0
v -128 -640 0
v -128 -576 0
v -64 -576 0
v -128 -640 0
v -192 -640 0
v -192 -576 0
v -128 -576 0
v -192 -640 0
v -256 -640 0
v -256 -576 0
v -192 -576 0
v -256 -640 0
v -320 -640 0
v -320 -576 0
v -256 -576 0
v -320 -640 0
v -384 -640 0
v -384 -576 0
v -320 -576 0
v -384 -640 0
v -448 -640 0
v -448 -576 0
v -384 -576 0
v -448 -640 0
v -512 -640 0
v -512 -576 0
v -448 -576 0
v -512 -640 0
v -576 -640 0
v -576 -576 0
v -512 -576 0
v -576 -640 0
v -640 -640 0
v -640 -576 0
v -576 -576 0
v -640 -640 0
v -704 -640 0
v -704 -576 0
v -640 -576 0
v -704 -640 0
v -768 -640 0
v -768 -576 0
v -704 -576 0
v -768 -640 0
v -832 -640 0
v -832 -576 0
v -768 -576 0
v -832 -640 0
v -896 -640 0
v -896 -576 0
v -832 -576 0
v -896 -640 0
v -960 -640 0
v -960 -576 0
v -896 -576 0
v -960 -640 0
v -1024 -640 0
v -1024 -576 0
v -960 -576 0
v 0 -704 0
v -64 -704 0
v -64 -640 0
v 0 -640 0
v -64 -704 0
v -128 -704 0
v -128 -640 0
v -64 -640 0
v -128 -704 0
v -192 -704 0
v -192 -640 0
v -128 -640 0
v -192 -704 0
v -256 -704 0
v -256 -640 0
v -192 -640 0
v -256 -704 0
v -320 -704 0
v -320 -640 0
v -256 -640 0
v -320 -704 0
v -384 -704 0
v -384 -640 0
v -320 -640 0
v -384 -704 0
v -448 -704 0
v -448 -640 0
v -384 -640 0
v -448 -704 0
v -512 -704 0
v -512 -640 0
v -448 -640 0
v -512 -704 0
v -576 -704 0
v -576 -640 0
v -512 -640 0
v -576 -704 0
v -640 -704 0
v -640 -640 0
v -576 -640 0
v -640 -704 0
v -704 -704 0
v -704 -640 0
v -640 -640 0
v -704 -704 0
v -768 -704 0
v -768 -640 0
v -704 -640 0
v -768 -704 0
v -832 -704 0
v -832 -640 0
v -768 -640 0
v -832 -704 0
v -896 -704 0
v -896 -640 0
v -832 -640 0
v -896 -704 0
v -960 -704 0
v -960 -640 0
v -896 -640 0
v -960 -704 0
v -1024 -704 0
v -1024 -640 0
v -960 -640 0

# Texture cooridinates (Count = 14)
vt 1 0.6666666
vt 1 1
vt 0.8 1
vt 0.8 0.6666666
vt 0.8 0.3333333
vt 1 0.3333333
vt 0.2 0.6666666
vt 0.4 0.6666666
vt 0.4 1
vt 0.2 1
vt 0.6 0.6666666
vt 0.6 1
vt 0 1
vt 0 0.6666666

# Normal
vn 0 0 -1

# Mesh description
g map_mesh_0243

# Faces
f 1/1/1 2/2/1 3/3/1 4/4/1
f 5/5/1 6/6/1 7/1/1 8/4/1
f 9/5/1 10/6/1 11/1/1 12/4/1
f 13/5/1 14/6/1 15/1/1 16/4/1
f 17/1/1 18/2/1 19/3/1 20/4/1
f 21/5/1 22/6/1 23/1/1 24/4/1
f 25/5/1 26/6/1 27/1/1 28/4/1
f 29/5/1 30/6/1 31/1/1 32/4/1
f 33/7/1 34/8/1 35/9/1 36/10/1
f 37/7/1 38/8/1 39/9/1 40/10/1
f 41/7/1 42/8/1 43/9/1 44/10/1
f 45/7/1 46/8/1 47/9/1 48/10/1
f 49/7/1 50/8/1 51/9/1 52/10/1
f 53/7/1 54/8/1 55/9/1 56/10/1
f 57/7/1 58/8/1 59/9/1 60/10/1
f 61/7/1 62/8/1 63/9/1 64/10/1
f 65/7/1 66/8/1 67/9/1 68/10/1
f 69/7/1 70/8/1 71/9/1 72/10/1
f 73/7/1 74/8/1 75/9/1 76/10/1
f 77/7/1 78/8/1 79/9/1 80/10/1
f 81/8/1 82/11/1 83/12/1 84/9/1
f 85/5/1 86/6/1 87/1/1 88/4/1
f 89/5/1 90/6/1 91/1/1 92/4/1
f 93/5/1 94/6/1 95/1/1 96/4/1
f 97/5/1 98/6/1 99/1/1 100/4/1
f 101/5/1 102/6/1 103/1/1 104/4/1
f 105/5/1 106/6/1 107/1/1 108/4/1
f 109/5/1 110/6/1 111/1/1 112/4/1
f 113/5/1 114/6/1 115/1/1 116/4/1
f 117/5/1 118/6/1 119/1/1 120/4/1
f 121/5/1 122/6/1 123/1/1 124/4/1
f 125/5/1 126/6/1 127/1/1 128/4/1
f 129/5/1 130/6/1 131/1/1 132/4/1
f 133/5/1 134/6/1 135/1/1 136/4/1
f 137/5/1 138/6/1 139/1/1 140/4/1
f 141/5/1 142/6/1 143/1/1 144/4/1
f 145/1/1 146/2/1 147/3/1 148/4/1
f 149/5/1 150/6/1 151/1/1 152/4/1
f 153/5/1 154/6/1 155/1/1 156/4/1
f 157/5/1 158/6/1 159/1/1 160/4/1
f 161/5/1 162/6/1 163/1/1 164/4/1
f 165/5/1 166/6/1 167/1/1 168/4/1
f 169/5/1 170/6/1 171/1/1 172/4/1
f 173/5/1 174/6/1 175/1/1 176/4/1
f 177/5/1 178/6/1 179/1/1 180/4/1
f 181/5/1 182/6/1 183/1/1 184/4/1
f 185/5/1 186/6/1 187/1/1 188/4/1
f 189/5/1 190/6/1 191/1/1 192/4/1
f 193/5/1 194/6/1 195/1/1 196/4/1
f 197/5/1 198/6/1 199/1/1 200/4/1
f 201/5/1 202/6/1 203/1/1 204/4/1
f 205/5/1 206/6/1 207/1/1 208/4/1
f 209/1/1 210/2/1 211/3/1 212/4/1
f 213/5/1 214/6/1 215/1/1 216/4/1
f 217/5/1 218/6/1 219/1/1 220/4/1
f 221/5/1 222/6/1 223/1/1 224/4/1
f 225/5/1 226/6/1 227/1/1 228/4/1
f 229/5/1 230/6/1 231/1/1 232/4/1
f 233/5/1 234/6/1 235/1/1 236/4/1
f 237/5/1 238/6/1 239/1/1 240/4/1
f 241/5/1 242/6/1 243/1/1 244/4/1
f 245/5/1 246/6/1 247/1/1 248/4/1
f 249/5/1 250/6/1 251/1/1 252/4/1
f 253/5/1 254/6/1 255/1/1 256/4/1
f 257/5/1 258/6/1 259/1/1 260/4/1
f 261/5/1 262/6/1 263/1/1 264/4/1
f 265/5/1 266/6/1 267/1/1 268/4/1
f 269/5/1 270/6/1 271/1/1 272/4/1
f 273/1/1 274/2/1 275/3/1 276/4/1
f 277/5/1 278/6/1 279/1/1 280/4/1
f 281/5/1 282/6/1 283/1/1 284/4/1
f 285/5/1 286/6/1 287/1/1 288/4/1
f 289/5/1 290/6/1 291/1/1 292/4/1
f 293/5/1 294/6/1 295/1/1 296/4/1
f 297/5/1 298/6/1 299/1/1 300/4/1
f 301/5/1 302/6/1 303/1/1 304/4/1
f 305/5/1 306/6/1 307/1/1 308/4/1
f 309/5/1 310/6/1 311/1/1 312/4/1
f 313/5/1 314/6/1 315/1/1 316/4/1
f 317/5/1 318/6/1 319/1/1 320/4/1
f 321/5/1 322/6/1 323/1/1 324/4/1
f 325/5/1 326/6/1 327/1/1 328/4/1
f 329/5/1 330/6/1 331/1/1 332/4/1
f 333/5/1 334/6/1 335/1/1 336/4/1
f 337/1/1 338/2/1 339/3/1 340/4/1
f 341/5/1 342/6/1 343/1/1 344/4/1
f 345/5/1 346/6/1 347/1/1 348/4/1
f 349/5/1 350/6/1 351/1/1 352/4/1
f 353/5/1 354/6/1 355/1/1 356/4/1
f 357/5/1 358/6/1 359/1/1 360/4/1
f 361/5/1 362/6/1 363/1/1 364/4/1
f 365/5/1 366/6/1 367/1/1 368/4/1
f 369/5/1 370/6/1 371/1/1 372/4/1
f 373/5/1 374/6/1 375/1/1 376/4/1
f 377/5/1 378/6/1 379/1/1 380/4/1
f 381/5/1 382/6/1 383/1/1 384/4/1
f 385/5/1 386/6/1 387/1/1 388/4/1
f 389/5/1 390/6/1 391/1/1 392/4/1
f 393/5/1 394/6/1 395/1/1 396/4/1
f 397/5/1 398/6/1 399/1/1 400/4/1
f 401/10/1 402/7/1 403/8/1 404/9/1
f 405/5/1 406/6/1 407/1/1 408/4/1
f 409/5/1 410/6/1 411/1/1 412/4/1
f 413/5/1 414/6/1 415/1/1 416/4/1
f 417/5/1 418/6/1 419/1/1 420/4/1
f 421/5/1 422/6/1 423/1/1 424/4/1
f 425/5/1 426/6/1 427/1/1 428/4/1
f 429/5/1 430/6/1 431/1/1 432/4/1
f 433/5/1 434/6/1 435/1/1 436/4/1
f 437/5/1 438/6/1 439/1/1 440/4/1
f 441/5/1 442/6/1 443/1/1 444/4/1
f 445/5/1 446/6/1 447/1/1 448/4/1
f 449/5/1 450/6/1 451/1/1 452/4/1
f 453/5/1 454/6/1 455/1/1 456/4/1
f 457/5/1 458/6/1 459/1/1 460/4/1
f 461/5/1 462/6/1 463/1/1 464/4/1
f 465/10/1 466/7/1 467/8/1 468/9/1
f 469/5/1 470/6/1 471/1/1 472/4/1
f 473/5/1 474/6/1 475/1/1 476/4/1
f 477/5/1 478/6/1 479/1/1 480/4/1
f 481/5/1 482/6/1 483/1/1 484/4/1
f 485/5/1 486/6/1 487/1/1 488/4/1
f 489/5/1 490/6/1 491/1/1 492/4/1
f 493/5/1 494/6/1 495/1/1 496/4/1
f 497/5/1 498/6/1 499/1/1 500/4/1
f 501/5/1 502/6/1 503/1/1 504/4/1
f 505/5/1 506/6/1 507/1/1 508/4/1
f 509/5/1 510/6/1 511/1/1 512/4/1
f 513/5/1 514/6/1 515/1/1 516/4/1
f 517/5/1 518/6/1 519/1/1 520/4/1
f 521/5/1 522/6/1 523/1/1 524/4/1
f 525/5/1 526/6/1 527/1/1 528/4/1
f 529/10/1 530/7/1 531/8/1 532/9/1
f 533/5/1 534/6/1 535/1/1 536/4/1
f 537/5/1 538/6/1 539/1/1 540/4/1
f 541/5/1 542/6/1 543/1/1 544/4/1
f 545/4/1 546/1/1 547/2/1 548/3/1
f 549/4/1 550/1/1 551/2/1 552/3/1
f 553/10/1 554/13/1 555/14/1 556/7/1
f 557/4/1 558/1/1 559/2/1 560/3/1
f 561/4/1 562/1/1 563/2/1 564/3/1
f 565/10/1 566/13/1 567/14/1 568/7/1
f 569/4/1 570/1/1 571/2/1 572/3/1
f 573/4/1 574/1/1 575/2/1 576/3/1
f 577/10/1 578/13/1 579/14/1 580/7/1
f 581/4/1 582/1/1 583/2/1 584/3/1
f 585/4/1 586/1/1 587/2/1 588/3/1
f 589/10/1 590/13/1 591/14/1 592/7/1
f 593/4/1 594/1/1 595/2/1 596/3/1
f 597/4/1 598/1/1 599/2/1 600/3/1
f 601/10/1 602/13/1 603/14/1 604/7/1
f 605/4/1 606/1/1 607/2/1 608/3/1

