# Tiled2Unity generated file. Do not modify by hand.
# Wavefront file for 'map_mesh_0342.obj'

# Vertices (Count = 136)
v -448 -64 0
v -512 -64 0
v -512 0 0
v -448 0 0
v -512 -64 0
v -576 -64 0
v -576 0 0
v -512 0 0
v -576 -64 0
v -640 -64 0
v -640 0 0
v -576 0 0
v -640 -64 0
v -704 -64 0
v -704 0 0
v -640 0 0
v -704 -64 0
v -768 -64 0
v -768 0 0
v -704 0 0
v -768 -64 0
v -832 -64 0
v -832 0 0
v -768 0 0
v -832 -64 0
v -896 -64 0
v -896 0 0
v -832 0 0
v -896 -64 0
v -960 -64 0
v -960 0 0
v -896 0 0
v -960 -64 0
v -1024 -64 0
v -1024 0 0
v -960 0 0
v -512 -128 0
v -576 -128 0
v -576 -64 0
v -512 -64 0
v -576 -128 0
v -640 -128 0
v -640 -64 0
v -576 -64 0
v -640 -128 0
v -704 -128 0
v -704 -64 0
v -640 -64 0
v -704 -128 0
v -768 -128 0
v -768 -64 0
v -704 -64 0
v -768 -128 0
v -832 -128 0
v -832 -64 0
v -768 -64 0
v -832 -128 0
v -896 -128 0
v -896 -64 0
v -832 -64 0
v -896 -128 0
v -960 -128 0
v -960 -64 0
v -896 -64 0
v -960 -128 0
v -1024 -128 0
v -1024 -64 0
v -960 -64 0
v -576 -192 0
v -640 -192 0
v -640 -128 0
v -576 -128 0
v -640 -192 0
v -704 -192 0
v -704 -128 0
v -640 -128 0
v -704 -192 0
v -768 -192 0
v -768 -128 0
v -704 -128 0
v -768 -192 0
v -832 -192 0
v -832 -128 0
v -768 -128 0
v -832 -192 0
v -896 -192 0
v -896 -128 0
v -832 -128 0
v -896 -192 0
v -960 -192 0
v -960 -128 0
v -896 -128 0
v -960 -192 0
v -1024 -192 0
v -1024 -128 0
v -960 -128 0
v -704 -256 0
v -768 -256 0
v -768 -192 0
v -704 -192 0
v -768 -256 0
v -832 -256 0
v -832 -192 0
v -768 -192 0
v -832 -256 0
v -896 -256 0
v -896 -192 0
v -832 -192 0
v -896 -256 0
v -960 -256 0
v -960 -192 0
v -896 -192 0
v -960 -256 0
v -1024 -256 0
v -1024 -192 0
v -960 -192 0
v -832 -320 0
v -896 -320 0
v -896 -256 0
v -832 -256 0
v -896 -320 0
v -960 -320 0
v -960 -256 0
v -896 -256 0
v -960 -320 0
v -1024 -320 0
v -1024 -256 0
v -960 -256 0
v -896 -384 0
v -960 -384 0
v -960 -320 0
v -896 -320 0
v -960 -384 0
v -1024 -384 0
v -1024 -320 0
v -960 -320 0

# Texture cooridinates (Count = 6)
vt 0.5 0
vt 1 0
vt 1 1
vt 0.5 1
vt 0 0
vt 0 1

# Normal
vn 0 0 -1

# Mesh description
g map_mesh_0342

# Faces
f 1/1/1 2/2/1 3/3/1 4/4/1
f 5/5/1 6/1/1 7/4/1 8/6/1
f 9/5/1 10/1/1 11/4/1 12/6/1
f 13/5/1 14/1/1 15/4/1 16/6/1
f 17/5/1 18/1/1 19/4/1 20/6/1
f 21/5/1 22/1/1 23/4/1 24/6/1
f 25/5/1 26/1/1 27/4/1 28/6/1
f 29/5/1 30/1/1 31/4/1 32/6/1
f 33/5/1 34/1/1 35/4/1 36/6/1
f 37/1/1 38/2/1 39/3/1 40/4/1
f 41/5/1 42/1/1 43/4/1 44/6/1
f 45/5/1 46/1/1 47/4/1 48/6/1
f 49/5/1 50/1/1 51/4/1 52/6/1
f 53/5/1 54/1/1 55/4/1 56/6/1
f 57/5/1 58/1/1 59/4/1 60/6/1
f 61/5/1 62/1/1 63/4/1 64/6/1
f 65/5/1 66/1/1 67/4/1 68/6/1
f 69/1/1 70/2/1 71/3/1 72/4/1
f 73/1/1 74/2/1 75/3/1 76/4/1
f 77/5/1 78/1/1 79/4/1 80/6/1
f 81/5/1 82/1/1 83/4/1 84/6/1
f 85/5/1 86/1/1 87/4/1 88/6/1
f 89/5/1 90/1/1 91/4/1 92/6/1
f 93/5/1 94/1/1 95/4/1 96/6/1
f 97/1/1 98/2/1 99/3/1 100/4/1
f 101/1/1 102/2/1 103/3/1 104/4/1
f 105/5/1 106/1/1 107/4/1 108/6/1
f 109/5/1 110/1/1 111/4/1 112/6/1
f 113/5/1 114/1/1 115/4/1 116/6/1
f 117/1/1 118/2/1 119/3/1 120/4/1
f 121/5/1 122/1/1 123/4/1 124/6/1
f 125/5/1 126/1/1 127/4/1 128/6/1
f 129/1/1 130/2/1 131/3/1 132/4/1
f 133/1/1 134/2/1 135/3/1 136/4/1

