# Tiled2Unity generated file. Do not modify by hand.
# Wavefront file for 'map_mesh_0306.obj'

# Vertices (Count = 32)
v -384 -128 0
v -448 -128 0
v -448 -64 0
v -384 -64 0
v -704 -128 0
v -768 -128 0
v -768 -64 0
v -704 -64 0
v -384 -192 0
v -448 -192 0
v -448 -128 0
v -384 -128 0
v -448 -192 0
v -512 -192 0
v -512 -128 0
v -448 -128 0
v -512 -192 0
v -576 -192 0
v -576 -128 0
v -512 -128 0
v -576 -192 0
v -640 -192 0
v -640 -128 0
v -576 -128 0
v -640 -192 0
v -704 -192 0
v -704 -128 0
v -640 -128 0
v -704 -192 0
v -768 -192 0
v -768 -128 0
v -704 -128 0

# Texture cooridinates (Count = 14)
vt 0 0.25
vt 0.25 0.25
vt 0.25 0.5
vt 0 0.5
vt 0.75 0.25
vt 1 0.25
vt 1 0.5
vt 0.75 0.5
vt 0 0
vt 0.25 0
vt 0.5 0
vt 0.5 0.25
vt 0.75 0
vt 1 0

# Normal
vn 0 0 -1

# Mesh description
g map_mesh_0306

# Faces
f 1/1/1 2/2/1 3/3/1 4/4/1
f 5/5/1 6/6/1 7/7/1 8/8/1
f 9/9/1 10/10/1 11/2/1 12/1/1
f 13/10/1 14/11/1 15/12/1 16/2/1
f 17/10/1 18/11/1 19/12/1 20/2/1
f 21/10/1 22/11/1 23/12/1 24/2/1
f 25/10/1 26/11/1 27/12/1 28/2/1
f 29/13/1 30/14/1 31/6/1 32/5/1

