# Tiled2Unity generated file. Do not modify by hand.
# Wavefront file for 'map_mesh_0218.obj'

# Vertices (Count = 44)
v 0 -64 0
v -64 -64 0
v -64 0 0
v 0 0 0
v -64 -64 0
v -128 -64 0
v -128 0 0
v -64 0 0
v -128 -64 0
v -192 -64 0
v -192 0 0
v -128 0 0
v -192 -64 0
v -256 -64 0
v -256 0 0
v -192 0 0
v 0 -128 0
v -64 -128 0
v -64 -64 0
v 0 -64 0
v -64 -128 0
v -128 -128 0
v -128 -64 0
v -64 -64 0
v -128 -128 0
v -192 -128 0
v -192 -64 0
v -128 -64 0
v 0 -192 0
v -64 -192 0
v -64 -128 0
v 0 -128 0
v -64 -192 0
v -128 -192 0
v -128 -128 0
v -64 -128 0
v 0 -256 0
v -64 -256 0
v -64 -192 0
v 0 -192 0
v 0 -320 0
v -64 -320 0
v -64 -256 0
v 0 -256 0

# Texture cooridinates (Count = 6)
vt 0 0
vt 0.5 0
vt 0.5 1
vt 0 1
vt 1 0
vt 1 1

# Normal
vn 0 0 -1

# Mesh description
g map_mesh_0218

# Faces
f 1/1/1 2/2/1 3/3/1 4/4/1
f 5/1/1 6/2/1 7/3/1 8/4/1
f 9/1/1 10/2/1 11/3/1 12/4/1
f 13/2/1 14/5/1 15/6/1 16/3/1
f 17/1/1 18/2/1 19/3/1 20/4/1
f 21/1/1 22/2/1 23/3/1 24/4/1
f 25/2/1 26/5/1 27/6/1 28/3/1
f 29/1/1 30/2/1 31/3/1 32/4/1
f 33/2/1 34/5/1 35/6/1 36/3/1
f 37/2/1 38/5/1 39/6/1 40/3/1
f 41/2/1 42/5/1 43/6/1 44/3/1

