# Tiled2Unity generated file. Do not modify by hand.
# Wavefront file for 'map_mesh_0098.obj'

# Vertices (Count = 28)
v -768 -64 0
v -832 -64 0
v -832 0 0
v -768 0 0
v -832 -64 0
v -896 -64 0
v -896 0 0
v -832 0 0
v -896 -64 0
v -960 -64 0
v -960 0 0
v -896 0 0
v -960 -64 0
v -1024 -64 0
v -1024 0 0
v -960 0 0
v -832 -128 0
v -896 -128 0
v -896 -64 0
v -832 -64 0
v -896 -128 0
v -960 -128 0
v -960 -64 0
v -896 -64 0
v -960 -128 0
v -1024 -128 0
v -1024 -64 0
v -960 -64 0

# Texture cooridinates (Count = 12)
vt 0.1481481 0.1111111
vt 0.2222222 0.1111111
vt 0.2222222 0.2222222
vt 0.1481481 0.2222222
vt 0.4444444 0.1111111
vt 0.5185185 0.1111111
vt 0.5185185 0.2222222
vt 0.4444444 0.2222222
vt 0.8148148 0.7777778
vt 0.8888889 0.7777778
vt 0.8888889 0.8888889
vt 0.8148148 0.8888889

# Normal
vn 0 0 -1

# Mesh description
g map_mesh_0098

# Faces
f 1/1/1 2/2/1 3/3/1 4/4/1
f 5/5/1 6/6/1 7/7/1 8/8/1
f 9/5/1 10/6/1 11/7/1 12/8/1
f 13/5/1 14/6/1 15/7/1 16/8/1
f 17/9/1 18/10/1 19/11/1 20/12/1
f 21/9/1 22/10/1 23/11/1 24/12/1
f 25/9/1 26/10/1 27/11/1 28/12/1

