# Tiled2Unity generated file. Do not modify by hand.
# Wavefront file for 'map_mesh_0085.obj'

# Vertices (Count = 184)
v -896 -128 0
v -960 -128 0
v -960 -64 0
v -896 -64 0
v -960 -128 0
v -1024 -128 0
v -1024 -64 0
v -960 -64 0
v -576 -192 0
v -640 -192 0
v -640 -128 0
v -576 -128 0
v -640 -192 0
v -704 -192 0
v -704 -128 0
v -640 -128 0
v -704 -192 0
v -768 -192 0
v -768 -128 0
v -704 -128 0
v -768 -192 0
v -832 -192 0
v -832 -128 0
v -768 -128 0
v -832 -192 0
v -896 -192 0
v -896 -128 0
v -832 -128 0
v -896 -192 0
v -960 -192 0
v -960 -128 0
v -896 -128 0
v -960 -192 0
v -1024 -192 0
v -1024 -128 0
v -960 -128 0
v -576 -256 0
v -640 -256 0
v -640 -192 0
v -576 -192 0
v -640 -256 0
v -704 -256 0
v -704 -192 0
v -640 -192 0
v -704 -256 0
v -768 -256 0
v -768 -192 0
v -704 -192 0
v -768 -256 0
v -832 -256 0
v -832 -192 0
v -768 -192 0
v -832 -256 0
v -896 -256 0
v -896 -192 0
v -832 -192 0
v -896 -256 0
v -960 -256 0
v -960 -192 0
v -896 -192 0
v -960 -256 0
v -1024 -256 0
v -1024 -192 0
v -960 -192 0
v -576 -320 0
v -640 -320 0
v -640 -256 0
v -576 -256 0
v -640 -320 0
v -704 -320 0
v -704 -256 0
v -640 -256 0
v -704 -320 0
v -768 -320 0
v -768 -256 0
v -704 -256 0
v -768 -320 0
v -832 -320 0
v -832 -256 0
v -768 -256 0
v -832 -320 0
v -896 -320 0
v -896 -256 0
v -832 -256 0
v -896 -320 0
v -960 -320 0
v -960 -256 0
v -896 -256 0
v -960 -320 0
v -1024 -320 0
v -1024 -256 0
v -960 -256 0
v -896 -384 0
v -960 -384 0
v -960 -320 0
v -896 -320 0
v -960 -384 0
v -1024 -384 0
v -1024 -320 0
v -960 -320 0
v -128 -960 0
v -192 -960 0
v -192 -896 0
v -128 -896 0
v -192 -960 0
v -256 -960 0
v -256 -896 0
v -192 -896 0
v -256 -960 0
v -320 -960 0
v -320 -896 0
v -256 -896 0
v -320 -960 0
v -384 -960 0
v -384 -896 0
v -320 -896 0
v -384 -960 0
v -448 -960 0
v -448 -896 0
v -384 -896 0
v -448 -960 0
v -512 -960 0
v -512 -896 0
v -448 -896 0
v -512 -960 0
v -576 -960 0
v -576 -896 0
v -512 -896 0
v -576 -960 0
v -640 -960 0
v -640 -896 0
v -576 -896 0
v -640 -960 0
v -704 -960 0
v -704 -896 0
v -640 -896 0
v -704 -960 0
v -768 -960 0
v -768 -896 0
v -704 -896 0
v -768 -960 0
v -832 -960 0
v -832 -896 0
v -768 -896 0
v -832 -960 0
v -896 -960 0
v -896 -896 0
v -832 -896 0
v -896 -960 0
v -960 -960 0
v -960 -896 0
v -896 -896 0
v -960 -960 0
v -1024 -960 0
v -1024 -896 0
v -960 -896 0
v -576 -1024 0
v -640 -1024 0
v -640 -960 0
v -576 -960 0
v -640 -1024 0
v -704 -1024 0
v -704 -960 0
v -640 -960 0
v -704 -1024 0
v -768 -1024 0
v -768 -960 0
v -704 -960 0
v -768 -1024 0
v -832 -1024 0
v -832 -960 0
v -768 -960 0
v -832 -1024 0
v -896 -1024 0
v -896 -960 0
v -832 -960 0
v -896 -1024 0
v -960 -1024 0
v -960 -960 0
v -896 -960 0
v -960 -1024 0
v -1024 -1024 0
v -1024 -960 0
v -960 -960 0

# Texture cooridinates (Count = 39)
vt 0.8148148 0.7777778
vt 0.8888889 0.7777778
vt 0.8888889 0.8888889
vt 0.8148148 0.8888889
vt 0.7407407 0.2222222
vt 0.6666667 0.2222222
vt 0.6666667 0.1111111
vt 0.7407407 0.1111111
vt 0.5185185 0.2222222
vt 0.4444444 0.2222222
vt 0.4444444 0.1111111
vt 0.5185185 0.1111111
vt 0.2222222 0.2222222
vt 0.1481481 0.2222222
vt 0.1481481 0.1111111
vt 0.2222222 0.1111111
vt 0.7407407 0.3333333
vt 0.6666667 0.3333333
vt 0.4444444 0.3333333
vt 0.3703704 0.3333333
vt 0.3703704 0.2222222
vt 0.2962963 0.3333333
vt 0.2962963 0.2222222
vt 0.2222222 0.3333333
vt 0.1481481 0.3333333
vt 0.7407407 0.4444444
vt 0.6666667 0.4444444
vt 0.4444444 0.4444444
vt 0.3703704 0.4444444
vt 0.2962963 0.4444444
vt 0.2222222 0.4444444
vt 0.1481481 0.4444444
vt 0.07407407 0.3333333
vt 0.07407407 0.4444444
vt 0.5185185 0.3333333
vt 0.5185185 0.4444444
vt 0.5925926 0.3333333
vt 0.5925926 0.4444444
vt 0.5925926 0.2222222

# Normal
vn 0 0 -1

# Mesh description
g map_mesh_0085

# Faces
f 1/1/1 2/2/1 3/3/1 4/4/1
f 5/1/1 6/2/1 7/3/1 8/4/1
f 9/5/1 10/6/1 11/7/1 12/8/1
f 13/9/1 14/10/1 15/11/1 16/12/1
f 17/9/1 18/10/1 19/11/1 20/12/1
f 21/9/1 22/10/1 23/11/1 24/12/1
f 25/13/1 26/14/1 27/15/1 28/16/1
f 29/1/1 30/2/1 31/3/1 32/4/1
f 33/1/1 34/2/1 35/3/1 36/4/1
f 37/17/1 38/18/1 39/6/1 40/5/1
f 41/19/1 42/20/1 43/21/1 44/10/1
f 45/20/1 46/22/1 47/23/1 48/21/1
f 49/22/1 50/24/1 51/13/1 52/23/1
f 53/24/1 54/25/1 55/14/1 56/13/1
f 57/9/1 58/10/1 59/11/1 60/12/1
f 61/1/1 62/2/1 63/3/1 64/4/1
f 65/26/1 66/27/1 67/18/1 68/17/1
f 69/28/1 70/29/1 71/20/1 72/19/1
f 73/29/1 74/30/1 75/22/1 76/20/1
f 77/30/1 78/31/1 79/24/1 80/22/1
f 81/31/1 82/32/1 83/25/1 84/24/1
f 85/22/1 86/24/1 87/13/1 88/23/1
f 89/24/1 90/25/1 91/14/1 92/13/1
f 93/30/1 94/31/1 95/24/1 96/22/1
f 97/31/1 98/32/1 99/25/1 100/24/1
f 101/33/1 102/25/1 103/32/1 104/34/1
f 105/25/1 106/24/1 107/31/1 108/32/1
f 109/24/1 110/22/1 111/30/1 112/31/1
f 113/22/1 114/20/1 115/29/1 116/30/1
f 117/20/1 118/19/1 119/28/1 120/29/1
f 121/19/1 122/35/1 123/36/1 124/28/1
f 125/35/1 126/37/1 127/38/1 128/36/1
f 129/37/1 130/18/1 131/27/1 132/38/1
f 133/18/1 134/17/1 135/26/1 136/27/1
f 137/25/1 138/24/1 139/31/1 140/32/1
f 141/25/1 142/24/1 143/31/1 144/32/1
f 145/24/1 146/22/1 147/30/1 148/31/1
f 149/22/1 150/20/1 151/29/1 152/30/1
f 153/14/1 154/13/1 155/24/1 156/25/1
f 157/39/1 158/6/1 159/18/1 160/37/1
f 161/6/1 162/5/1 163/17/1 164/18/1
f 165/14/1 166/13/1 167/24/1 168/25/1
f 169/14/1 170/13/1 171/24/1 172/25/1
f 173/13/1 174/23/1 175/22/1 176/24/1
f 177/23/1 178/21/1 179/20/1 180/22/1
f 181/15/1 182/16/1 183/13/1 184/14/1

