# Tiled2Unity generated file. Do not modify by hand.
# Wavefront file for 'map_mesh_0452.obj'

# Vertices (Count = 224)
v 0 -64 0
v -64 -64 0
v -64 0 0
v 0 0 0
v -64 -64 0
v -128 -64 0
v -128 0 0
v -64 0 0
v -128 -64 0
v -192 -64 0
v -192 0 0
v -128 0 0
v -192 -64 0
v -256 -64 0
v -256 0 0
v -192 0 0
v 0 -128 0
v -64 -128 0
v -64 -64 0
v 0 -64 0
v -64 -128 0
v -128 -128 0
v -128 -64 0
v -64 -64 0
v -128 -128 0
v -192 -128 0
v -192 -64 0
v -128 -64 0
v -192 -128 0
v -256 -128 0
v -256 -64 0
v -192 -64 0
v 0 -192 0
v -64 -192 0
v -64 -128 0
v 0 -128 0
v -64 -192 0
v -128 -192 0
v -128 -128 0
v -64 -128 0
v -128 -192 0
v -192 -192 0
v -192 -128 0
v -128 -128 0
v -192 -192 0
v -256 -192 0
v -256 -128 0
v -192 -128 0
v 0 -256 0
v -64 -256 0
v -64 -192 0
v 0 -192 0
v -64 -256 0
v -128 -256 0
v -128 -192 0
v -64 -192 0
v -128 -256 0
v -192 -256 0
v -192 -192 0
v -128 -192 0
v -192 -256 0
v -256 -256 0
v -256 -192 0
v -192 -192 0
v 0 -320 0
v -64 -320 0
v -64 -256 0
v 0 -256 0
v -64 -320 0
v -128 -320 0
v -128 -256 0
v -64 -256 0
v -128 -320 0
v -192 -320 0
v -192 -256 0
v -128 -256 0
v -192 -320 0
v -256 -320 0
v -256 -256 0
v -192 -256 0
v 0 -384 0
v -64 -384 0
v -64 -320 0
v 0 -320 0
v -64 -384 0
v -128 -384 0
v -128 -320 0
v -64 -320 0
v -128 -384 0
v -192 -384 0
v -192 -320 0
v -128 -320 0
v -192 -384 0
v -256 -384 0
v -256 -320 0
v -192 -320 0
v 0 -448 0
v -64 -448 0
v -64 -384 0
v 0 -384 0
v -64 -448 0
v -128 -448 0
v -128 -384 0
v -64 -384 0
v -128 -448 0
v -192 -448 0
v -192 -384 0
v -128 -384 0
v -192 -448 0
v -256 -448 0
v -256 -384 0
v -192 -384 0
v 0 -512 0
v -64 -512 0
v -64 -448 0
v 0 -448 0
v -64 -512 0
v -128 -512 0
v -128 -448 0
v -64 -448 0
v -128 -512 0
v -192 -512 0
v -192 -448 0
v -128 -448 0
v -192 -512 0
v -256 -512 0
v -256 -448 0
v -192 -448 0
v 0 -576 0
v -64 -576 0
v -64 -512 0
v 0 -512 0
v -64 -576 0
v -128 -576 0
v -128 -512 0
v -64 -512 0
v -128 -576 0
v -192 -576 0
v -192 -512 0
v -128 -512 0
v 0 -640 0
v -64 -640 0
v -64 -576 0
v 0 -576 0
v -64 -640 0
v -128 -640 0
v -128 -576 0
v -64 -576 0
v -128 -640 0
v -192 -640 0
v -192 -576 0
v -128 -576 0
v 0 -704 0
v -64 -704 0
v -64 -640 0
v 0 -640 0
v -64 -704 0
v -128 -704 0
v -128 -640 0
v -64 -640 0
v -128 -704 0
v -192 -704 0
v -192 -640 0
v -128 -640 0
v 0 -768 0
v -64 -768 0
v -64 -704 0
v 0 -704 0
v -64 -768 0
v -128 -768 0
v -128 -704 0
v -64 -704 0
v -128 -768 0
v -192 -768 0
v -192 -704 0
v -128 -704 0
v 0 -832 0
v -64 -832 0
v -64 -768 0
v 0 -768 0
v -64 -832 0
v -128 -832 0
v -128 -768 0
v -64 -768 0
v -128 -832 0
v -192 -832 0
v -192 -768 0
v -128 -768 0
v 0 -896 0
v -64 -896 0
v -64 -832 0
v 0 -832 0
v -64 -896 0
v -128 -896 0
v -128 -832 0
v -64 -832 0
v -128 -896 0
v -192 -896 0
v -192 -832 0
v -128 -832 0
v 0 -960 0
v -64 -960 0
v -64 -896 0
v 0 -896 0
v -64 -960 0
v -128 -960 0
v -128 -896 0
v -64 -896 0
v -128 -960 0
v -192 -960 0
v -192 -896 0
v -128 -896 0
v 0 -1024 0
v -64 -1024 0
v -64 -960 0
v 0 -960 0
v -64 -1024 0
v -128 -1024 0
v -128 -960 0
v -64 -960 0
v -128 -1024 0
v -192 -1024 0
v -192 -960 0
v -128 -960 0

# Texture cooridinates (Count = 6)
vt 0 0
vt 0.5 0
vt 0.5 1
vt 0 1
vt 1 0
vt 1 1

# Normal
vn 0 0 -1

# Mesh description
g map_mesh_0452

# Faces
f 1/1/1 2/2/1 3/3/1 4/4/1
f 5/1/1 6/2/1 7/3/1 8/4/1
f 9/1/1 10/2/1 11/3/1 12/4/1
f 13/2/1 14/5/1 15/6/1 16/3/1
f 17/1/1 18/2/1 19/3/1 20/4/1
f 21/1/1 22/2/1 23/3/1 24/4/1
f 25/1/1 26/2/1 27/3/1 28/4/1
f 29/2/1 30/5/1 31/6/1 32/3/1
f 33/1/1 34/2/1 35/3/1 36/4/1
f 37/1/1 38/2/1 39/3/1 40/4/1
f 41/1/1 42/2/1 43/3/1 44/4/1
f 45/2/1 46/5/1 47/6/1 48/3/1
f 49/1/1 50/2/1 51/3/1 52/4/1
f 53/1/1 54/2/1 55/3/1 56/4/1
f 57/1/1 58/2/1 59/3/1 60/4/1
f 61/2/1 62/5/1 63/6/1 64/3/1
f 65/1/1 66/2/1 67/3/1 68/4/1
f 69/1/1 70/2/1 71/3/1 72/4/1
f 73/1/1 74/2/1 75/3/1 76/4/1
f 77/2/1 78/5/1 79/6/1 80/3/1
f 81/1/1 82/2/1 83/3/1 84/4/1
f 85/1/1 86/2/1 87/3/1 88/4/1
f 89/1/1 90/2/1 91/3/1 92/4/1
f 93/2/1 94/5/1 95/6/1 96/3/1
f 97/1/1 98/2/1 99/3/1 100/4/1
f 101/1/1 102/2/1 103/3/1 104/4/1
f 105/1/1 106/2/1 107/3/1 108/4/1
f 109/2/1 110/5/1 111/6/1 112/3/1
f 113/1/1 114/2/1 115/3/1 116/4/1
f 117/1/1 118/2/1 119/3/1 120/4/1
f 121/1/1 122/2/1 123/3/1 124/4/1
f 125/2/1 126/5/1 127/6/1 128/3/1
f 129/1/1 130/2/1 131/3/1 132/4/1
f 133/1/1 134/2/1 135/3/1 136/4/1
f 137/2/1 138/5/1 139/6/1 140/3/1
f 141/1/1 142/2/1 143/3/1 144/4/1
f 145/1/1 146/2/1 147/3/1 148/4/1
f 149/2/1 150/5/1 151/6/1 152/3/1
f 153/1/1 154/2/1 155/3/1 156/4/1
f 157/1/1 158/2/1 159/3/1 160/4/1
f 161/2/1 162/5/1 163/6/1 164/3/1
f 165/1/1 166/2/1 167/3/1 168/4/1
f 169/1/1 170/2/1 171/3/1 172/4/1
f 173/2/1 174/5/1 175/6/1 176/3/1
f 177/1/1 178/2/1 179/3/1 180/4/1
f 181/1/1 182/2/1 183/3/1 184/4/1
f 185/2/1 186/5/1 187/6/1 188/3/1
f 189/1/1 190/2/1 191/3/1 192/4/1
f 193/1/1 194/2/1 195/3/1 196/4/1
f 197/2/1 198/5/1 199/6/1 200/3/1
f 201/1/1 202/2/1 203/3/1 204/4/1
f 205/1/1 206/2/1 207/3/1 208/4/1
f 209/2/1 210/5/1 211/6/1 212/3/1
f 213/1/1 214/2/1 215/3/1 216/4/1
f 217/1/1 218/2/1 219/3/1 220/4/1
f 221/2/1 222/5/1 223/6/1 224/3/1

