# Tiled2Unity generated file. Do not modify by hand.
# Wavefront file for 'map_mesh_0116.obj'

# Vertices (Count = 84)
v -960 -576 0
v -1024 -576 0
v -1024 -512 0
v -960 -512 0
v -960 -640 0
v -1024 -640 0
v -1024 -576 0
v -960 -576 0
v -896 -704 0
v -960 -704 0
v -960 -640 0
v -896 -640 0
v -960 -704 0
v -1024 -704 0
v -1024 -640 0
v -960 -640 0
v -896 -768 0
v -960 -768 0
v -960 -704 0
v -896 -704 0
v -960 -768 0
v -1024 -768 0
v -1024 -704 0
v -960 -704 0
v -832 -832 0
v -896 -832 0
v -896 -768 0
v -832 -768 0
v -896 -832 0
v -960 -832 0
v -960 -768 0
v -896 -768 0
v -960 -832 0
v -1024 -832 0
v -1024 -768 0
v -960 -768 0
v -832 -896 0
v -896 -896 0
v -896 -832 0
v -832 -832 0
v -896 -896 0
v -960 -896 0
v -960 -832 0
v -896 -832 0
v -960 -896 0
v -1024 -896 0
v -1024 -832 0
v -960 -832 0
v -768 -960 0
v -832 -960 0
v -832 -896 0
v -768 -896 0
v -832 -960 0
v -896 -960 0
v -896 -896 0
v -832 -896 0
v -896 -960 0
v -960 -960 0
v -960 -896 0
v -896 -896 0
v -960 -960 0
v -1024 -960 0
v -1024 -896 0
v -960 -896 0
v -704 -1024 0
v -768 -1024 0
v -768 -960 0
v -704 -960 0
v -768 -1024 0
v -832 -1024 0
v -832 -960 0
v -768 -960 0
v -832 -1024 0
v -896 -1024 0
v -896 -960 0
v -832 -960 0
v -896 -1024 0
v -960 -1024 0
v -960 -960 0
v -896 -960 0
v -960 -1024 0
v -1024 -1024 0
v -1024 -960 0
v -960 -960 0

# Texture cooridinates (Count = 6)
vt 0.5 0
vt 1 0
vt 1 1
vt 0.5 1
vt 0 0
vt 0 1

# Normal
vn 0 0 -1

# Mesh description
g map_mesh_0116

# Faces
f 1/1/1 2/2/1 3/3/1 4/4/1
f 5/1/1 6/2/1 7/3/1 8/4/1
f 9/1/1 10/2/1 11/3/1 12/4/1
f 13/5/1 14/1/1 15/4/1 16/6/1
f 17/1/1 18/2/1 19/3/1 20/4/1
f 21/5/1 22/1/1 23/4/1 24/6/1
f 25/1/1 26/2/1 27/3/1 28/4/1
f 29/5/1 30/1/1 31/4/1 32/6/1
f 33/5/1 34/1/1 35/4/1 36/6/1
f 37/1/1 38/2/1 39/3/1 40/4/1
f 41/5/1 42/1/1 43/4/1 44/6/1
f 45/5/1 46/1/1 47/4/1 48/6/1
f 49/1/1 50/2/1 51/3/1 52/4/1
f 53/5/1 54/1/1 55/4/1 56/6/1
f 57/5/1 58/1/1 59/4/1 60/6/1
f 61/5/1 62/1/1 63/4/1 64/6/1
f 65/1/1 66/2/1 67/3/1 68/4/1
f 69/1/1 70/2/1 71/3/1 72/4/1
f 73/5/1 74/1/1 75/4/1 76/6/1
f 77/5/1 78/1/1 79/4/1 80/6/1
f 81/5/1 82/1/1 83/4/1 84/6/1

