# Tiled2Unity generated file. Do not modify by hand.
# Wavefront file for 'map_mesh_0222.obj'

# Vertices (Count = 476)
v -448 -576 0
v -512 -576 0
v -512 -512 0
v -448 -512 0
v -512 -576 0
v -576 -576 0
v -576 -512 0
v -512 -512 0
v -576 -576 0
v -640 -576 0
v -640 -512 0
v -576 -512 0
v -640 -576 0
v -704 -576 0
v -704 -512 0
v -640 -512 0
v -704 -576 0
v -768 -576 0
v -768 -512 0
v -704 -512 0
v -768 -576 0
v -832 -576 0
v -832 -512 0
v -768 -512 0
v -832 -576 0
v -896 -576 0
v -896 -512 0
v -832 -512 0
v -896 -576 0
v -960 -576 0
v -960 -512 0
v -896 -512 0
v -960 -576 0
v -1024 -576 0
v -1024 -512 0
v -960 -512 0
v 0 -640 0
v -64 -640 0
v -64 -576 0
v 0 -576 0
v -64 -640 0
v -128 -640 0
v -128 -576 0
v -64 -576 0
v -128 -640 0
v -192 -640 0
v -192 -576 0
v -128 -576 0
v -192 -640 0
v -256 -640 0
v -256 -576 0
v -192 -576 0
v -384 -640 0
v -448 -640 0
v -448 -576 0
v -384 -576 0
v -448 -640 0
v -512 -640 0
v -512 -576 0
v -448 -576 0
v -512 -640 0
v -576 -640 0
v -576 -576 0
v -512 -576 0
v -576 -640 0
v -640 -640 0
v -640 -576 0
v -576 -576 0
v -640 -640 0
v -704 -640 0
v -704 -576 0
v -640 -576 0
v -704 -640 0
v -768 -640 0
v -768 -576 0
v -704 -576 0
v -768 -640 0
v -832 -640 0
v -832 -576 0
v -768 -576 0
v -832 -640 0
v -896 -640 0
v -896 -576 0
v -832 -576 0
v -896 -640 0
v -960 -640 0
v -960 -576 0
v -896 -576 0
v -960 -640 0
v -1024 -640 0
v -1024 -576 0
v -960 -576 0
v 0 -704 0
v -64 -704 0
v -64 -640 0
v 0 -640 0
v -64 -704 0
v -128 -704 0
v -128 -640 0
v -64 -640 0
v -128 -704 0
v -192 -704 0
v -192 -640 0
v -128 -640 0
v -192 -704 0
v -256 -704 0
v -256 -640 0
v -192 -640 0
v -256 -704 0
v -320 -704 0
v -320 -640 0
v -256 -640 0
v -320 -704 0
v -384 -704 0
v -384 -640 0
v -320 -640 0
v -384 -704 0
v -448 -704 0
v -448 -640 0
v -384 -640 0
v -448 -704 0
v -512 -704 0
v -512 -640 0
v -448 -640 0
v -512 -704 0
v -576 -704 0
v -576 -640 0
v -512 -640 0
v -576 -704 0
v -640 -704 0
v -640 -640 0
v -576 -640 0
v -640 -704 0
v -704 -704 0
v -704 -640 0
v -640 -640 0
v -704 -704 0
v -768 -704 0
v -768 -640 0
v -704 -640 0
v -768 -704 0
v -832 -704 0
v -832 -640 0
v -768 -640 0
v -832 -704 0
v -896 -704 0
v -896 -640 0
v -832 -640 0
v -896 -704 0
v -960 -704 0
v -960 -640 0
v -896 -640 0
v -960 -704 0
v -1024 -704 0
v -1024 -640 0
v -960 -640 0
v 0 -768 0
v -64 -768 0
v -64 -704 0
v 0 -704 0
v -64 -768 0
v -128 -768 0
v -128 -704 0
v -64 -704 0
v -128 -768 0
v -192 -768 0
v -192 -704 0
v -128 -704 0
v -192 -768 0
v -256 -768 0
v -256 -704 0
v -192 -704 0
v -256 -768 0
v -320 -768 0
v -320 -704 0
v -256 -704 0
v -320 -768 0
v -384 -768 0
v -384 -704 0
v -320 -704 0
v -384 -768 0
v -448 -768 0
v -448 -704 0
v -384 -704 0
v -448 -768 0
v -512 -768 0
v -512 -704 0
v -448 -704 0
v -512 -768 0
v -576 -768 0
v -576 -704 0
v -512 -704 0
v -576 -768 0
v -640 -768 0
v -640 -704 0
v -576 -704 0
v -640 -768 0
v -704 -768 0
v -704 -704 0
v -640 -704 0
v -704 -768 0
v -768 -768 0
v -768 -704 0
v -704 -704 0
v -768 -768 0
v -832 -768 0
v -832 -704 0
v -768 -704 0
v -832 -768 0
v -896 -768 0
v -896 -704 0
v -832 -704 0
v -896 -768 0
v -960 -768 0
v -960 -704 0
v -896 -704 0
v -960 -768 0
v -1024 -768 0
v -1024 -704 0
v -960 -704 0
v 0 -832 0
v -64 -832 0
v -64 -768 0
v 0 -768 0
v -64 -832 0
v -128 -832 0
v -128 -768 0
v -64 -768 0
v -128 -832 0
v -192 -832 0
v -192 -768 0
v -128 -768 0
v -192 -832 0
v -256 -832 0
v -256 -768 0
v -192 -768 0
v -256 -832 0
v -320 -832 0
v -320 -768 0
v -256 -768 0
v -320 -832 0
v -384 -832 0
v -384 -768 0
v -320 -768 0
v -384 -832 0
v -448 -832 0
v -448 -768 0
v -384 -768 0
v -448 -832 0
v -512 -832 0
v -512 -768 0
v -448 -768 0
v -512 -832 0
v -576 -832 0
v -576 -768 0
v -512 -768 0
v -576 -832 0
v -640 -832 0
v -640 -768 0
v -576 -768 0
v -640 -832 0
v -704 -832 0
v -704 -768 0
v -640 -768 0
v -704 -832 0
v -768 -832 0
v -768 -768 0
v -704 -768 0
v -768 -832 0
v -832 -832 0
v -832 -768 0
v -768 -768 0
v -832 -832 0
v -896 -832 0
v -896 -768 0
v -832 -768 0
v -896 -832 0
v -960 -832 0
v -960 -768 0
v -896 -768 0
v -960 -832 0
v -1024 -832 0
v -1024 -768 0
v -960 -768 0
v 0 -896 0
v -64 -896 0
v -64 -832 0
v 0 -832 0
v -64 -896 0
v -128 -896 0
v -128 -832 0
v -64 -832 0
v -128 -896 0
v -192 -896 0
v -192 -832 0
v -128 -832 0
v -192 -896 0
v -256 -896 0
v -256 -832 0
v -192 -832 0
v -256 -896 0
v -320 -896 0
v -320 -832 0
v -256 -832 0
v -320 -896 0
v -384 -896 0
v -384 -832 0
v -320 -832 0
v -384 -896 0
v -448 -896 0
v -448 -832 0
v -384 -832 0
v -448 -896 0
v -512 -896 0
v -512 -832 0
v -448 -832 0
v -512 -896 0
v -576 -896 0
v -576 -832 0
v -512 -832 0
v -576 -896 0
v -640 -896 0
v -640 -832 0
v -576 -832 0
v -640 -896 0
v -704 -896 0
v -704 -832 0
v -640 -832 0
v -704 -896 0
v -768 -896 0
v -768 -832 0
v -704 -832 0
v -768 -896 0
v -832 -896 0
v -832 -832 0
v -768 -832 0
v -832 -896 0
v -896 -896 0
v -896 -832 0
v -832 -832 0
v -896 -896 0
v -960 -896 0
v -960 -832 0
v -896 -832 0
v -960 -896 0
v -1024 -896 0
v -1024 -832 0
v -960 -832 0
v 0 -960 0
v -64 -960 0
v -64 -896 0
v 0 -896 0
v -64 -960 0
v -128 -960 0
v -128 -896 0
v -64 -896 0
v -128 -960 0
v -192 -960 0
v -192 -896 0
v -128 -896 0
v -192 -960 0
v -256 -960 0
v -256 -896 0
v -192 -896 0
v -256 -960 0
v -320 -960 0
v -320 -896 0
v -256 -896 0
v -320 -960 0
v -384 -960 0
v -384 -896 0
v -320 -896 0
v -384 -960 0
v -448 -960 0
v -448 -896 0
v -384 -896 0
v -448 -960 0
v -512 -960 0
v -512 -896 0
v -448 -896 0
v -512 -960 0
v -576 -960 0
v -576 -896 0
v -512 -896 0
v -576 -960 0
v -640 -960 0
v -640 -896 0
v -576 -896 0
v -640 -960 0
v -704 -960 0
v -704 -896 0
v -640 -896 0
v -704 -960 0
v -768 -960 0
v -768 -896 0
v -704 -896 0
v -768 -960 0
v -832 -960 0
v -832 -896 0
v -768 -896 0
v -832 -960 0
v -896 -960 0
v -896 -896 0
v -832 -896 0
v -896 -960 0
v -960 -960 0
v -960 -896 0
v -896 -896 0
v -960 -960 0
v -1024 -960 0
v -1024 -896 0
v -960 -896 0
v 0 -1024 0
v -64 -1024 0
v -64 -960 0
v 0 -960 0
v -64 -1024 0
v -128 -1024 0
v -128 -960 0
v -64 -960 0
v -128 -1024 0
v -192 -1024 0
v -192 -960 0
v -128 -960 0
v -192 -1024 0
v -256 -1024 0
v -256 -960 0
v -192 -960 0
v -256 -1024 0
v -320 -1024 0
v -320 -960 0
v -256 -960 0
v -320 -1024 0
v -384 -1024 0
v -384 -960 0
v -320 -960 0
v -384 -1024 0
v -448 -1024 0
v -448 -960 0
v -384 -960 0
v -448 -1024 0
v -512 -1024 0
v -512 -960 0
v -448 -960 0
v -512 -1024 0
v -576 -1024 0
v -576 -960 0
v -512 -960 0
v -576 -1024 0
v -640 -1024 0
v -640 -960 0
v -576 -960 0
v -640 -1024 0
v -704 -1024 0
v -704 -960 0
v -640 -960 0
v -704 -1024 0
v -768 -1024 0
v -768 -960 0
v -704 -960 0
v -768 -1024 0
v -832 -1024 0
v -832 -960 0
v -768 -960 0
v -832 -1024 0
v -896 -1024 0
v -896 -960 0
v -832 -960 0
v -896 -1024 0
v -960 -1024 0
v -960 -960 0
v -896 -960 0
v -960 -1024 0
v -1024 -1024 0
v -1024 -960 0
v -960 -960 0

# Texture cooridinates (Count = 42)
vt 0.2222222 0.3333333
vt 0.2962963 0.3333333
vt 0.2962963 0.4444444
vt 0.2222222 0.4444444
vt 0.3703704 0.3333333
vt 0.3703704 0.4444444
vt 0.4444444 0.3333333
vt 0.4444444 0.4444444
vt 0.5185185 0.3333333
vt 0.5185185 0.4444444
vt 0.5925926 0.3333333
vt 0.5925926 0.4444444
vt 0.6666667 0.3333333
vt 0.6666667 0.4444444
vt 0.7407407 0.3333333
vt 0.7407407 0.4444444
vt 0.1481481 0.3333333
vt 0.1481481 0.4444444
vt 0.07407407 0.3333333
vt 0.07407407 0.4444444
vt 0.2222222 0.2222222
vt 0.2962963 0.2222222
vt 0.3703704 0.2222222
vt 0.4444444 0.2222222
vt 0.5185185 0.2222222
vt 0.5925926 0.2222222
vt 0.6666667 0.2222222
vt 0.7407407 0.2222222
vt 0.1481481 0.2222222
vt 0.2962963 0.1111111
vt 0.3703704 0.1111111
vt 0.8148148 0.7777778
vt 0.8888889 0.7777778
vt 0.8888889 0.8888889
vt 0.8148148 0.8888889
vt 0.4444444 0.1111111
vt 0.5185185 0.1111111
vt 0.5925926 0.1111111
vt 0.6666667 0.1111111
vt 0.1481481 0.1111111
vt 0.2222222 0.1111111
vt 0.7407407 0.1111111

# Normal
vn 0 0 -1

# Mesh description
g map_mesh_0222

# Faces
f 1/1/1 2/2/1 3/3/1 4/4/1
f 5/2/1 6/5/1 7/6/1 8/3/1
f 9/5/1 10/7/1 11/8/1 12/6/1
f 13/7/1 14/9/1 15/10/1 16/8/1
f 17/9/1 18/11/1 19/12/1 20/10/1
f 21/11/1 22/13/1 23/14/1 24/12/1
f 25/13/1 26/15/1 27/16/1 28/14/1
f 29/17/1 30/1/1 31/4/1 32/18/1
f 33/1/1 34/2/1 35/3/1 36/4/1
f 37/9/1 38/11/1 39/12/1 40/10/1
f 41/11/1 42/13/1 43/14/1 44/12/1
f 45/13/1 46/15/1 47/16/1 48/14/1
f 49/17/1 50/1/1 51/4/1 52/18/1
f 53/19/1 54/17/1 55/18/1 56/20/1
f 57/21/1 58/22/1 59/2/1 60/1/1
f 61/22/1 62/23/1 63/5/1 64/2/1
f 65/23/1 66/24/1 67/7/1 68/5/1
f 69/24/1 70/25/1 71/9/1 72/7/1
f 73/25/1 74/26/1 75/11/1 76/9/1
f 77/26/1 78/27/1 79/13/1 80/11/1
f 81/27/1 82/28/1 83/15/1 84/13/1
f 85/29/1 86/21/1 87/1/1 88/17/1
f 89/21/1 90/22/1 91/2/1 92/1/1
f 93/25/1 94/26/1 95/11/1 96/9/1
f 97/26/1 98/27/1 99/13/1 100/11/1
f 101/27/1 102/28/1 103/15/1 104/13/1
f 105/29/1 106/21/1 107/1/1 108/17/1
f 109/17/1 110/1/1 111/4/1 112/18/1
f 113/2/1 114/5/1 115/6/1 116/3/1
f 117/21/1 118/22/1 119/2/1 120/1/1
f 121/30/1 122/31/1 123/23/1 124/22/1
f 125/32/1 126/33/1 127/34/1 128/35/1
f 129/36/1 130/37/1 131/25/1 132/24/1
f 133/37/1 134/38/1 135/26/1 136/25/1
f 137/38/1 138/39/1 139/27/1 140/26/1
f 141/40/1 142/41/1 143/21/1 144/29/1
f 145/41/1 146/30/1 147/22/1 148/21/1
f 149/30/1 150/31/1 151/23/1 152/22/1
f 153/32/1 154/33/1 155/34/1 156/35/1
f 157/24/1 158/25/1 159/9/1 160/7/1
f 161/25/1 162/26/1 163/11/1 164/9/1
f 165/26/1 166/27/1 167/13/1 168/11/1
f 169/27/1 170/28/1 171/15/1 172/13/1
f 173/29/1 174/21/1 175/1/1 176/17/1
f 177/32/1 178/33/1 179/34/1 180/35/1
f 181/32/1 182/33/1 183/34/1 184/35/1
f 185/32/1 186/33/1 187/34/1 188/35/1
f 189/32/1 190/33/1 191/34/1 192/35/1
f 193/32/1 194/33/1 195/34/1 196/35/1
f 197/32/1 198/33/1 199/34/1 200/35/1
f 201/32/1 202/33/1 203/34/1 204/35/1
f 205/32/1 206/33/1 207/34/1 208/35/1
f 209/32/1 210/33/1 211/34/1 212/35/1
f 213/32/1 214/33/1 215/34/1 216/35/1
f 217/32/1 218/33/1 219/34/1 220/35/1
f 221/26/1 222/27/1 223/13/1 224/11/1
f 225/27/1 226/28/1 227/15/1 228/13/1
f 229/29/1 230/21/1 231/1/1 232/17/1
f 233/40/1 234/41/1 235/21/1 236/29/1
f 237/41/1 238/30/1 239/22/1 240/21/1
f 241/30/1 242/31/1 243/23/1 244/22/1
f 245/32/1 246/33/1 247/34/1 248/35/1
f 249/36/1 250/37/1 251/25/1 252/24/1
f 253/37/1 254/38/1 255/26/1 256/25/1
f 257/38/1 258/39/1 259/27/1 260/26/1
f 261/39/1 262/42/1 263/28/1 264/27/1
f 265/32/1 266/33/1 267/34/1 268/35/1
f 269/32/1 270/33/1 271/34/1 272/35/1
f 273/32/1 274/33/1 275/34/1 276/35/1
f 277/32/1 278/33/1 279/34/1 280/35/1
f 281/32/1 282/33/1 283/34/1 284/35/1
f 285/38/1 286/39/1 287/27/1 288/26/1
f 289/39/1 290/42/1 291/28/1 292/27/1
f 293/40/1 294/41/1 295/21/1 296/29/1
f 297/41/1 298/30/1 299/22/1 300/21/1
f 301/30/1 302/31/1 303/23/1 304/22/1
f 305/32/1 306/33/1 307/34/1 308/35/1
f 309/36/1 310/37/1 311/25/1 312/24/1
f 313/37/1 314/38/1 315/26/1 316/25/1
f 317/38/1 318/39/1 319/27/1 320/26/1
f 321/39/1 322/42/1 323/28/1 324/27/1
f 325/32/1 326/33/1 327/34/1 328/35/1
f 329/32/1 330/33/1 331/34/1 332/35/1
f 333/32/1 334/33/1 335/34/1 336/35/1
f 337/32/1 338/33/1 339/34/1 340/35/1
f 341/32/1 342/33/1 343/34/1 344/35/1
f 345/32/1 346/33/1 347/34/1 348/35/1
f 349/32/1 350/33/1 351/34/1 352/35/1
f 353/32/1 354/33/1 355/34/1 356/35/1
f 357/32/1 358/33/1 359/34/1 360/35/1
f 361/32/1 362/33/1 363/34/1 364/35/1
f 365/32/1 366/33/1 367/34/1 368/35/1
f 369/32/1 370/33/1 371/34/1 372/35/1
f 373/32/1 374/33/1 375/34/1 376/35/1
f 377/32/1 378/33/1 379/34/1 380/35/1
f 381/32/1 382/33/1 383/34/1 384/35/1
f 385/32/1 386/33/1 387/34/1 388/35/1
f 389/32/1 390/33/1 391/34/1 392/35/1
f 393/32/1 394/33/1 395/34/1 396/35/1
f 397/32/1 398/33/1 399/34/1 400/35/1
f 401/32/1 402/33/1 403/34/1 404/35/1
f 405/32/1 406/33/1 407/34/1 408/35/1
f 409/32/1 410/33/1 411/34/1 412/35/1
f 413/32/1 414/33/1 415/34/1 416/35/1
f 417/32/1 418/33/1 419/34/1 420/35/1
f 421/32/1 422/33/1 423/34/1 424/35/1
f 425/32/1 426/33/1 427/34/1 428/35/1
f 429/32/1 430/33/1 431/34/1 432/35/1
f 433/32/1 434/33/1 435/34/1 436/35/1
f 437/32/1 438/33/1 439/34/1 440/35/1
f 441/32/1 442/33/1 443/34/1 444/35/1
f 445/32/1 446/33/1 447/34/1 448/35/1
f 449/32/1 450/33/1 451/34/1 452/35/1
f 453/32/1 454/33/1 455/34/1 456/35/1
f 457/32/1 458/33/1 459/34/1 460/35/1
f 461/32/1 462/33/1 463/34/1 464/35/1
f 465/32/1 466/33/1 467/34/1 468/35/1
f 469/32/1 470/33/1 471/34/1 472/35/1
f 473/32/1 474/33/1 475/34/1 476/35/1

