# Tiled2Unity generated file. Do not modify by hand.
# Wavefront file for 'map_mesh_0058.obj'

# Vertices (Count = 40)
v -512 -448 0
v -576 -448 0
v -576 -384 0
v -512 -384 0
v -512 -512 0
v -576 -512 0
v -576 -448 0
v -512 -448 0
v -512 -576 0
v -576 -576 0
v -576 -512 0
v -512 -512 0
v -512 -640 0
v -576 -640 0
v -576 -576 0
v -512 -576 0
v -512 -704 0
v -576 -704 0
v -576 -640 0
v -512 -640 0
v -512 -768 0
v -576 -768 0
v -576 -704 0
v -512 -704 0
v -448 -832 0
v -512 -832 0
v -512 -768 0
v -448 -768 0
v -448 -896 0
v -512 -896 0
v -512 -832 0
v -448 -832 0
v -448 -960 0
v -512 -960 0
v -512 -896 0
v -448 -896 0
v -448 -1024 0
v -512 -1024 0
v -512 -960 0
v -448 -960 0

# Texture cooridinates (Count = 4)
vt 0 0
vt 1 0
vt 1 1
vt 0 1

# Normal
vn 0 0 -1

# Mesh description
g map_mesh_0058

# Faces
f 1/1/1 2/2/1 3/3/1 4/4/1
f 5/1/1 6/2/1 7/3/1 8/4/1
f 9/1/1 10/2/1 11/3/1 12/4/1
f 13/1/1 14/2/1 15/3/1 16/4/1
f 17/1/1 18/2/1 19/3/1 20/4/1
f 21/1/1 22/2/1 23/3/1 24/4/1
f 25/1/1 26/2/1 27/3/1 28/4/1
f 29/1/1 30/2/1 31/3/1 32/4/1
f 33/1/1 34/2/1 35/3/1 36/4/1
f 37/1/1 38/2/1 39/3/1 40/4/1

