# Tiled2Unity generated file. Do not modify by hand.
# Wavefront file for 'map_mesh_0010.obj'

# Vertices (Count = 16)
v -512 -704 0
v -576 -704 0
v -576 -640 0
v -512 -640 0
v -448 -768 0
v -512 -768 0
v -512 -704 0
v -448 -704 0
v -512 -768 0
v -576 -768 0
v -576 -704 0
v -512 -704 0
v -576 -768 0
v -640 -768 0
v -640 -704 0
v -576 -704 0

# Texture cooridinates (Count = 10)
vt 0.5185185 0.5555556
vt 0.5925926 0.5555556
vt 0.5925926 0.6666666
vt 0.5185185 0.6666666
vt 0.4444444 0.4444444
vt 0.5185185 0.4444444
vt 0.4444444 0.5555556
vt 0.5925926 0.4444444
vt 0.6666667 0.4444444
vt 0.6666667 0.5555556

# Normal
vn 0 0 -1

# Mesh description
g map_mesh_0010

# Faces
f 1/1/1 2/2/1 3/3/1 4/4/1
f 5/5/1 6/6/1 7/1/1 8/7/1
f 9/6/1 10/8/1 11/2/1 12/1/1
f 13/8/1 14/9/1 15/10/1 16/2/1

