# Tiled2Unity generated file. Do not modify by hand.
# Wavefront file for 'map_mesh_0337.obj'

# Vertices (Count = 420)
v 0 -192 0
v -64 -192 0
v -64 -128 0
v 0 -128 0
v -512 -192 0
v -576 -192 0
v -576 -128 0
v -512 -128 0
v -576 -192 0
v -640 -192 0
v -640 -128 0
v -576 -128 0
v -640 -192 0
v -704 -192 0
v -704 -128 0
v -640 -128 0
v -704 -192 0
v -768 -192 0
v -768 -128 0
v -704 -128 0
v -768 -192 0
v -832 -192 0
v -832 -128 0
v -768 -128 0
v -832 -192 0
v -896 -192 0
v -896 -128 0
v -832 -128 0
v -896 -192 0
v -960 -192 0
v -960 -128 0
v -896 -128 0
v -960 -192 0
v -1024 -192 0
v -1024 -128 0
v -960 -128 0
v 0 -704 0
v -64 -704 0
v -64 -640 0
v 0 -640 0
v -64 -704 0
v -128 -704 0
v -128 -640 0
v -64 -640 0
v -128 -704 0
v -192 -704 0
v -192 -640 0
v -128 -640 0
v -192 -704 0
v -256 -704 0
v -256 -640 0
v -192 -640 0
v -256 -704 0
v -320 -704 0
v -320 -640 0
v -256 -640 0
v -320 -704 0
v -384 -704 0
v -384 -640 0
v -320 -640 0
v -384 -704 0
v -448 -704 0
v -448 -640 0
v -384 -640 0
v -448 -704 0
v -512 -704 0
v -512 -640 0
v -448 -640 0
v -512 -704 0
v -576 -704 0
v -576 -640 0
v -512 -640 0
v -576 -704 0
v -640 -704 0
v -640 -640 0
v -576 -640 0
v -640 -704 0
v -704 -704 0
v -704 -640 0
v -640 -640 0
v -704 -704 0
v -768 -704 0
v -768 -640 0
v -704 -640 0
v -768 -704 0
v -832 -704 0
v -832 -640 0
v -768 -640 0
v -832 -704 0
v -896 -704 0
v -896 -640 0
v -832 -640 0
v -896 -704 0
v -960 -704 0
v -960 -640 0
v -896 -640 0
v -960 -704 0
v -1024 -704 0
v -1024 -640 0
v -960 -640 0
v 0 -768 0
v -64 -768 0
v -64 -704 0
v 0 -704 0
v -64 -768 0
v -128 -768 0
v -128 -704 0
v -64 -704 0
v -128 -768 0
v -192 -768 0
v -192 -704 0
v -128 -704 0
v -192 -768 0
v -256 -768 0
v -256 -704 0
v -192 -704 0
v -256 -768 0
v -320 -768 0
v -320 -704 0
v -256 -704 0
v -320 -768 0
v -384 -768 0
v -384 -704 0
v -320 -704 0
v -384 -768 0
v -448 -768 0
v -448 -704 0
v -384 -704 0
v -448 -768 0
v -512 -768 0
v -512 -704 0
v -448 -704 0
v -512 -768 0
v -576 -768 0
v -576 -704 0
v -512 -704 0
v -576 -768 0
v -640 -768 0
v -640 -704 0
v -576 -704 0
v -640 -768 0
v -704 -768 0
v -704 -704 0
v -640 -704 0
v -704 -768 0
v -768 -768 0
v -768 -704 0
v -704 -704 0
v -768 -768 0
v -832 -768 0
v -832 -704 0
v -768 -704 0
v -832 -768 0
v -896 -768 0
v -896 -704 0
v -832 -704 0
v -896 -768 0
v -960 -768 0
v -960 -704 0
v -896 -704 0
v -960 -768 0
v -1024 -768 0
v -1024 -704 0
v -960 -704 0
v 0 -832 0
v -64 -832 0
v -64 -768 0
v 0 -768 0
v -64 -832 0
v -128 -832 0
v -128 -768 0
v -64 -768 0
v -128 -832 0
v -192 -832 0
v -192 -768 0
v -128 -768 0
v -192 -832 0
v -256 -832 0
v -256 -768 0
v -192 -768 0
v -256 -832 0
v -320 -832 0
v -320 -768 0
v -256 -768 0
v -320 -832 0
v -384 -832 0
v -384 -768 0
v -320 -768 0
v -384 -832 0
v -448 -832 0
v -448 -768 0
v -384 -768 0
v -448 -832 0
v -512 -832 0
v -512 -768 0
v -448 -768 0
v -512 -832 0
v -576 -832 0
v -576 -768 0
v -512 -768 0
v -576 -832 0
v -640 -832 0
v -640 -768 0
v -576 -768 0
v -640 -832 0
v -704 -832 0
v -704 -768 0
v -640 -768 0
v -704 -832 0
v -768 -832 0
v -768 -768 0
v -704 -768 0
v -768 -832 0
v -832 -832 0
v -832 -768 0
v -768 -768 0
v -832 -832 0
v -896 -832 0
v -896 -768 0
v -832 -768 0
v -896 -832 0
v -960 -832 0
v -960 -768 0
v -896 -768 0
v -960 -832 0
v -1024 -832 0
v -1024 -768 0
v -960 -768 0
v 0 -896 0
v -64 -896 0
v -64 -832 0
v 0 -832 0
v -64 -896 0
v -128 -896 0
v -128 -832 0
v -64 -832 0
v -128 -896 0
v -192 -896 0
v -192 -832 0
v -128 -832 0
v -192 -896 0
v -256 -896 0
v -256 -832 0
v -192 -832 0
v -256 -896 0
v -320 -896 0
v -320 -832 0
v -256 -832 0
v -320 -896 0
v -384 -896 0
v -384 -832 0
v -320 -832 0
v -384 -896 0
v -448 -896 0
v -448 -832 0
v -384 -832 0
v -448 -896 0
v -512 -896 0
v -512 -832 0
v -448 -832 0
v -512 -896 0
v -576 -896 0
v -576 -832 0
v -512 -832 0
v -576 -896 0
v -640 -896 0
v -640 -832 0
v -576 -832 0
v -640 -896 0
v -704 -896 0
v -704 -832 0
v -640 -832 0
v -704 -896 0
v -768 -896 0
v -768 -832 0
v -704 -832 0
v -768 -896 0
v -832 -896 0
v -832 -832 0
v -768 -832 0
v -832 -896 0
v -896 -896 0
v -896 -832 0
v -832 -832 0
v -896 -896 0
v -960 -896 0
v -960 -832 0
v -896 -832 0
v -960 -896 0
v -1024 -896 0
v -1024 -832 0
v -960 -832 0
v 0 -960 0
v -64 -960 0
v -64 -896 0
v 0 -896 0
v -64 -960 0
v -128 -960 0
v -128 -896 0
v -64 -896 0
v -128 -960 0
v -192 -960 0
v -192 -896 0
v -128 -896 0
v -192 -960 0
v -256 -960 0
v -256 -896 0
v -192 -896 0
v -256 -960 0
v -320 -960 0
v -320 -896 0
v -256 -896 0
v -320 -960 0
v -384 -960 0
v -384 -896 0
v -320 -896 0
v -384 -960 0
v -448 -960 0
v -448 -896 0
v -384 -896 0
v -448 -960 0
v -512 -960 0
v -512 -896 0
v -448 -896 0
v -512 -960 0
v -576 -960 0
v -576 -896 0
v -512 -896 0
v -576 -960 0
v -640 -960 0
v -640 -896 0
v -576 -896 0
v -640 -960 0
v -704 -960 0
v -704 -896 0
v -640 -896 0
v -704 -960 0
v -768 -960 0
v -768 -896 0
v -704 -896 0
v -768 -960 0
v -832 -960 0
v -832 -896 0
v -768 -896 0
v -832 -960 0
v -896 -960 0
v -896 -896 0
v -832 -896 0
v -896 -960 0
v -960 -960 0
v -960 -896 0
v -896 -896 0
v -960 -960 0
v -1024 -960 0
v -1024 -896 0
v -960 -896 0
v 0 -1024 0
v -64 -1024 0
v -64 -960 0
v 0 -960 0
v -64 -1024 0
v -128 -1024 0
v -128 -960 0
v -64 -960 0
v -128 -1024 0
v -192 -1024 0
v -192 -960 0
v -128 -960 0
v -192 -1024 0
v -256 -1024 0
v -256 -960 0
v -192 -960 0
v -256 -1024 0
v -320 -1024 0
v -320 -960 0
v -256 -960 0
v -320 -1024 0
v -384 -1024 0
v -384 -960 0
v -320 -960 0
v -384 -1024 0
v -448 -1024 0
v -448 -960 0
v -384 -960 0
v -448 -1024 0
v -512 -1024 0
v -512 -960 0
v -448 -960 0
v -512 -1024 0
v -576 -1024 0
v -576 -960 0
v -512 -960 0
v -576 -1024 0
v -640 -1024 0
v -640 -960 0
v -576 -960 0
v -640 -1024 0
v -704 -1024 0
v -704 -960 0
v -640 -960 0
v -704 -1024 0
v -768 -1024 0
v -768 -960 0
v -704 -960 0
v -768 -1024 0
v -832 -1024 0
v -832 -960 0
v -768 -960 0
v -832 -1024 0
v -896 -1024 0
v -896 -960 0
v -832 -960 0
v -896 -1024 0
v -960 -1024 0
v -960 -960 0
v -896 -960 0
v -960 -1024 0
v -1024 -1024 0
v -1024 -960 0
v -960 -960 0

# Texture cooridinates (Count = 17)
vt 0.4 0
vt 0.6 0
vt 0.6 0.3333333
vt 0.4 0.3333333
vt 0 0
vt 0.2 0
vt 0.2 0.3333333
vt 0 0.3333333
vt 0.2 0.6666666
vt 0 0.6666666
vt 0.4 0.6666666
vt 0.4 1
vt 0.2 1
vt 0.8 0.3333333
vt 1 0.3333333
vt 1 0.6666666
vt 0.8 0.6666666

# Normal
vn 0 0 -1

# Mesh description
g map_mesh_0337

# Faces
f 1/1/1 2/2/1 3/3/1 4/4/1
f 5/5/1 6/6/1 7/7/1 8/8/1
f 9/6/1 10/1/1 11/4/1 12/7/1
f 13/6/1 14/1/1 15/4/1 16/7/1
f 17/6/1 18/1/1 19/4/1 20/7/1
f 21/6/1 22/1/1 23/4/1 24/7/1
f 25/6/1 26/1/1 27/4/1 28/7/1
f 29/6/1 30/1/1 31/4/1 32/7/1
f 33/6/1 34/1/1 35/4/1 36/7/1
f 37/8/1 38/7/1 39/9/1 40/10/1
f 41/8/1 42/7/1 43/9/1 44/10/1
f 45/8/1 46/7/1 47/9/1 48/10/1
f 49/8/1 50/7/1 51/9/1 52/10/1
f 53/8/1 54/7/1 55/9/1 56/10/1
f 57/8/1 58/7/1 59/9/1 60/10/1
f 61/8/1 62/7/1 63/9/1 64/10/1
f 65/8/1 66/7/1 67/9/1 68/10/1
f 69/8/1 70/7/1 71/9/1 72/10/1
f 73/8/1 74/7/1 75/9/1 76/10/1
f 77/8/1 78/7/1 79/9/1 80/10/1
f 81/8/1 82/7/1 83/9/1 84/10/1
f 85/8/1 86/7/1 87/9/1 88/10/1
f 89/8/1 90/7/1 91/9/1 92/10/1
f 93/8/1 94/7/1 95/9/1 96/10/1
f 97/8/1 98/7/1 99/9/1 100/10/1
f 101/9/1 102/11/1 103/12/1 104/13/1
f 105/9/1 106/11/1 107/12/1 108/13/1
f 109/9/1 110/11/1 111/12/1 112/13/1
f 113/9/1 114/11/1 115/12/1 116/13/1
f 117/9/1 118/11/1 119/12/1 120/13/1
f 121/9/1 122/11/1 123/12/1 124/13/1
f 125/9/1 126/11/1 127/12/1 128/13/1
f 129/9/1 130/11/1 131/12/1 132/13/1
f 133/9/1 134/11/1 135/12/1 136/13/1
f 137/9/1 138/11/1 139/12/1 140/13/1
f 141/9/1 142/11/1 143/12/1 144/13/1
f 145/9/1 146/11/1 147/12/1 148/13/1
f 149/9/1 150/11/1 151/12/1 152/13/1
f 153/9/1 154/11/1 155/12/1 156/13/1
f 157/9/1 158/11/1 159/12/1 160/13/1
f 161/9/1 162/11/1 163/12/1 164/13/1
f 165/14/1 166/15/1 167/16/1 168/17/1
f 169/14/1 170/15/1 171/16/1 172/17/1
f 173/14/1 174/15/1 175/16/1 176/17/1
f 177/14/1 178/15/1 179/16/1 180/17/1
f 181/14/1 182/15/1 183/16/1 184/17/1
f 185/14/1 186/15/1 187/16/1 188/17/1
f 189/14/1 190/15/1 191/16/1 192/17/1
f 193/14/1 194/15/1 195/16/1 196/17/1
f 197/14/1 198/15/1 199/16/1 200/17/1
f 201/14/1 202/15/1 203/16/1 204/17/1
f 205/14/1 206/15/1 207/16/1 208/17/1
f 209/14/1 210/15/1 211/16/1 212/17/1
f 213/14/1 214/15/1 215/16/1 216/17/1
f 217/14/1 218/15/1 219/16/1 220/17/1
f 221/14/1 222/15/1 223/16/1 224/17/1
f 225/14/1 226/15/1 227/16/1 228/17/1
f 229/14/1 230/15/1 231/16/1 232/17/1
f 233/14/1 234/15/1 235/16/1 236/17/1
f 237/14/1 238/15/1 239/16/1 240/17/1
f 241/14/1 242/15/1 243/16/1 244/17/1
f 245/14/1 246/15/1 247/16/1 248/17/1
f 249/14/1 250/15/1 251/16/1 252/17/1
f 253/14/1 254/15/1 255/16/1 256/17/1
f 257/14/1 258/15/1 259/16/1 260/17/1
f 261/14/1 262/15/1 263/16/1 264/17/1
f 265/14/1 266/15/1 267/16/1 268/17/1
f 269/14/1 270/15/1 271/16/1 272/17/1
f 273/14/1 274/15/1 275/16/1 276/17/1
f 277/14/1 278/15/1 279/16/1 280/17/1
f 281/14/1 282/15/1 283/16/1 284/17/1
f 285/14/1 286/15/1 287/16/1 288/17/1
f 289/14/1 290/15/1 291/16/1 292/17/1
f 293/14/1 294/15/1 295/16/1 296/17/1
f 297/14/1 298/15/1 299/16/1 300/17/1
f 301/14/1 302/15/1 303/16/1 304/17/1
f 305/14/1 306/15/1 307/16/1 308/17/1
f 309/14/1 310/15/1 311/16/1 312/17/1
f 313/14/1 314/15/1 315/16/1 316/17/1
f 317/14/1 318/15/1 319/16/1 320/17/1
f 321/14/1 322/15/1 323/16/1 324/17/1
f 325/14/1 326/15/1 327/16/1 328/17/1
f 329/14/1 330/15/1 331/16/1 332/17/1
f 333/14/1 334/15/1 335/16/1 336/17/1
f 337/14/1 338/15/1 339/16/1 340/17/1
f 341/14/1 342/15/1 343/16/1 344/17/1
f 345/14/1 346/15/1 347/16/1 348/17/1
f 349/14/1 350/15/1 351/16/1 352/17/1
f 353/14/1 354/15/1 355/16/1 356/17/1
f 357/14/1 358/15/1 359/16/1 360/17/1
f 361/14/1 362/15/1 363/16/1 364/17/1
f 365/14/1 366/15/1 367/16/1 368/17/1
f 369/14/1 370/15/1 371/16/1 372/17/1
f 373/14/1 374/15/1 375/16/1 376/17/1
f 377/14/1 378/15/1 379/16/1 380/17/1
f 381/14/1 382/15/1 383/16/1 384/17/1
f 385/14/1 386/15/1 387/16/1 388/17/1
f 389/14/1 390/15/1 391/16/1 392/17/1
f 393/14/1 394/15/1 395/16/1 396/17/1
f 397/14/1 398/15/1 399/16/1 400/17/1
f 401/14/1 402/15/1 403/16/1 404/17/1
f 405/14/1 406/15/1 407/16/1 408/17/1
f 409/14/1 410/15/1 411/16/1 412/17/1
f 413/14/1 414/15/1 415/16/1 416/17/1
f 417/14/1 418/15/1 419/16/1 420/17/1

